M48
; DRILL file {KiCad 8.0.7} date 2024-12-27T14:43:48-0500
; FORMAT={-:-/ absolute / inch / decimal}
; #@! TF.CreationDate,2024-12-27T14:43:48-05:00
; #@! TF.GenerationSoftware,Kicad,Pcbnew,8.0.7
; #@! TF.FileFunction,NonPlated,1,2,NPTH
FMAT,2
INCH
; #@! TA.AperFunction,NonPlated,NPTH,ComponentDrill
T1C0.0256
; #@! TA.AperFunction,NonPlated,NPTH,ComponentDrill
T2C0.0390
; #@! TA.AperFunction,NonPlated,NPTH,ComponentDrill
T3C0.0670
; #@! TA.AperFunction,NonPlated,NPTH,ComponentDrill
T4C0.1350
%
G90
G05
T1
X4.9897Y-1.8661
X4.9897Y-2.0937
T2
X2.174Y-3.378
X2.174Y-4.0472
X2.174Y-4.7165
X2.174Y-5.3858
X2.174Y-6.0551
X2.174Y-6.7244
X2.8827Y-3.378
X2.8827Y-4.0472
X2.8827Y-4.7165
X2.8827Y-5.3858
X2.8827Y-6.0551
X2.8827Y-6.7244
X3.5913Y-3.378
X3.5913Y-4.0472
X3.5913Y-4.7165
X3.5913Y-5.3858
X3.5913Y-6.0551
X3.5913Y-6.7244
X4.3Y-3.378
X4.3Y-4.0472
X4.3Y-4.7165
X4.3Y-5.3858
X4.3Y-6.0551
X4.3Y-6.7244
X5.0087Y-3.378
X5.0087Y-4.0472
X5.0087Y-4.7165
X5.0087Y-5.3858
X5.0087Y-6.0551
X5.0087Y-6.7244
T3
X1.752Y-3.5433
X1.752Y-4.2126
X1.752Y-4.8819
X1.752Y-5.5512
X1.752Y-6.2205
X1.752Y-6.8898
X2.185Y-3.5433
X2.185Y-4.2126
X2.185Y-4.8819
X2.185Y-5.5512
X2.185Y-6.2205
X2.185Y-6.8898
X2.4606Y-3.5433
X2.4606Y-4.2126
X2.4606Y-4.8819
X2.4606Y-5.5512
X2.4606Y-6.2205
X2.4606Y-6.8898
X2.8937Y-3.5433
X2.8937Y-4.2126
X2.8937Y-4.8819
X2.8937Y-5.5512
X2.8937Y-6.2205
X2.8937Y-6.8898
X3.1693Y-3.5433
X3.1693Y-4.2126
X3.1693Y-4.8819
X3.1693Y-5.5512
X3.1693Y-6.2205
X3.1693Y-6.8898
X3.6024Y-3.5433
X3.6024Y-4.2126
X3.6024Y-4.8819
X3.6024Y-5.5512
X3.6024Y-6.2205
X3.6024Y-6.8898
X3.878Y-3.5433
X3.878Y-4.2126
X3.878Y-4.8819
X3.878Y-5.5512
X3.878Y-6.2205
X3.878Y-6.8898
X4.311Y-3.5433
X4.311Y-4.2126
X4.311Y-4.8819
X4.311Y-5.5512
X4.311Y-6.2205
X4.311Y-6.8898
X4.5866Y-3.5433
X4.5866Y-4.2126
X4.5866Y-4.8819
X4.5866Y-5.5512
X4.5866Y-6.2205
X4.5866Y-6.8898
X5.0197Y-3.5433
X5.0197Y-4.2126
X5.0197Y-4.8819
X5.0197Y-5.5512
X5.0197Y-6.2205
X5.0197Y-6.8898
T4
X1.9685Y-3.5433
X1.9685Y-4.2126
X1.9685Y-4.8819
X1.9685Y-5.5512
X1.9685Y-6.2205
X1.9685Y-6.8898
X2.6772Y-3.5433
X2.6772Y-4.2126
X2.6772Y-4.8819
X2.6772Y-5.5512
X2.6772Y-6.2205
X2.6772Y-6.8898
X3.3858Y-3.5433
X3.3858Y-4.2126
X3.3858Y-4.8819
X3.3858Y-5.5512
X3.3858Y-6.2205
X3.3858Y-6.8898
X4.0945Y-3.5433
X4.0945Y-4.2126
X4.0945Y-4.8819
X4.0945Y-5.5512
X4.0945Y-6.2205
X4.0945Y-6.8898
X4.8031Y-3.5433
X4.8031Y-4.2126
X4.8031Y-4.8819
X4.8031Y-5.5512
X4.8031Y-6.2205
X4.8031Y-6.8898
M30
