M48
; DRILL file {KiCad 8.0.7} date 2024-12-27T14:43:48-0500
; FORMAT={-:-/ absolute / inch / decimal}
; #@! TF.CreationDate,2024-12-27T14:43:48-05:00
; #@! TF.GenerationSoftware,Kicad,Pcbnew,8.0.7
; #@! TF.FileFunction,Plated,1,2,PTH
FMAT,2
INCH
; #@! TA.AperFunction,Plated,PTH,ComponentDrill
T1C0.0079
; #@! TA.AperFunction,Plated,PTH,ViaDrill
T2C0.0118
; #@! TA.AperFunction,Plated,PTH,ComponentDrill
T3C0.0236
; #@! TA.AperFunction,Plated,PTH,ComponentDrill
T4C0.0295
; #@! TA.AperFunction,Plated,PTH,ComponentDrill
T5C0.0394
; #@! TA.AperFunction,Plated,PTH,ComponentDrill
T6C0.0500
%
G90
G05
T1
X4.3001Y-2.3557
X4.3001Y-2.4021
X4.3465Y-2.3557
X4.3465Y-2.4021
T2
X1.6791Y-7.2508
X1.7559Y-3.1339
X1.7677Y-8.2638
X1.7717Y-7.623
X1.7717Y-7.6624
X1.7717Y-8.4892
X1.7717Y-8.5285
X1.7874Y-8.7441
X1.8071Y-2.2638
X1.8071Y-8.1102
X1.8465Y-7.2992
X1.8622Y-3.2205
X1.9291Y-3.0787
X1.9685Y-7.623
X1.9685Y-7.6624
X1.9685Y-8.4892
X1.9685Y-8.5285
X2.0669Y-8.1063
X2.0787Y-2.9134
X2.1102Y-1.374
X2.1417Y-8.2677
X2.1535Y-8.7441
X2.1654Y-7.623
X2.1654Y-7.6624
X2.1654Y-8.4892
X2.1654Y-8.5285
X2.2441Y-7.937
X2.2441Y-8.752
X2.2638Y-7.9094
X2.2677Y-8.7268
X2.2689Y-8.1713
X2.2795Y-4.5669
X2.2874Y-2.5669
X2.2874Y-2.6024
X2.2874Y-2.6339
X2.2874Y-2.6654
X2.2874Y-2.6969
X2.2874Y-2.7283
X2.2874Y-5.2362
X2.2913Y-7.937
X2.2992Y-4.8819
X2.2992Y-5.5512
X2.2992Y-7.2087
X2.3031Y-3.5236
X2.3031Y-4.1969
X2.3031Y-5.8898
X2.3031Y-6.2165
X2.3031Y-6.5669
X2.3031Y-6.9094
X2.3307Y-0.9055
X2.3386Y-3.122
X2.3622Y-3.2382
X2.3622Y-7.623
X2.3622Y-7.6624
X2.3622Y-8.4892
X2.3622Y-8.5285
X2.3701Y-8.2835
X2.3843Y-7.4286
X2.4082Y-8.2303
X2.4094Y-2.4961
X2.4213Y-7.8465
X2.436Y-7.4291
X2.436Y-8.7165
X2.4409Y-1.0236
X2.4809Y-3.1215
X2.5079Y-1.8228
X2.5787Y-8.1024
X2.5984Y-1.437
X2.6339Y-2.2677
X2.6417Y-1.3583
X2.6509Y-7.623
X2.6509Y-7.6624
X2.6509Y-8.4892
X2.6509Y-8.5285
X2.6929Y-1.2992
X2.7126Y-8.7402
X2.7165Y-3.937
X2.7323Y-8.2638
X2.8478Y-7.623
X2.8478Y-7.6624
X2.8478Y-8.4892
X2.8478Y-8.5285
X2.8937Y-2.0118
X2.9134Y-2.9173
X2.9843Y-3.5709
X2.9882Y-4.2402
X2.9882Y-4.5315
X2.9882Y-4.8701
X2.9882Y-5.2205
X2.9882Y-5.5591
X2.9882Y-5.8937
X2.9882Y-6.2205
X2.9882Y-6.5709
X2.9882Y-6.8819
X3.0276Y-7.2087
X3.0446Y-7.623
X3.0446Y-7.6624
X3.0446Y-8.4892
X3.0446Y-8.5285
X3.0472Y-3.2441
X3.0561Y-1.6742
X3.0748Y-1.8307
X3.0798Y-1.6506
X3.0858Y-1.9953
X3.122Y-1.5984
X3.122Y-8.7362
X3.1526Y-1.5778
X3.185Y-2.5276
X3.2008Y-8.2638
X3.2415Y-7.623
X3.2415Y-7.6624
X3.2415Y-8.4892
X3.2415Y-8.5285
X3.2441Y-1.8189
X3.2677Y-1.7953
X3.2717Y-7.3701
X3.2913Y-1.7716
X3.3071Y-8.1024
X3.3149Y-1.748
X3.3385Y-1.7244
X3.3465Y-1.5591
X3.378Y-1.9921
X3.4843Y-1.4213
X3.4961Y-8.1102
X3.5197Y-1.7402
X3.5197Y-8.7362
X3.5302Y-7.623
X3.5302Y-7.6624
X3.5302Y-8.4892
X3.5302Y-8.5285
X3.5315Y-8.2638
X3.5787Y-1.0433
X3.5827Y-3.9449
X3.5866Y-1.5433
X3.6181Y-1.2835
X3.6575Y-2.0197
X3.6732Y-4.5551
X3.6772Y-6.5433
X3.6811Y-5.2244
X3.689Y-3.5472
X3.689Y-4.8858
X3.689Y-5.8858
X3.689Y-6.8937
X3.6929Y-6.2205
X3.6969Y-5.5512
X3.705Y-1.5367
X3.705Y-1.7517
X3.727Y-7.623
X3.727Y-7.6624
X3.727Y-8.4892
X3.727Y-8.5285
X3.7465Y-2.3071
X3.7559Y-3.2382
X3.7835Y-7.2008
X3.785Y-1.7167
X3.785Y-1.7567
X3.7913Y-1.4055
X3.7953Y-2.4685
X3.7985Y-1.9413
X3.8228Y-1.9213
X3.8346Y-8.1142
X3.838Y-1.2565
X3.8443Y-1.8955
X3.8519Y-1.5735
X3.8583Y-2.063
X3.8661Y-8.2638
X3.8679Y-1.8719
X3.8701Y-1.2552
X3.8828Y-1.58
X3.8916Y-1.8483
X3.8937Y-8.748
X3.8996Y-1.2423
X3.9064Y-1.55
X3.9094Y-2.8661
X3.9152Y-1.8246
X3.9239Y-7.623
X3.9239Y-7.6624
X3.9239Y-8.4892
X3.9239Y-8.5285
X3.93Y-1.52
X3.9488Y-1.2874
X3.9488Y-1.3228
X3.9488Y-1.3543
X3.9488Y-1.3858
X3.9488Y-1.4173
X3.96Y-1.5
X3.965Y-1.247
X3.9921Y-1.5079
X3.9964Y-2.5748
X4.012Y-1.362
X4.018Y-1.707
X4.019Y-1.787
X4.0197Y-2.2598
X4.0197Y-7.8543
X4.0197Y-8.7126
X4.0206Y-7.8868
X4.0222Y-1.4208
X4.0354Y-8.7402
X4.0512Y-1.2294
X4.0551Y-1.0512
X4.0551Y-7.4016
X4.06Y-1.3567
X4.06Y-2.0346
X4.0906Y-2.0937
X4.092Y-7.373
X4.1024Y-1.8937
X4.103Y-1.791
X4.1201Y-2.0315
X4.1207Y-7.623
X4.1207Y-7.6624
X4.1207Y-8.4892
X4.1207Y-8.5285
X4.126Y-1.2717
X4.127Y-1.622
X4.1299Y-8.2992
X4.1383Y-1.4854
X4.1417Y-1.9291
X4.1417Y-2.128
X4.1535Y-2.378
X4.1535Y-2.874
X4.1565Y-7.4331
X4.1654Y-2.0315
X4.1693Y-2.5787
X4.185Y-1.623
X4.187Y-1.679
X4.205Y-1.3567
X4.205Y-2.0346
X4.2077Y-8.7165
X4.2087Y-2.5787
X4.2087Y-7.8543
X4.2125Y-2.1904
X4.242Y-2.278
X4.242Y-7.851
X4.247Y-1.437
X4.2559Y-1.5394
X4.2598Y-3.9449
X4.2638Y-1.1535
X4.2913Y-1.7847
X4.323Y-2.474
X4.323Y-2.588
X4.3475Y-1.6542
X4.3937Y-5.2205
X4.3937Y-5.5472
X4.3937Y-5.8937
X4.3937Y-6.2244
X4.3937Y-6.5591
X4.4016Y-3.5512
X4.4016Y-4.2165
X4.4016Y-4.5394
X4.4016Y-4.8701
X4.404Y-2.295
X4.408Y-2.21
X4.4094Y-6.8937
X4.4094Y-7.623
X4.4094Y-7.6624
X4.4094Y-8.4892
X4.4094Y-8.5285
X4.4284Y-1.8157
X4.4291Y-1.8504
X4.4291Y-1.8898
X4.4528Y-1.0276
X4.4646Y-3.2382
X4.4681Y-1.1571
X4.4803Y-8.1772
X4.4921Y-2.3307
X4.5Y-1.9252
X4.5079Y-1.6104
X4.5079Y-1.6496
X4.5079Y-1.6929
X4.5079Y-1.7283
X4.5079Y-2.2835
X4.5354Y-2.4094
X4.5433Y-1.9961
X4.5462Y-2.2097
X4.5629Y-2.0867
X4.5748Y-1.7795
X4.5787Y-8.752
X4.5996Y-2.1051
X4.6063Y-7.623
X4.6063Y-7.6624
X4.6063Y-8.4892
X4.6063Y-8.5285
X4.622Y-3.1772
X4.6732Y-1.9213
X4.68Y-2.383
X4.689Y-1.5236
X4.7008Y-2.1339
X4.7087Y-2.8701
X4.7283Y-0.9843
X4.7559Y-1.3504
X4.7835Y-1.5669
X4.8Y-1.2046
X4.8031Y-7.623
X4.8031Y-7.6624
X4.8031Y-8.4892
X4.8031Y-8.5285
X4.8268Y-1.8386
X4.8268Y-1.9567
X4.8268Y-2.0787
X4.8819Y-8.1811
X4.8976Y-1.315
X4.9Y-1.88
X4.9007Y-2.0907
X4.9646Y-3.9449
X4.9724Y-8.7638
X5.0Y-7.623
X5.0Y-7.6624
X5.0Y-8.4892
X5.0Y-8.5285
X5.1024Y-3.5472
X5.1063Y-6.5748
X5.1102Y-4.2126
X5.1102Y-4.5551
X5.1102Y-4.8898
X5.1102Y-5.2323
X5.1142Y-5.5512
X5.1142Y-5.8937
X5.1142Y-6.2244
X5.1142Y-6.8937
T4
X4.6713Y-2.5591
X4.75Y-2.5591
T5
X2.4409Y-0.9055
X2.5409Y-0.9055
X2.6409Y-0.9055
X2.7409Y-0.9055
X2.8409Y-0.9055
X2.9409Y-0.9055
X3.0409Y-0.9055
X3.1409Y-0.9055
X3.2409Y-0.9055
X3.3409Y-0.9055
X3.4409Y-0.9055
X3.51Y-2.96
X3.5409Y-0.9055
X3.61Y-2.96
X3.6409Y-0.9055
X3.71Y-2.96
X3.7409Y-0.9055
X3.81Y-2.96
X3.8409Y-0.9055
X3.91Y-2.96
X3.9409Y-0.9055
X4.0409Y-0.9055
X4.1409Y-0.9055
X4.2409Y-0.9055
X4.3409Y-0.9055
T6
X1.7717Y-3.6929
X1.7717Y-4.3622
X1.7717Y-5.0315
X1.7717Y-5.7008
X1.7717Y-6.3701
X1.7717Y-7.0394
X1.9685Y-3.7756
X1.9685Y-4.4449
X1.9685Y-5.1142
X1.9685Y-5.7835
X1.9685Y-6.4528
X1.9685Y-7.122
X2.4803Y-3.6929
X2.4803Y-4.3622
X2.4803Y-5.0315
X2.4803Y-5.7008
X2.4803Y-6.3701
X2.4803Y-7.0394
X2.6772Y-3.7756
X2.6772Y-4.4449
X2.6772Y-5.1142
X2.6772Y-5.7835
X2.6772Y-6.4528
X2.6772Y-7.122
X3.189Y-3.6929
X3.189Y-4.3622
X3.189Y-5.0315
X3.189Y-5.7008
X3.189Y-6.3701
X3.189Y-7.0394
X3.3858Y-3.7756
X3.3858Y-4.4449
X3.3858Y-5.1142
X3.3858Y-5.7835
X3.3858Y-6.4528
X3.3858Y-7.122
X3.8976Y-3.6929
X3.8976Y-4.3622
X3.8976Y-5.0315
X3.8976Y-5.7008
X3.8976Y-6.3701
X3.8976Y-7.0394
X4.0945Y-3.7756
X4.0945Y-4.4449
X4.0945Y-5.1142
X4.0945Y-5.7835
X4.0945Y-6.4528
X4.0945Y-7.122
X4.6063Y-3.6929
X4.6063Y-4.3622
X4.6063Y-5.0315
X4.6063Y-5.7008
X4.6063Y-6.3701
X4.6063Y-7.0394
X4.8031Y-3.7756
X4.8031Y-4.4449
X4.8031Y-5.1142
X4.8031Y-5.7835
X4.8031Y-6.4528
X4.8031Y-7.122
T3
G00X4.9483Y-1.8098
M15
G01X4.9917Y-1.8098
M16
G05
G00X4.9483Y-2.15
M15
G01X4.9917Y-2.15
M16
G05
G00X5.1188Y-1.8098
M15
G01X5.1503Y-1.8098
M16
G05
G00X5.1188Y-2.15
M15
G01X5.1503Y-2.15
M16
G05
M30
