%TF.GenerationSoftware,KiCad,Pcbnew,8.0.7*%
%TF.CreationDate,2024-12-27T14:43:48-05:00*%
%TF.ProjectId,rp2040-programmer-calculator,72703230-3430-42d7-9072-6f6772616d6d,rev?*%
%TF.SameCoordinates,Original*%
%TF.FileFunction,Soldermask,Bot*%
%TF.FilePolarity,Negative*%
%FSLAX46Y46*%
G04 Gerber Fmt 4.6, Leading zero omitted, Abs format (unit mm)*
G04 Created by KiCad (PCBNEW 8.0.7) date 2024-12-27 14:43:48*
%MOMM*%
%LPD*%
G01*
G04 APERTURE LIST*
G04 Aperture macros list*
%AMRoundRect*
0 Rectangle with rounded corners*
0 $1 Rounding radius*
0 $2 $3 $4 $5 $6 $7 $8 $9 X,Y pos of 4 corners*
0 Add a 4 corners polygon primitive as box body*
4,1,4,$2,$3,$4,$5,$6,$7,$8,$9,$2,$3,0*
0 Add four circle primitives for the rounded corners*
1,1,$1+$1,$2,$3*
1,1,$1+$1,$4,$5*
1,1,$1+$1,$6,$7*
1,1,$1+$1,$8,$9*
0 Add four rect primitives between the rounded corners*
20,1,$1+$1,$2,$3,$4,$5,0*
20,1,$1+$1,$4,$5,$6,$7,0*
20,1,$1+$1,$6,$7,$8,$9,0*
20,1,$1+$1,$8,$9,$2,$3,0*%
G04 Aperture macros list end*
%ADD10C,1.777800*%
%ADD11C,3.505000*%
%ADD12C,1.066600*%
%ADD13C,2.108000*%
%ADD14RoundRect,0.038000X0.850000X-0.850000X0.850000X0.850000X-0.850000X0.850000X-0.850000X-0.850000X0*%
%ADD15O,1.776000X1.776000*%
%ADD16C,0.726000*%
%ADD17O,2.176000X1.076000*%
%ADD18O,1.876000X1.076000*%
%ADD19RoundRect,0.038000X0.500000X-0.625000X0.500000X0.625000X-0.500000X0.625000X-0.500000X-0.625000X0*%
%ADD20RoundRect,0.265833X0.372167X0.647167X-0.372167X0.647167X-0.372167X-0.647167X0.372167X-0.647167X0*%
%ADD21O,1.276000X1.826000*%
%ADD22RoundRect,0.038000X0.225000X-0.875000X0.225000X0.875000X-0.225000X0.875000X-0.225000X-0.875000X0*%
%ADD23RoundRect,0.038000X-0.850000X0.850000X-0.850000X-0.850000X0.850000X-0.850000X0.850000X0.850000X0*%
G04 APERTURE END LIST*
D10*
%TO.C,SW53*%
X44500000Y-158000000D03*
D11*
X50000000Y-158000000D03*
D12*
X55220000Y-153800000D03*
D10*
X55500000Y-158000000D03*
D13*
X50000000Y-163900000D03*
X45000000Y-161800000D03*
%TD*%
D10*
%TO.C,SW55*%
X80500000Y-158000000D03*
D11*
X86000000Y-158000000D03*
D12*
X91220000Y-153800000D03*
D10*
X91500000Y-158000000D03*
D13*
X86000000Y-163900000D03*
X81000000Y-161800000D03*
%TD*%
D10*
%TO.C,SW59*%
X62500000Y-175000000D03*
D11*
X68000000Y-175000000D03*
D12*
X73220000Y-170800000D03*
D10*
X73500000Y-175000000D03*
D13*
X68000000Y-180900000D03*
X63000000Y-178800000D03*
%TD*%
D10*
%TO.C,SW46*%
X98500000Y-124000000D03*
D11*
X104000000Y-124000000D03*
D12*
X109220000Y-119800000D03*
D10*
X109500000Y-124000000D03*
D13*
X104000000Y-129900000D03*
X99000000Y-127800000D03*
%TD*%
D10*
%TO.C,SW40*%
X80500000Y-107000000D03*
D11*
X86000000Y-107000000D03*
D12*
X91220000Y-102800000D03*
D10*
X91500000Y-107000000D03*
D13*
X86000000Y-112900000D03*
X81000000Y-110800000D03*
%TD*%
D10*
%TO.C,SW48*%
X44500000Y-141000000D03*
D11*
X50000000Y-141000000D03*
D12*
X55220000Y-136800000D03*
D10*
X55500000Y-141000000D03*
D13*
X50000000Y-146900000D03*
X45000000Y-144800000D03*
%TD*%
D10*
%TO.C,SW49*%
X62500000Y-141000000D03*
D11*
X68000000Y-141000000D03*
D12*
X73220000Y-136800000D03*
D10*
X73500000Y-141000000D03*
D13*
X68000000Y-146900000D03*
X63000000Y-144800000D03*
%TD*%
D10*
%TO.C,SW42*%
X116500000Y-107000000D03*
D11*
X122000000Y-107000000D03*
D12*
X127220000Y-102800000D03*
D10*
X127500000Y-107000000D03*
D13*
X122000000Y-112900000D03*
X117000000Y-110800000D03*
%TD*%
D10*
%TO.C,SW43*%
X44500000Y-124000000D03*
D11*
X50000000Y-124000000D03*
D12*
X55220000Y-119800000D03*
D10*
X55500000Y-124000000D03*
D13*
X50000000Y-129900000D03*
X45000000Y-127800000D03*
%TD*%
D10*
%TO.C,SW58*%
X44500000Y-175000000D03*
D11*
X50000000Y-175000000D03*
D12*
X55220000Y-170800000D03*
D10*
X55500000Y-175000000D03*
D13*
X50000000Y-180900000D03*
X45000000Y-178800000D03*
%TD*%
D10*
%TO.C,SW54*%
X62500000Y-158000000D03*
D11*
X68000000Y-158000000D03*
D12*
X73220000Y-153800000D03*
D10*
X73500000Y-158000000D03*
D13*
X68000000Y-163900000D03*
X63000000Y-161800000D03*
%TD*%
D10*
%TO.C,SW47*%
X116500000Y-124000000D03*
D11*
X122000000Y-124000000D03*
D12*
X127220000Y-119800000D03*
D10*
X127500000Y-124000000D03*
D13*
X122000000Y-129900000D03*
X117000000Y-127800000D03*
%TD*%
D10*
%TO.C,SW56*%
X98500000Y-158000000D03*
D11*
X104000000Y-158000000D03*
D12*
X109220000Y-153800000D03*
D10*
X109500000Y-158000000D03*
D13*
X104000000Y-163900000D03*
X99000000Y-161800000D03*
%TD*%
D10*
%TO.C,SW38*%
X44500000Y-107000000D03*
D11*
X50000000Y-107000000D03*
D12*
X55220000Y-102800000D03*
D10*
X55500000Y-107000000D03*
D13*
X50000000Y-112900000D03*
X45000000Y-110800000D03*
%TD*%
D10*
%TO.C,SW62*%
X116500000Y-175000000D03*
D11*
X122000000Y-175000000D03*
D12*
X127220000Y-170800000D03*
D10*
X127500000Y-175000000D03*
D13*
X122000000Y-180900000D03*
X117000000Y-178800000D03*
%TD*%
D10*
%TO.C,SW44*%
X62500000Y-124000000D03*
D11*
X68000000Y-124000000D03*
D12*
X73220000Y-119800000D03*
D10*
X73500000Y-124000000D03*
D13*
X68000000Y-129900000D03*
X63000000Y-127800000D03*
%TD*%
D10*
%TO.C,SW33*%
X44500000Y-90000000D03*
D11*
X50000000Y-90000000D03*
D12*
X55220000Y-85800000D03*
D10*
X55500000Y-90000000D03*
D13*
X50000000Y-95900000D03*
X45000000Y-93800000D03*
%TD*%
D10*
%TO.C,SW34*%
X62500000Y-90000000D03*
D11*
X68000000Y-90000000D03*
D12*
X73220000Y-85800000D03*
D10*
X73500000Y-90000000D03*
D13*
X68000000Y-95900000D03*
X63000000Y-93800000D03*
%TD*%
D10*
%TO.C,SW35*%
X80500000Y-90000000D03*
D11*
X86000000Y-90000000D03*
D12*
X91220000Y-85800000D03*
D10*
X91500000Y-90000000D03*
D13*
X86000000Y-95900000D03*
X81000000Y-93800000D03*
%TD*%
D14*
%TO.C,U7*%
X62000000Y-23000000D03*
D15*
X64540000Y-23000000D03*
X67080000Y-23000000D03*
X69620000Y-23000000D03*
X72160000Y-23000000D03*
X74700000Y-23000000D03*
X77240000Y-23000000D03*
X79780000Y-23000000D03*
X82320000Y-23000000D03*
X84860000Y-23000000D03*
X87400000Y-23000000D03*
X89940000Y-23000000D03*
X92480000Y-23000000D03*
X95020000Y-23000000D03*
X97560000Y-23000000D03*
X100100000Y-23000000D03*
X102640000Y-23000000D03*
X105180000Y-23000000D03*
X107720000Y-23000000D03*
X110260000Y-23000000D03*
%TD*%
D10*
%TO.C,SW39*%
X62500000Y-107000000D03*
D11*
X68000000Y-107000000D03*
D12*
X73220000Y-102800000D03*
D10*
X73500000Y-107000000D03*
D13*
X68000000Y-112900000D03*
X63000000Y-110800000D03*
%TD*%
D10*
%TO.C,SW61*%
X98500000Y-175000000D03*
D11*
X104000000Y-175000000D03*
D12*
X109220000Y-170800000D03*
D10*
X109500000Y-175000000D03*
D13*
X104000000Y-180900000D03*
X99000000Y-178800000D03*
%TD*%
D10*
%TO.C,SW60*%
X80500000Y-175000000D03*
D11*
X86000000Y-175000000D03*
D12*
X91220000Y-170800000D03*
D10*
X91500000Y-175000000D03*
D13*
X86000000Y-180900000D03*
X81000000Y-178800000D03*
%TD*%
D10*
%TO.C,SW57*%
X116500000Y-158000000D03*
D11*
X122000000Y-158000000D03*
D12*
X127220000Y-153800000D03*
D10*
X127500000Y-158000000D03*
D13*
X122000000Y-163900000D03*
X117000000Y-161800000D03*
%TD*%
D10*
%TO.C,SW41*%
X98500000Y-107000000D03*
D11*
X104000000Y-107000000D03*
D12*
X109220000Y-102800000D03*
D10*
X109500000Y-107000000D03*
D13*
X104000000Y-112900000D03*
X99000000Y-110800000D03*
%TD*%
D10*
%TO.C,SW51*%
X98500000Y-141000000D03*
D11*
X104000000Y-141000000D03*
D12*
X109220000Y-136800000D03*
D10*
X109500000Y-141000000D03*
D13*
X104000000Y-146900000D03*
X99000000Y-144800000D03*
%TD*%
D10*
%TO.C,SW36*%
X98500000Y-90000000D03*
D11*
X104000000Y-90000000D03*
D12*
X109220000Y-85800000D03*
D10*
X109500000Y-90000000D03*
D13*
X104000000Y-95900000D03*
X99000000Y-93800000D03*
%TD*%
D10*
%TO.C,SW45*%
X80500000Y-124000000D03*
D11*
X86000000Y-124000000D03*
D12*
X91220000Y-119800000D03*
D10*
X91500000Y-124000000D03*
D13*
X86000000Y-129900000D03*
X81000000Y-127800000D03*
%TD*%
D16*
%TO.C,J1*%
X126738000Y-53180000D03*
X126738000Y-47400000D03*
D17*
X126238000Y-54610000D03*
D18*
X130418000Y-54610000D03*
D17*
X126238000Y-45970000D03*
D18*
X130418000Y-45970000D03*
%TD*%
D10*
%TO.C,SW37*%
X116500000Y-90000000D03*
D11*
X122000000Y-90000000D03*
D12*
X127220000Y-85800000D03*
D10*
X127500000Y-90000000D03*
D13*
X122000000Y-95900000D03*
X117000000Y-93800000D03*
%TD*%
D10*
%TO.C,SW50*%
X80500000Y-141000000D03*
D11*
X86000000Y-141000000D03*
D12*
X91220000Y-136800000D03*
D10*
X91500000Y-141000000D03*
D13*
X86000000Y-146900000D03*
X81000000Y-144800000D03*
%TD*%
D10*
%TO.C,SW52*%
X116500000Y-141000000D03*
D11*
X122000000Y-141000000D03*
D12*
X127220000Y-136800000D03*
D10*
X127500000Y-141000000D03*
D13*
X122000000Y-146900000D03*
X117000000Y-144800000D03*
%TD*%
D19*
%TO.C,SW63*%
X120649000Y-38471000D03*
X120649000Y-30721000D03*
%TD*%
D20*
%TO.C,BT1*%
X118650000Y-65000000D03*
D21*
X120650000Y-65000000D03*
%TD*%
D22*
%TO.C,U2*%
X112725000Y-219725000D03*
X112075000Y-219725000D03*
X111425000Y-219725000D03*
X110775000Y-219725000D03*
X110125000Y-219725000D03*
X109475000Y-219725000D03*
X108825000Y-219725000D03*
X108175000Y-219725000D03*
X107525000Y-219725000D03*
X106875000Y-219725000D03*
X106225000Y-219725000D03*
X105575000Y-219725000D03*
X104925000Y-219725000D03*
X104275000Y-219725000D03*
X104275000Y-212525000D03*
X104925000Y-212525000D03*
X105575000Y-212525000D03*
X106225000Y-212525000D03*
X106875000Y-212525000D03*
X107525000Y-212525000D03*
X108175000Y-212525000D03*
X108825000Y-212525000D03*
X109475000Y-212525000D03*
X110125000Y-212525000D03*
X110775000Y-212525000D03*
X111425000Y-212525000D03*
X112075000Y-212525000D03*
X112725000Y-212525000D03*
%TD*%
%TO.C,U3*%
X67725000Y-219725000D03*
X67075000Y-219725000D03*
X66425000Y-219725000D03*
X65775000Y-219725000D03*
X65125000Y-219725000D03*
X64475000Y-219725000D03*
X63825000Y-219725000D03*
X63175000Y-219725000D03*
X62525000Y-219725000D03*
X61875000Y-219725000D03*
X61225000Y-219725000D03*
X60575000Y-219725000D03*
X59925000Y-219725000D03*
X59275000Y-219725000D03*
X59275000Y-212525000D03*
X59925000Y-212525000D03*
X60575000Y-212525000D03*
X61225000Y-212525000D03*
X61875000Y-212525000D03*
X62525000Y-212525000D03*
X63175000Y-212525000D03*
X63825000Y-212525000D03*
X64475000Y-212525000D03*
X65125000Y-212525000D03*
X65775000Y-212525000D03*
X66425000Y-212525000D03*
X67075000Y-212525000D03*
X67725000Y-212525000D03*
%TD*%
D23*
%TO.C,J2*%
X89154000Y-75184000D03*
D15*
X91694000Y-75184000D03*
X94234000Y-75184000D03*
X96774000Y-75184000D03*
X99314000Y-75184000D03*
%TD*%
D22*
%TO.C,U5*%
X67725000Y-197725000D03*
X67075000Y-197725000D03*
X66425000Y-197725000D03*
X65775000Y-197725000D03*
X65125000Y-197725000D03*
X64475000Y-197725000D03*
X63825000Y-197725000D03*
X63175000Y-197725000D03*
X62525000Y-197725000D03*
X61875000Y-197725000D03*
X61225000Y-197725000D03*
X60575000Y-197725000D03*
X59925000Y-197725000D03*
X59275000Y-197725000D03*
X59275000Y-190525000D03*
X59925000Y-190525000D03*
X60575000Y-190525000D03*
X61225000Y-190525000D03*
X61875000Y-190525000D03*
X62525000Y-190525000D03*
X63175000Y-190525000D03*
X63825000Y-190525000D03*
X64475000Y-190525000D03*
X65125000Y-190525000D03*
X65775000Y-190525000D03*
X66425000Y-190525000D03*
X67075000Y-190525000D03*
X67725000Y-190525000D03*
%TD*%
%TO.C,U4*%
X112725000Y-197725000D03*
X112075000Y-197725000D03*
X111425000Y-197725000D03*
X110775000Y-197725000D03*
X110125000Y-197725000D03*
X109475000Y-197725000D03*
X108825000Y-197725000D03*
X108175000Y-197725000D03*
X107525000Y-197725000D03*
X106875000Y-197725000D03*
X106225000Y-197725000D03*
X105575000Y-197725000D03*
X104925000Y-197725000D03*
X104275000Y-197725000D03*
X104275000Y-190525000D03*
X104925000Y-190525000D03*
X105575000Y-190525000D03*
X106225000Y-190525000D03*
X106875000Y-190525000D03*
X107525000Y-190525000D03*
X108175000Y-190525000D03*
X108825000Y-190525000D03*
X109475000Y-190525000D03*
X110125000Y-190525000D03*
X110775000Y-190525000D03*
X111425000Y-190525000D03*
X112075000Y-190525000D03*
X112725000Y-190525000D03*
%TD*%
M02*
