M48
; DRILL file {KiCad 8.0.7} date 2025-01-05T21:02:15-0500
; FORMAT={-:-/ absolute / inch / decimal}
; #@! TF.CreationDate,2025-01-05T21:02:15-05:00
; #@! TF.GenerationSoftware,Kicad,Pcbnew,8.0.7
; #@! TF.FileFunction,Plated,1,2,PTH
FMAT,2
INCH
; #@! TA.AperFunction,Plated,PTH,ViaDrill
T1C0.0118
; #@! TA.AperFunction,Plated,PTH,ComponentDrill
T2C0.0236
; #@! TA.AperFunction,Plated,PTH,ComponentDrill
T3C0.0295
; #@! TA.AperFunction,Plated,PTH,ComponentDrill
T4C0.0394
; #@! TA.AperFunction,Plated,PTH,ComponentDrill
T5C0.0472
%
G90
G05
T1
X0.9095Y-1.107
X0.9646Y-1.3071
X0.9655Y-1.1073
X0.9843Y-6.5945
X1.0148Y-7.122
X1.0148Y-8.1063
X1.0236Y-6.5748
X1.0433Y-7.7362
X1.063Y-6.6142
X1.063Y-6.7717
X1.1024Y-6.5748
X1.1142Y-1.3031
X1.122Y-1.1102
X1.122Y-7.815
X1.1339Y-1.2087
X1.1417Y-6.811
X1.1575Y-1.3445
X1.1693Y-1.1378
X1.1732Y-1.2087
X1.2155Y-1.778
X1.2218Y-2.1969
X1.2244Y-0.9606
X1.2244Y-1.0276
X1.2313Y-7.122
X1.2313Y-8.1063
X1.2323Y-1.5
X1.2972Y-1.4094
X1.3161Y-1.1161
X1.3209Y-0.9016
X1.3701Y-1.2559
X1.3947Y-0.9409
X1.3986Y-1.0659
X1.3996Y-1.0295
X1.4016Y-1.5906
X1.4329Y-2.0748
X1.437Y-1.6811
X1.4449Y-1.4724
X1.4449Y-1.6063
X1.4449Y-1.6457
X1.4478Y-7.122
X1.4478Y-8.1063
X1.4587Y-1.3406
X1.4626Y-0.8917
X1.4841Y-1.4094
X1.4841Y-1.4488
X1.4841Y-1.4882
X1.4872Y-1.1013
X1.4882Y-1.0669
X1.4961Y-1.3406
X1.5138Y-7.4941
X1.5138Y-8.4783
X1.5354Y-1.6457
X1.5551Y-1.2559
X1.5746Y-1.5039
X1.5945Y-6.8701
X1.6142Y-1.874
X1.6142Y-7.8543
X1.6339Y-0.8563
X1.6339Y-1.3465
X1.6644Y-7.123
X1.6644Y-8.1073
X1.7008Y-1.5394
X1.7028Y-6.8583
X1.7028Y-7.8425
X1.7067Y-1.1437
X1.7087Y-2.3701
X1.7283Y-1.2047
X1.7283Y-1.2362
X1.7362Y-1.0886
X1.7414Y-1.5433
X1.7414Y-1.5945
X1.7414Y-1.6457
X1.7421Y-6.8583
X1.7421Y-7.8425
X1.7677Y-2.3701
X1.7815Y-6.8583
X1.7815Y-7.8425
X1.7926Y-1.5433
X1.7926Y-1.5945
X1.7926Y-1.6457
X1.8209Y-6.8583
X1.8209Y-7.8425
X1.8228Y-1.2362
X1.8323Y-1.2921
X1.8346Y-1.9134
X1.8438Y-1.5433
X1.8438Y-1.5945
X1.8438Y-1.6457
X1.8513Y-1.2057
X1.8602Y-6.8583
X1.8602Y-7.8425
X1.8753Y-1.5807
X1.8996Y-6.8583
X1.8996Y-7.8425
X1.9252Y-1.0512
X1.9291Y-6.6929
X1.9291Y-7.6772
X1.939Y-6.8583
X1.939Y-7.8425
X1.9606Y-1.0512
X1.9783Y-6.8583
X1.9783Y-7.8425
X1.9957Y-1.6421
X2.0078Y-1.563
X2.0079Y-6.7323
X2.0079Y-7.0866
X2.0079Y-7.7165
X2.0965Y-1.6929
X2.1012Y-1.5354
X2.1012Y-1.5748
X2.1063Y-7.0
X2.1063Y-7.9843
X2.126Y-1.752
X2.1327Y-1.5512
X2.1545Y-7.122
X2.1545Y-8.1063
X2.1878Y-1.752
X2.2047Y-1.5551
X2.2441Y-1.752
X2.2547Y-1.5551
X2.3031Y-1.5551
X2.3031Y-1.6043
X2.3031Y-1.6535
X2.3031Y-1.7028
X2.3031Y-1.752
X2.3051Y-7.4941
X2.3051Y-8.4783
X2.3711Y-7.122
X2.3711Y-8.1063
X2.5876Y-7.122
X2.5876Y-8.1063
X2.8041Y-7.122
X2.8041Y-8.1063
X2.9045Y-7.122
X2.9045Y-8.1063
X3.1211Y-7.122
X3.1211Y-8.1063
X3.1496Y-1.1417
X3.1496Y-1.4173
X3.3376Y-7.122
X3.3376Y-8.1063
X3.4035Y-7.4941
X3.4035Y-8.4783
X3.4252Y-7.8543
X3.5039Y-6.8701
X3.5541Y-7.123
X3.5541Y-8.1073
X3.5925Y-6.8583
X3.5925Y-7.8425
X3.6319Y-6.8583
X3.6319Y-7.8425
X3.6713Y-6.8583
X3.6713Y-7.8425
X3.7106Y-6.8583
X3.7106Y-7.8425
X3.75Y-6.8583
X3.75Y-7.8425
X3.7894Y-6.8583
X3.7894Y-7.8425
X3.7992Y-7.6772
X3.8287Y-6.8583
X3.8287Y-7.8425
X3.8681Y-6.8583
X3.8681Y-7.8425
X3.8819Y-7.7165
X3.8976Y-7.0866
X3.9075Y-6.7323
X3.9469Y-6.8583
X3.9961Y-7.0
X3.9961Y-7.9843
X4.0443Y-7.122
X4.0443Y-8.1063
X4.1949Y-7.4941
X4.1949Y-8.4783
X4.2608Y-7.122
X4.2608Y-8.1063
X4.4774Y-7.122
X4.4774Y-8.1063
X4.5276Y-1.4764
X4.6939Y-7.122
X4.6939Y-8.1063
T3
X1.4803Y-0.9941
X1.5591Y-0.9941
T4
X2.7165Y-1.4665
X2.7165Y-1.5665
X2.7165Y-1.6665
X2.7165Y-1.7665
X2.7165Y-1.8665
X4.6835Y-1.1756
X4.6835Y-1.2756
X4.6835Y-1.3756
X4.6835Y-1.4756
X4.6835Y-1.5756
X4.6835Y-1.6756
X4.6835Y-1.7756
X4.6835Y-1.8756
X4.7835Y-1.1756
X4.7835Y-1.2756
X4.7835Y-1.3756
X4.7835Y-1.4756
X4.7835Y-1.5756
X4.7835Y-1.6756
X4.7835Y-1.7756
X4.7835Y-1.8756
T5
X1.1122Y-7.3307
X1.1122Y-7.5827
X1.1122Y-8.315
X1.1122Y-8.5669
X1.1909Y-2.6476
X1.1909Y-2.8445
X1.1909Y-3.3563
X1.1909Y-3.5531
X1.1909Y-4.065
X1.1909Y-4.2618
X1.1909Y-4.7736
X1.1909Y-4.9705
X1.1909Y-5.4823
X1.1909Y-5.6791
X1.1909Y-6.1909
X1.1909Y-6.3878
X1.3287Y-7.3307
X1.3287Y-7.5827
X1.3287Y-8.315
X1.3287Y-8.5669
X1.5453Y-7.3307
X1.5453Y-7.5827
X1.5453Y-8.315
X1.5453Y-8.5669
X1.6831Y-2.6476
X1.6831Y-2.8445
X1.6831Y-3.3563
X1.6831Y-3.5531
X1.6831Y-4.065
X1.6831Y-4.2618
X1.6831Y-4.7736
X1.6831Y-4.9705
X1.6831Y-5.4823
X1.6831Y-5.6791
X1.6831Y-6.1909
X1.6831Y-6.3878
X1.7618Y-7.3307
X1.7618Y-7.5827
X1.7618Y-8.315
X1.7618Y-8.5669
X1.8996Y-2.6476
X1.8996Y-2.8445
X1.8996Y-3.3563
X1.8996Y-3.5531
X1.8996Y-4.065
X1.8996Y-4.2618
X1.8996Y-4.7736
X1.8996Y-4.9705
X1.8996Y-5.4823
X1.8996Y-5.6791
X1.8996Y-6.1909
X1.8996Y-6.3878
X2.0571Y-7.3307
X2.0571Y-7.5827
X2.0571Y-8.315
X2.0571Y-8.5669
X2.2736Y-7.3307
X2.2736Y-7.5827
X2.2736Y-8.315
X2.2736Y-8.5669
X2.3917Y-2.6476
X2.3917Y-2.8445
X2.3917Y-3.3563
X2.3917Y-3.5531
X2.3917Y-4.065
X2.3917Y-4.2618
X2.3917Y-4.7736
X2.3917Y-4.9705
X2.3917Y-5.4823
X2.3917Y-5.6791
X2.3917Y-6.1909
X2.3917Y-6.3878
X2.4902Y-7.3307
X2.4902Y-7.5827
X2.4902Y-8.315
X2.4902Y-8.5669
X2.6083Y-2.6476
X2.6083Y-2.8445
X2.6083Y-3.3563
X2.6083Y-3.5531
X2.6083Y-4.065
X2.6083Y-4.2618
X2.6083Y-4.7736
X2.6083Y-4.9705
X2.6083Y-5.4823
X2.6083Y-5.6791
X2.6083Y-6.1909
X2.6083Y-6.3878
X2.7067Y-7.3307
X2.7067Y-7.5827
X2.7067Y-8.315
X2.7067Y-8.5669
X3.002Y-7.3307
X3.002Y-7.5827
X3.002Y-8.315
X3.002Y-8.5669
X3.1004Y-2.6476
X3.1004Y-2.8445
X3.1004Y-3.3563
X3.1004Y-3.5531
X3.1004Y-4.065
X3.1004Y-4.2618
X3.1004Y-4.7736
X3.1004Y-4.9705
X3.1004Y-5.4823
X3.1004Y-5.6791
X3.1004Y-6.1909
X3.1004Y-6.3878
X3.2185Y-7.3307
X3.2185Y-7.5827
X3.2185Y-8.315
X3.2185Y-8.5669
X3.3169Y-2.6476
X3.3169Y-2.8445
X3.3169Y-3.3563
X3.3169Y-3.5531
X3.3169Y-4.065
X3.3169Y-4.2618
X3.3169Y-4.7736
X3.3169Y-4.9705
X3.3169Y-5.4823
X3.3169Y-5.6791
X3.3169Y-6.1909
X3.3169Y-6.3878
X3.435Y-7.3307
X3.435Y-7.5827
X3.435Y-8.315
X3.435Y-8.5669
X3.6516Y-7.3307
X3.6516Y-7.5827
X3.6516Y-8.315
X3.6516Y-8.5669
X3.8091Y-2.6476
X3.8091Y-2.8445
X3.8091Y-3.3563
X3.8091Y-3.5531
X3.8091Y-4.065
X3.8091Y-4.2618
X3.8091Y-4.7736
X3.8091Y-4.9705
X3.8091Y-5.4823
X3.8091Y-5.6791
X3.8091Y-6.1909
X3.8091Y-6.3878
X3.9469Y-7.3307
X3.9469Y-7.5827
X3.9469Y-8.315
X3.9469Y-8.5669
X4.0256Y-2.6476
X4.0256Y-2.8445
X4.0256Y-3.3563
X4.0256Y-3.5531
X4.0256Y-4.065
X4.0256Y-4.2618
X4.0256Y-4.7736
X4.0256Y-4.9705
X4.0256Y-5.4823
X4.0256Y-5.6791
X4.0256Y-6.1909
X4.0256Y-6.3878
X4.1634Y-7.3307
X4.1634Y-7.5827
X4.1634Y-8.315
X4.1634Y-8.5669
X4.3799Y-7.3307
X4.3799Y-7.5827
X4.3799Y-8.315
X4.3799Y-8.5669
X4.5177Y-2.6476
X4.5177Y-2.8445
X4.5177Y-3.3563
X4.5177Y-3.5531
X4.5177Y-4.065
X4.5177Y-4.2618
X4.5177Y-4.7736
X4.5177Y-4.9705
X4.5177Y-5.4823
X4.5177Y-5.6791
X4.5177Y-6.1909
X4.5177Y-6.3878
X4.5965Y-7.3307
X4.5965Y-7.5827
X4.5965Y-8.315
X4.5965Y-8.5669
T2
G00X0.9055Y-1.3575
M15
G01X0.874Y-1.3575
M16
G05
G00X0.9055Y-1.6976
M15
G01X0.874Y-1.6976
M16
G05
G00X1.076Y-1.3575
M15
G01X1.0327Y-1.3575
M16
G05
G00X1.076Y-1.6976
M15
G01X1.0327Y-1.6976
M16
G05
M30
