%TF.GenerationSoftware,KiCad,Pcbnew,8.0.7*%
%TF.CreationDate,2024-12-27T14:43:48-05:00*%
%TF.ProjectId,rp2040-programmer-calculator,72703230-3430-42d7-9072-6f6772616d6d,rev?*%
%TF.SameCoordinates,Original*%
%TF.FileFunction,Soldermask,Top*%
%TF.FilePolarity,Negative*%
%FSLAX46Y46*%
G04 Gerber Fmt 4.6, Leading zero omitted, Abs format (unit mm)*
G04 Created by KiCad (PCBNEW 8.0.7) date 2024-12-27 14:43:48*
%MOMM*%
%LPD*%
G01*
G04 APERTURE LIST*
G04 Aperture macros list*
%AMRoundRect*
0 Rectangle with rounded corners*
0 $1 Rounding radius*
0 $2 $3 $4 $5 $6 $7 $8 $9 X,Y pos of 4 corners*
0 Add a 4 corners polygon primitive as box body*
4,1,4,$2,$3,$4,$5,$6,$7,$8,$9,$2,$3,0*
0 Add four circle primitives for the rounded corners*
1,1,$1+$1,$2,$3*
1,1,$1+$1,$4,$5*
1,1,$1+$1,$6,$7*
1,1,$1+$1,$8,$9*
0 Add four rect primitives between the rounded corners*
20,1,$1+$1,$2,$3,$4,$5,0*
20,1,$1+$1,$4,$5,$6,$7,0*
20,1,$1+$1,$6,$7,$8,$9,0*
20,1,$1+$1,$8,$9,$2,$3,0*%
G04 Aperture macros list end*
%ADD10RoundRect,0.262750X-0.475250X0.262750X-0.475250X-0.262750X0.475250X-0.262750X0.475250X0.262750X0*%
%ADD11RoundRect,0.219000X-0.294000X0.219000X-0.294000X-0.219000X0.294000X-0.219000X0.294000X0.219000X0*%
%ADD12C,1.777800*%
%ADD13C,3.505000*%
%ADD14C,1.066600*%
%ADD15C,2.108000*%
%ADD16RoundRect,0.038000X-0.500000X0.625000X-0.500000X-0.625000X0.500000X-0.625000X0.500000X0.625000X0*%
%ADD17RoundRect,0.159000X-0.189000X0.159000X-0.189000X-0.159000X0.189000X-0.159000X0.189000X0.159000X0*%
%ADD18RoundRect,0.154000X0.204000X-0.154000X0.204000X0.154000X-0.204000X0.154000X-0.204000X-0.154000X0*%
%ADD19RoundRect,0.169000X0.169000X-0.606500X0.169000X0.606500X-0.169000X0.606500X-0.169000X-0.606500X0*%
%ADD20RoundRect,0.131500X0.206500X0.131500X-0.206500X0.131500X-0.206500X-0.131500X0.206500X-0.131500X0*%
%ADD21RoundRect,0.262750X0.262750X0.475250X-0.262750X0.475250X-0.262750X-0.475250X0.262750X-0.475250X0*%
%ADD22RoundRect,0.159000X0.189000X-0.159000X0.189000X0.159000X-0.189000X0.159000X-0.189000X-0.159000X0*%
%ADD23RoundRect,0.159000X-0.159000X-0.189000X0.159000X-0.189000X0.159000X0.189000X-0.159000X0.189000X0*%
%ADD24RoundRect,0.237750X0.275250X-0.237750X0.275250X0.237750X-0.275250X0.237750X-0.275250X-0.237750X0*%
%ADD25RoundRect,0.154000X0.154000X0.204000X-0.154000X0.204000X-0.154000X-0.204000X0.154000X-0.204000X0*%
%ADD26RoundRect,0.038000X0.550000X-0.325000X0.550000X0.325000X-0.550000X0.325000X-0.550000X-0.325000X0*%
%ADD27RoundRect,0.169000X0.531500X0.169000X-0.531500X0.169000X-0.531500X-0.169000X0.531500X-0.169000X0*%
%ADD28RoundRect,0.038000X-0.325000X-0.825000X0.325000X-0.825000X0.325000X0.825000X-0.325000X0.825000X0*%
%ADD29RoundRect,0.038000X-0.600000X0.700000X-0.600000X-0.700000X0.600000X-0.700000X0.600000X0.700000X0*%
%ADD30RoundRect,0.154000X-0.204000X0.154000X-0.204000X-0.154000X0.204000X-0.154000X0.204000X0.154000X0*%
%ADD31RoundRect,0.069000X-0.069000X0.406500X-0.069000X-0.406500X0.069000X-0.406500X0.069000X0.406500X0*%
%ADD32RoundRect,0.069000X-0.406500X0.069000X-0.406500X-0.069000X0.406500X-0.069000X0.406500X0.069000X0*%
%ADD33RoundRect,0.038000X-1.600000X1.600000X-1.600000X-1.600000X1.600000X-1.600000X1.600000X1.600000X0*%
%ADD34RoundRect,0.081500X0.369000X0.081500X-0.369000X0.081500X-0.369000X-0.081500X0.369000X-0.081500X0*%
%ADD35RoundRect,0.081500X0.081500X0.369000X-0.081500X0.369000X-0.081500X-0.369000X0.081500X-0.369000X0*%
%ADD36RoundRect,0.038000X0.840000X0.840000X-0.840000X0.840000X-0.840000X-0.840000X0.840000X-0.840000X0*%
%ADD37RoundRect,0.154000X-0.154000X-0.204000X0.154000X-0.204000X0.154000X0.204000X-0.154000X0.204000X0*%
%ADD38RoundRect,0.038000X0.850000X-0.850000X0.850000X0.850000X-0.850000X0.850000X-0.850000X-0.850000X0*%
%ADD39O,1.776000X1.776000*%
%ADD40RoundRect,0.159000X0.159000X0.189000X-0.159000X0.189000X-0.159000X-0.189000X0.159000X-0.189000X0*%
%ADD41C,0.726000*%
%ADD42RoundRect,0.169000X0.444000X-0.169000X0.444000X0.169000X-0.444000X0.169000X-0.444000X-0.169000X0*%
%ADD43RoundRect,0.094000X0.519000X-0.094000X0.519000X0.094000X-0.519000X0.094000X-0.519000X-0.094000X0*%
%ADD44O,2.176000X1.076000*%
%ADD45O,1.876000X1.076000*%
%ADD46RoundRect,0.219000X0.219000X0.294000X-0.219000X0.294000X-0.219000X-0.294000X0.219000X-0.294000X0*%
%ADD47RoundRect,0.265833X0.372167X0.647167X-0.372167X0.647167X-0.372167X-0.647167X0.372167X-0.647167X0*%
%ADD48O,1.276000X1.826000*%
%ADD49RoundRect,0.038000X-0.850000X0.850000X-0.850000X-0.850000X0.850000X-0.850000X0.850000X0.850000X0*%
G04 APERTURE END LIST*
D10*
%TO.C,D21*%
X104667000Y-190187500D03*
X104667000Y-192062500D03*
%TD*%
D11*
%TO.C,R4*%
X125000000Y-212300000D03*
X125000000Y-213950000D03*
%TD*%
D12*
%TO.C,SW53*%
X44500000Y-158000000D03*
D13*
X50000000Y-158000000D03*
D14*
X55220000Y-153800000D03*
D12*
X55500000Y-158000000D03*
D15*
X50000000Y-163900000D03*
X45000000Y-161800000D03*
%TD*%
D16*
%TO.C,SW15*%
X50000000Y-218250000D03*
X50000000Y-226000000D03*
%TD*%
D12*
%TO.C,SW55*%
X80500000Y-158000000D03*
D13*
X86000000Y-158000000D03*
D14*
X91220000Y-153800000D03*
D12*
X91500000Y-158000000D03*
D15*
X86000000Y-163900000D03*
X81000000Y-161800000D03*
%TD*%
D16*
%TO.C,SW25*%
X82333000Y-196250000D03*
X82333000Y-204000000D03*
%TD*%
%TO.C,SW18*%
X122000000Y-196250000D03*
X122000000Y-204000000D03*
%TD*%
D17*
%TO.C,C1*%
X94107000Y-40109000D03*
X94107000Y-41069000D03*
%TD*%
D11*
%TO.C,R29*%
X75333000Y-190300001D03*
X75333000Y-191950001D03*
%TD*%
%TO.C,R64*%
X94500000Y-153500000D03*
X94500000Y-155150000D03*
%TD*%
D18*
%TO.C,R76*%
X115544600Y-60092400D03*
X115544600Y-59072400D03*
%TD*%
D19*
%TO.C,Q3*%
X65200000Y-32990000D03*
X67100000Y-32990000D03*
X66150000Y-31115000D03*
%TD*%
D20*
%TO.C,D59*%
X71550000Y-183500000D03*
X69450000Y-183500000D03*
%TD*%
D10*
%TO.C,D4*%
X112000000Y-212187500D03*
X112000000Y-214062500D03*
%TD*%
D11*
%TO.C,R26*%
X92667000Y-190300000D03*
X92667000Y-191950000D03*
%TD*%
D10*
%TO.C,D14*%
X55000000Y-212187501D03*
X55000000Y-214062501D03*
%TD*%
D21*
%TO.C,D80*%
X86937500Y-136500000D03*
X85062500Y-136500000D03*
%TD*%
D22*
%TO.C,C18*%
X113131600Y-60163400D03*
X113131600Y-59203400D03*
%TD*%
D21*
%TO.C,D65*%
X86937500Y-85500000D03*
X85062500Y-85500000D03*
%TD*%
%TO.C,D82*%
X122937500Y-136500000D03*
X121062500Y-136500000D03*
%TD*%
D12*
%TO.C,SW59*%
X62500000Y-175000000D03*
D13*
X68000000Y-175000000D03*
D14*
X73220000Y-170800000D03*
D12*
X73500000Y-175000000D03*
D15*
X68000000Y-180900000D03*
X63000000Y-178800000D03*
%TD*%
D10*
%TO.C,D24*%
X89667000Y-190187500D03*
X89667000Y-192062500D03*
%TD*%
D16*
%TO.C,SW10*%
X77333000Y-218250000D03*
X77333000Y-226000000D03*
%TD*%
D11*
%TO.C,R51*%
X130500000Y-102500000D03*
X130500000Y-104150000D03*
%TD*%
D20*
%TO.C,D55*%
X89550000Y-166500000D03*
X87450000Y-166500000D03*
%TD*%
D16*
%TO.C,SW27*%
X72333000Y-196250000D03*
X72333000Y-204000000D03*
%TD*%
D23*
%TO.C,C11*%
X110744000Y-46018000D03*
X111704000Y-46018000D03*
%TD*%
%TO.C,C5*%
X112649000Y-40938000D03*
X113609000Y-40938000D03*
%TD*%
D11*
%TO.C,R43*%
X76500000Y-85500000D03*
X76500000Y-87150000D03*
%TD*%
D17*
%TO.C,C19*%
X106908600Y-63648400D03*
X106908600Y-64608400D03*
%TD*%
D11*
%TO.C,R59*%
X94500000Y-136500000D03*
X94500000Y-138150000D03*
%TD*%
D16*
%TO.C,SW13*%
X60000000Y-218250001D03*
X60000000Y-226000001D03*
%TD*%
D24*
%TO.C,D93*%
X105741600Y-57349400D03*
X105741600Y-55774400D03*
%TD*%
D12*
%TO.C,SW46*%
X98500000Y-124000000D03*
D13*
X104000000Y-124000000D03*
D14*
X109220000Y-119800000D03*
D12*
X109500000Y-124000000D03*
D15*
X104000000Y-129900000D03*
X99000000Y-127800000D03*
%TD*%
D11*
%TO.C,R47*%
X58500000Y-102500000D03*
X58500000Y-104150000D03*
%TD*%
%TO.C,R13*%
X75333000Y-212300001D03*
X75333000Y-213950001D03*
%TD*%
%TO.C,R53*%
X76500000Y-119500000D03*
X76500000Y-121150000D03*
%TD*%
D16*
%TO.C,SW24*%
X89667000Y-196249999D03*
X89667000Y-203999999D03*
%TD*%
D11*
%TO.C,R14*%
X70333000Y-212300001D03*
X70333000Y-213950001D03*
%TD*%
%TO.C,R18*%
X48000000Y-212300001D03*
X48000000Y-213950001D03*
%TD*%
%TO.C,R62*%
X58500000Y-153500000D03*
X58500000Y-155150000D03*
%TD*%
D12*
%TO.C,SW40*%
X80500000Y-107000000D03*
D13*
X86000000Y-107000000D03*
D14*
X91220000Y-102800000D03*
D12*
X91500000Y-107000000D03*
D15*
X86000000Y-112900000D03*
X81000000Y-110800000D03*
%TD*%
D12*
%TO.C,SW48*%
X44500000Y-141000000D03*
D13*
X50000000Y-141000000D03*
D14*
X55220000Y-136800000D03*
D12*
X55500000Y-141000000D03*
D15*
X50000000Y-146900000D03*
X45000000Y-144800000D03*
%TD*%
D25*
%TO.C,R37*%
X123618000Y-48740000D03*
X122598000Y-48740000D03*
%TD*%
D17*
%TO.C,C15*%
X106807000Y-49703000D03*
X106807000Y-50663000D03*
%TD*%
D10*
%TO.C,D27*%
X72333000Y-190187501D03*
X72333000Y-192062501D03*
%TD*%
D16*
%TO.C,SW21*%
X104667000Y-196250000D03*
X104667000Y-204000000D03*
%TD*%
D18*
%TO.C,R78*%
X65134000Y-35691000D03*
X65134000Y-34671000D03*
%TD*%
D16*
%TO.C,SW23*%
X94667000Y-196249999D03*
X94667000Y-203999999D03*
%TD*%
D20*
%TO.C,D62*%
X125550000Y-183500000D03*
X123450000Y-183500000D03*
%TD*%
D11*
%TO.C,R56*%
X130500000Y-119500000D03*
X130500000Y-121150000D03*
%TD*%
D10*
%TO.C,D31*%
X50000000Y-190187501D03*
X50000000Y-192062501D03*
%TD*%
D11*
%TO.C,R50*%
X112500000Y-102500000D03*
X112500000Y-104150000D03*
%TD*%
%TO.C,R19*%
X43000000Y-212300001D03*
X43000000Y-213950001D03*
%TD*%
D16*
%TO.C,SW22*%
X99667000Y-196250000D03*
X99667000Y-204000000D03*
%TD*%
D12*
%TO.C,SW49*%
X62500000Y-141000000D03*
D13*
X68000000Y-141000000D03*
D14*
X73220000Y-136800000D03*
D12*
X73500000Y-141000000D03*
D15*
X68000000Y-146900000D03*
X63000000Y-144800000D03*
%TD*%
D26*
%TO.C,Q2*%
X49000000Y-79580000D03*
X49000000Y-81500000D03*
X51100000Y-80540000D03*
%TD*%
D21*
%TO.C,D76*%
X104937500Y-119500000D03*
X103062500Y-119500000D03*
%TD*%
D20*
%TO.C,D48*%
X53550000Y-149500000D03*
X51450000Y-149500000D03*
%TD*%
D16*
%TO.C,SW16*%
X45000000Y-218250000D03*
X45000000Y-226000000D03*
%TD*%
D21*
%TO.C,D92*%
X122937500Y-170500000D03*
X121062500Y-170500000D03*
%TD*%
%TO.C,D91*%
X104937500Y-170500000D03*
X103062500Y-170500000D03*
%TD*%
D11*
%TO.C,R17*%
X53000000Y-212300001D03*
X53000000Y-213950001D03*
%TD*%
%TO.C,R73*%
X104241600Y-55774400D03*
X104241600Y-57424400D03*
%TD*%
D16*
%TO.C,SW12*%
X67332999Y-218250000D03*
X67332999Y-226000000D03*
%TD*%
D21*
%TO.C,D89*%
X68937500Y-170500000D03*
X67062500Y-170500000D03*
%TD*%
D20*
%TO.C,D53*%
X53550000Y-166500000D03*
X51450000Y-166500000D03*
%TD*%
D27*
%TO.C,U8*%
X104114600Y-61296400D03*
X104114600Y-60346400D03*
X104114600Y-59396400D03*
X101839600Y-59396400D03*
X101839600Y-61296400D03*
%TD*%
D25*
%TO.C,R2*%
X111764000Y-45002000D03*
X110744000Y-45002000D03*
%TD*%
D16*
%TO.C,SW5*%
X104667000Y-218250000D03*
X104667000Y-226000000D03*
%TD*%
D11*
%TO.C,R61*%
X130500000Y-136500000D03*
X130500000Y-138150000D03*
%TD*%
D16*
%TO.C,SW28*%
X67332999Y-196250000D03*
X67332999Y-204000000D03*
%TD*%
D18*
%TO.C,R75*%
X110591600Y-64668400D03*
X110591600Y-63648400D03*
%TD*%
D12*
%TO.C,SW42*%
X116500000Y-107000000D03*
D13*
X122000000Y-107000000D03*
D14*
X127220000Y-102800000D03*
D12*
X127500000Y-107000000D03*
D15*
X122000000Y-112900000D03*
X117000000Y-110800000D03*
%TD*%
D28*
%TO.C,IC1*%
X117221000Y-30944000D03*
X115951000Y-30944000D03*
X114681000Y-30944000D03*
X113411000Y-30944000D03*
X113411000Y-38144000D03*
X114681000Y-38144000D03*
X115951000Y-38144000D03*
X117221000Y-38144000D03*
%TD*%
D12*
%TO.C,SW43*%
X44500000Y-124000000D03*
D13*
X50000000Y-124000000D03*
D14*
X55220000Y-119800000D03*
D12*
X55500000Y-124000000D03*
D15*
X50000000Y-129900000D03*
X45000000Y-127800000D03*
%TD*%
D16*
%TO.C,SW1*%
X127000000Y-218250000D03*
X127000000Y-226000000D03*
%TD*%
D21*
%TO.C,D74*%
X68937500Y-119500000D03*
X67062500Y-119500000D03*
%TD*%
D10*
%TO.C,D17*%
X127000000Y-190187501D03*
X127000000Y-192062501D03*
%TD*%
D20*
%TO.C,D43*%
X53550000Y-132500000D03*
X51450000Y-132500000D03*
%TD*%
%TO.C,D41*%
X107550000Y-115500000D03*
X105450000Y-115500000D03*
%TD*%
D11*
%TO.C,R22*%
X115000000Y-190300001D03*
X115000000Y-191950001D03*
%TD*%
D21*
%TO.C,D84*%
X68937500Y-153500000D03*
X67062500Y-153500000D03*
%TD*%
D20*
%TO.C,D52*%
X125550000Y-149500000D03*
X123450000Y-149500000D03*
%TD*%
D16*
%TO.C,SW14*%
X55000000Y-218250001D03*
X55000000Y-226000001D03*
%TD*%
D11*
%TO.C,R63*%
X76500000Y-153500000D03*
X76500000Y-155150000D03*
%TD*%
D12*
%TO.C,SW58*%
X44500000Y-175000000D03*
D13*
X50000000Y-175000000D03*
D14*
X55220000Y-170800000D03*
D12*
X55500000Y-175000000D03*
D15*
X50000000Y-180900000D03*
X45000000Y-178800000D03*
%TD*%
D11*
%TO.C,R58*%
X76500000Y-136500000D03*
X76500000Y-138150000D03*
%TD*%
D12*
%TO.C,SW54*%
X62500000Y-158000000D03*
D13*
X68000000Y-158000000D03*
D14*
X73220000Y-153800000D03*
D12*
X73500000Y-158000000D03*
D15*
X68000000Y-163900000D03*
X63000000Y-161800000D03*
%TD*%
D18*
%TO.C,R39*%
X120396000Y-31159000D03*
X120396000Y-30139000D03*
%TD*%
D21*
%TO.C,D67*%
X122937500Y-85500000D03*
X121062500Y-85500000D03*
%TD*%
D11*
%TO.C,R60*%
X112500000Y-136500000D03*
X112500000Y-138150000D03*
%TD*%
D10*
%TO.C,D30*%
X55000000Y-190187501D03*
X55000000Y-192062501D03*
%TD*%
D23*
%TO.C,C10*%
X112649000Y-41954000D03*
X113609000Y-41954000D03*
%TD*%
D11*
%TO.C,R31*%
X65333000Y-190300000D03*
X65333000Y-191950000D03*
%TD*%
%TO.C,R25*%
X97667000Y-190300000D03*
X97667000Y-191950000D03*
%TD*%
D23*
%TO.C,C12*%
X110744000Y-47034000D03*
X111704000Y-47034000D03*
%TD*%
D12*
%TO.C,SW47*%
X116500000Y-124000000D03*
D13*
X122000000Y-124000000D03*
D14*
X127220000Y-119800000D03*
D12*
X127500000Y-124000000D03*
D15*
X122000000Y-129900000D03*
X117000000Y-127800000D03*
%TD*%
D20*
%TO.C,D49*%
X71550000Y-149500000D03*
X69450000Y-149500000D03*
%TD*%
%TO.C,D34*%
X71550000Y-98500000D03*
X69450000Y-98500000D03*
%TD*%
D17*
%TO.C,C4*%
X101828600Y-63648400D03*
X101828600Y-64608400D03*
%TD*%
D12*
%TO.C,SW56*%
X98500000Y-158000000D03*
D13*
X104000000Y-158000000D03*
D14*
X109220000Y-153800000D03*
D12*
X109500000Y-158000000D03*
D15*
X104000000Y-163900000D03*
X99000000Y-161800000D03*
%TD*%
D11*
%TO.C,R9*%
X97667000Y-212300000D03*
X97667000Y-213950000D03*
%TD*%
D20*
%TO.C,D54*%
X71550000Y-166500000D03*
X69450000Y-166500000D03*
%TD*%
D12*
%TO.C,SW38*%
X44500000Y-107000000D03*
D13*
X50000000Y-107000000D03*
D14*
X55220000Y-102800000D03*
D12*
X55500000Y-107000000D03*
D15*
X50000000Y-112900000D03*
X45000000Y-110800000D03*
%TD*%
D11*
%TO.C,R7*%
X110000000Y-212300000D03*
X110000000Y-213950000D03*
%TD*%
D21*
%TO.C,D66*%
X104937500Y-85500000D03*
X103062500Y-85500000D03*
%TD*%
D11*
%TO.C,R20*%
X125000000Y-190300001D03*
X125000000Y-191950001D03*
%TD*%
D10*
%TO.C,D28*%
X67333000Y-190187500D03*
X67333000Y-192062500D03*
%TD*%
D29*
%TO.C,Y1*%
X89407000Y-40589000D03*
X89407000Y-42789000D03*
X91107000Y-42789000D03*
X91107000Y-40589000D03*
%TD*%
D20*
%TO.C,D60*%
X89550000Y-183500000D03*
X87450000Y-183500000D03*
%TD*%
D11*
%TO.C,R70*%
X112500000Y-170500000D03*
X112500000Y-172150000D03*
%TD*%
D22*
%TO.C,C13*%
X103177000Y-36493000D03*
X103177000Y-35533000D03*
%TD*%
D11*
%TO.C,R55*%
X112500000Y-119500000D03*
X112500000Y-121150000D03*
%TD*%
D25*
%TO.C,R36*%
X123618000Y-51840000D03*
X122598000Y-51840000D03*
%TD*%
D16*
%TO.C,SW31*%
X50000000Y-196250000D03*
X50000000Y-204000000D03*
%TD*%
D12*
%TO.C,SW62*%
X116500000Y-175000000D03*
D13*
X122000000Y-175000000D03*
D14*
X127220000Y-170800000D03*
D12*
X127500000Y-175000000D03*
D15*
X122000000Y-180900000D03*
X117000000Y-178800000D03*
%TD*%
D11*
%TO.C,R52*%
X58500000Y-119500000D03*
X58500000Y-121150000D03*
%TD*%
%TO.C,R11*%
X87667000Y-212300000D03*
X87667000Y-213950000D03*
%TD*%
D22*
%TO.C,C2*%
X94107000Y-43549000D03*
X94107000Y-42589000D03*
%TD*%
D21*
%TO.C,D70*%
X86937500Y-102500000D03*
X85062500Y-102500000D03*
%TD*%
D11*
%TO.C,R66*%
X130500000Y-153500000D03*
X130500000Y-155150000D03*
%TD*%
D20*
%TO.C,D40*%
X89550000Y-115500000D03*
X87450000Y-115500000D03*
%TD*%
D12*
%TO.C,SW44*%
X62500000Y-124000000D03*
D13*
X68000000Y-124000000D03*
D14*
X73220000Y-119800000D03*
D12*
X73500000Y-124000000D03*
D15*
X68000000Y-129900000D03*
X63000000Y-127800000D03*
%TD*%
D21*
%TO.C,D77*%
X122937500Y-119500000D03*
X121062500Y-119500000D03*
%TD*%
%TO.C,D63*%
X50937500Y-85500000D03*
X49062500Y-85500000D03*
%TD*%
D11*
%TO.C,R65*%
X112500000Y-153500000D03*
X112500000Y-155150000D03*
%TD*%
D30*
%TO.C,R40*%
X68690000Y-30353000D03*
X68690000Y-31373000D03*
%TD*%
D10*
%TO.C,D26*%
X77333000Y-190187501D03*
X77333000Y-192062501D03*
%TD*%
D11*
%TO.C,R49*%
X94500000Y-102500000D03*
X94500000Y-104150000D03*
%TD*%
D21*
%TO.C,D69*%
X68937500Y-102500000D03*
X67062500Y-102500000D03*
%TD*%
D31*
%TO.C,U1*%
X106777000Y-39893000D03*
X106377000Y-39893000D03*
X105977000Y-39893000D03*
X105577000Y-39893000D03*
X105177000Y-39893000D03*
X104777000Y-39893000D03*
X104377000Y-39893000D03*
X103977000Y-39893000D03*
X103577000Y-39893000D03*
X103177000Y-39893000D03*
X102777000Y-39893000D03*
X102377000Y-39893000D03*
X101977000Y-39893000D03*
X101577000Y-39893000D03*
D32*
X100739500Y-40730500D03*
X100739500Y-41130500D03*
X100739500Y-41530500D03*
X100739500Y-41930500D03*
X100739500Y-42330500D03*
X100739500Y-42730500D03*
X100739500Y-43130500D03*
X100739500Y-43530500D03*
X100739500Y-43930500D03*
X100739500Y-44330500D03*
X100739500Y-44730500D03*
X100739500Y-45130500D03*
X100739500Y-45530500D03*
X100739500Y-45930500D03*
D31*
X101577000Y-46768000D03*
X101977000Y-46768000D03*
X102377000Y-46768000D03*
X102777000Y-46768000D03*
X103177000Y-46768000D03*
X103577000Y-46768000D03*
X103977000Y-46768000D03*
X104377000Y-46768000D03*
X104777000Y-46768000D03*
X105177000Y-46768000D03*
X105577000Y-46768000D03*
X105977000Y-46768000D03*
X106377000Y-46768000D03*
X106777000Y-46768000D03*
D32*
X107614500Y-45930500D03*
X107614500Y-45530500D03*
X107614500Y-45130500D03*
X107614500Y-44730500D03*
X107614500Y-44330500D03*
X107614500Y-43930500D03*
X107614500Y-43530500D03*
X107614500Y-43130500D03*
X107614500Y-42730500D03*
X107614500Y-42330500D03*
X107614500Y-41930500D03*
X107614500Y-41530500D03*
X107614500Y-41130500D03*
X107614500Y-40730500D03*
D33*
X104177000Y-43330500D03*
%TD*%
D16*
%TO.C,SW20*%
X111999999Y-196250000D03*
X111999999Y-204000000D03*
%TD*%
D12*
%TO.C,SW33*%
X44500000Y-90000000D03*
D13*
X50000000Y-90000000D03*
D14*
X55220000Y-85800000D03*
D12*
X55500000Y-90000000D03*
D15*
X50000000Y-95900000D03*
X45000000Y-93800000D03*
%TD*%
D16*
%TO.C,SW17*%
X127000000Y-196250000D03*
X127000000Y-204000000D03*
%TD*%
D11*
%TO.C,R32*%
X58000000Y-190300001D03*
X58000000Y-191950001D03*
%TD*%
D16*
%TO.C,SW2*%
X122000000Y-218250000D03*
X122000000Y-226000000D03*
%TD*%
D10*
%TO.C,D8*%
X89667000Y-212187500D03*
X89667000Y-214062500D03*
%TD*%
D11*
%TO.C,R68*%
X76500000Y-170500000D03*
X76500000Y-172150000D03*
%TD*%
D20*
%TO.C,D58*%
X53550000Y-183500000D03*
X51450000Y-183500000D03*
%TD*%
D11*
%TO.C,R23*%
X110000000Y-190300000D03*
X110000000Y-191950000D03*
%TD*%
D10*
%TO.C,D19*%
X117000000Y-190187501D03*
X117000000Y-192062501D03*
%TD*%
D18*
%TO.C,R77*%
X115544600Y-58056400D03*
X115544600Y-57036400D03*
%TD*%
D11*
%TO.C,R24*%
X102667000Y-190300000D03*
X102667000Y-191950000D03*
%TD*%
D20*
%TO.C,D33*%
X53550000Y-98500000D03*
X51450000Y-98500000D03*
%TD*%
D11*
%TO.C,R15*%
X65333000Y-212300000D03*
X65333000Y-213950000D03*
%TD*%
D10*
%TO.C,D1*%
X127000000Y-212187500D03*
X127000000Y-214062500D03*
%TD*%
D20*
%TO.C,D47*%
X125550000Y-132500000D03*
X123450000Y-132500000D03*
%TD*%
D34*
%TO.C,U6*%
X111274600Y-61174400D03*
X111274600Y-60674400D03*
X111274600Y-60174400D03*
X111274600Y-59674400D03*
D35*
X110562100Y-58961900D03*
X110062100Y-58961900D03*
X109562100Y-58961900D03*
X109062100Y-58961900D03*
D34*
X108349600Y-59674400D03*
X108349600Y-60174400D03*
X108349600Y-60674400D03*
X108349600Y-61174400D03*
D35*
X109062100Y-61886900D03*
X109562100Y-61886900D03*
X110062100Y-61886900D03*
X110562100Y-61886900D03*
D36*
X109812100Y-60424400D03*
%TD*%
D16*
%TO.C,SW8*%
X89667000Y-218250000D03*
X89667000Y-226000000D03*
%TD*%
D12*
%TO.C,SW34*%
X62500000Y-90000000D03*
D13*
X68000000Y-90000000D03*
D14*
X73220000Y-85800000D03*
D12*
X73500000Y-90000000D03*
D15*
X68000000Y-95900000D03*
X63000000Y-93800000D03*
%TD*%
D10*
%TO.C,D29*%
X60000000Y-190187501D03*
X60000000Y-192062501D03*
%TD*%
%TO.C,D15*%
X50000000Y-212187501D03*
X50000000Y-214062501D03*
%TD*%
D17*
%TO.C,C16*%
X103124000Y-49703000D03*
X103124000Y-50663000D03*
%TD*%
D16*
%TO.C,SW7*%
X94667000Y-218250000D03*
X94667000Y-226000000D03*
%TD*%
D11*
%TO.C,R5*%
X120000000Y-212300000D03*
X120000000Y-213950000D03*
%TD*%
D25*
%TO.C,R1*%
X111764000Y-43986000D03*
X110744000Y-43986000D03*
%TD*%
D37*
%TO.C,R3*%
X96897000Y-42589000D03*
X97917000Y-42589000D03*
%TD*%
D12*
%TO.C,SW35*%
X80500000Y-90000000D03*
D13*
X86000000Y-90000000D03*
D14*
X91220000Y-85800000D03*
D12*
X91500000Y-90000000D03*
D15*
X86000000Y-95900000D03*
X81000000Y-93800000D03*
%TD*%
D11*
%TO.C,R8*%
X102667000Y-212300000D03*
X102667000Y-213950000D03*
%TD*%
D10*
%TO.C,D12*%
X67333000Y-212187500D03*
X67333000Y-214062500D03*
%TD*%
D21*
%TO.C,D78*%
X50937500Y-136500000D03*
X49062500Y-136500000D03*
%TD*%
D16*
%TO.C,SW19*%
X117000000Y-196250000D03*
X117000000Y-204000000D03*
%TD*%
D20*
%TO.C,D50*%
X89550000Y-149500000D03*
X87450000Y-149500000D03*
%TD*%
%TO.C,D44*%
X71550000Y-132500000D03*
X69450000Y-132500000D03*
%TD*%
D21*
%TO.C,D83*%
X50937500Y-153500000D03*
X49062500Y-153500000D03*
%TD*%
D17*
%TO.C,C3*%
X105908600Y-63648400D03*
X105908600Y-64608400D03*
%TD*%
D38*
%TO.C,U7*%
X62000000Y-23000000D03*
D39*
X64540000Y-23000000D03*
X67080000Y-23000000D03*
X69620000Y-23000000D03*
X72160000Y-23000000D03*
X74700000Y-23000000D03*
X77240000Y-23000000D03*
X79780000Y-23000000D03*
X82320000Y-23000000D03*
X84860000Y-23000000D03*
X87400000Y-23000000D03*
X89940000Y-23000000D03*
X92480000Y-23000000D03*
X95020000Y-23000000D03*
X97560000Y-23000000D03*
X100100000Y-23000000D03*
X102640000Y-23000000D03*
X105180000Y-23000000D03*
X107720000Y-23000000D03*
X110260000Y-23000000D03*
%TD*%
D11*
%TO.C,R67*%
X58500000Y-170500000D03*
X58500000Y-172150000D03*
%TD*%
D20*
%TO.C,D37*%
X125550000Y-98500000D03*
X123450000Y-98500000D03*
%TD*%
D21*
%TO.C,D73*%
X50937500Y-119500000D03*
X49062500Y-119500000D03*
%TD*%
D10*
%TO.C,D22*%
X99667000Y-190187500D03*
X99667000Y-192062500D03*
%TD*%
D11*
%TO.C,R71*%
X130500000Y-170500000D03*
X130500000Y-172150000D03*
%TD*%
D22*
%TO.C,C20*%
X116560600Y-58056400D03*
X116560600Y-57096400D03*
%TD*%
D20*
%TO.C,D35*%
X89550000Y-98500000D03*
X87450000Y-98500000D03*
%TD*%
D22*
%TO.C,C14*%
X106807000Y-36493000D03*
X106807000Y-35533000D03*
%TD*%
D10*
%TO.C,D32*%
X45000000Y-190187501D03*
X45000000Y-192062501D03*
%TD*%
D20*
%TO.C,D46*%
X107550000Y-132500000D03*
X105450000Y-132500000D03*
%TD*%
D21*
%TO.C,D81*%
X104937500Y-136500000D03*
X103062500Y-136500000D03*
%TD*%
D20*
%TO.C,D57*%
X125550000Y-166500000D03*
X123450000Y-166500000D03*
%TD*%
D11*
%TO.C,R27*%
X87667000Y-190300000D03*
X87667000Y-191950000D03*
%TD*%
%TO.C,R42*%
X58500000Y-85500000D03*
X58500000Y-87150000D03*
%TD*%
D21*
%TO.C,D64*%
X68937500Y-85500000D03*
X67062500Y-85500000D03*
%TD*%
D12*
%TO.C,SW39*%
X62500000Y-107000000D03*
D13*
X68000000Y-107000000D03*
D14*
X73220000Y-102800000D03*
D12*
X73500000Y-107000000D03*
D15*
X68000000Y-112900000D03*
X63000000Y-110800000D03*
%TD*%
D12*
%TO.C,SW61*%
X98500000Y-175000000D03*
D13*
X104000000Y-175000000D03*
D14*
X109220000Y-170800000D03*
D12*
X109500000Y-175000000D03*
D15*
X104000000Y-180900000D03*
X99000000Y-178800000D03*
%TD*%
D20*
%TO.C,D45*%
X89550000Y-132500000D03*
X87450000Y-132500000D03*
%TD*%
D21*
%TO.C,D75*%
X86937500Y-119500000D03*
X85062500Y-119500000D03*
%TD*%
D12*
%TO.C,SW60*%
X80500000Y-175000000D03*
D13*
X86000000Y-175000000D03*
D14*
X91220000Y-170800000D03*
D12*
X91500000Y-175000000D03*
D15*
X86000000Y-180900000D03*
X81000000Y-178800000D03*
%TD*%
D11*
%TO.C,R44*%
X94500000Y-85500000D03*
X94500000Y-87150000D03*
%TD*%
%TO.C,R30*%
X70333000Y-190300001D03*
X70333000Y-191950001D03*
%TD*%
D30*
%TO.C,R74*%
X105800000Y-49680000D03*
X105800000Y-50700000D03*
%TD*%
D11*
%TO.C,R33*%
X53000000Y-190300001D03*
X53000000Y-191950001D03*
%TD*%
D10*
%TO.C,D13*%
X60000000Y-212187501D03*
X60000000Y-214062501D03*
%TD*%
D16*
%TO.C,SW4*%
X112000000Y-218250000D03*
X112000000Y-226000000D03*
%TD*%
%TO.C,SW30*%
X55000000Y-196250001D03*
X55000000Y-204000001D03*
%TD*%
%TO.C,SW6*%
X99667000Y-218250000D03*
X99667000Y-226000000D03*
%TD*%
D11*
%TO.C,R34*%
X48000000Y-190300001D03*
X48000000Y-191950001D03*
%TD*%
D20*
%TO.C,D51*%
X107550000Y-149500000D03*
X105450000Y-149500000D03*
%TD*%
D23*
%TO.C,C9*%
X110744000Y-48050000D03*
X111704000Y-48050000D03*
%TD*%
%TO.C,C7*%
X112649000Y-42970000D03*
X113609000Y-42970000D03*
%TD*%
D12*
%TO.C,SW57*%
X116500000Y-158000000D03*
D13*
X122000000Y-158000000D03*
D14*
X127220000Y-153800000D03*
D12*
X127500000Y-158000000D03*
D15*
X122000000Y-163900000D03*
X117000000Y-161800000D03*
%TD*%
D11*
%TO.C,R57*%
X58500000Y-136500000D03*
X58500000Y-138150000D03*
%TD*%
%TO.C,R10*%
X92667000Y-212300000D03*
X92667000Y-213950000D03*
%TD*%
D25*
%TO.C,R72*%
X114151600Y-61235400D03*
X113131600Y-61235400D03*
%TD*%
D21*
%TO.C,D90*%
X86937500Y-170500000D03*
X85062500Y-170500000D03*
%TD*%
D12*
%TO.C,SW41*%
X98500000Y-107000000D03*
D13*
X104000000Y-107000000D03*
D14*
X109220000Y-102800000D03*
D12*
X109500000Y-107000000D03*
D15*
X104000000Y-112900000D03*
X99000000Y-110800000D03*
%TD*%
D11*
%TO.C,R46*%
X130500000Y-85500000D03*
X130500000Y-87150000D03*
%TD*%
D10*
%TO.C,D11*%
X72333000Y-212187501D03*
X72333000Y-214062501D03*
%TD*%
D21*
%TO.C,D87*%
X122937500Y-153500000D03*
X121062500Y-153500000D03*
%TD*%
D12*
%TO.C,SW51*%
X98500000Y-141000000D03*
D13*
X104000000Y-141000000D03*
D14*
X109220000Y-136800000D03*
D12*
X109500000Y-141000000D03*
D15*
X104000000Y-146900000D03*
X99000000Y-144800000D03*
%TD*%
D10*
%TO.C,D18*%
X122000000Y-190187501D03*
X122000000Y-192062501D03*
%TD*%
%TO.C,D2*%
X122000000Y-212187500D03*
X122000000Y-214062500D03*
%TD*%
%TO.C,D20*%
X112000000Y-190187500D03*
X112000000Y-192062500D03*
%TD*%
D21*
%TO.C,D86*%
X104937500Y-153500000D03*
X103062500Y-153500000D03*
%TD*%
D16*
%TO.C,SW26*%
X77333000Y-196250000D03*
X77333000Y-204000000D03*
%TD*%
D10*
%TO.C,D16*%
X45000000Y-212187501D03*
X45000000Y-214062501D03*
%TD*%
%TO.C,D9*%
X82333000Y-212187501D03*
X82333000Y-214062501D03*
%TD*%
D16*
%TO.C,SW3*%
X117000000Y-218250000D03*
X117000000Y-226000000D03*
%TD*%
D10*
%TO.C,D23*%
X94667000Y-190187500D03*
X94667000Y-192062500D03*
%TD*%
D12*
%TO.C,SW36*%
X98500000Y-90000000D03*
D13*
X104000000Y-90000000D03*
D14*
X109220000Y-85800000D03*
D12*
X109500000Y-90000000D03*
D15*
X104000000Y-95900000D03*
X99000000Y-93800000D03*
%TD*%
D21*
%TO.C,D88*%
X50937500Y-170500000D03*
X49062500Y-170500000D03*
%TD*%
%TO.C,D71*%
X104937500Y-102500000D03*
X103062500Y-102500000D03*
%TD*%
D11*
%TO.C,R16*%
X58000000Y-212300001D03*
X58000000Y-213950001D03*
%TD*%
D40*
%TO.C,C8*%
X97917000Y-43605000D03*
X96957000Y-43605000D03*
%TD*%
D21*
%TO.C,D79*%
X68937500Y-136500000D03*
X67062500Y-136500000D03*
%TD*%
D20*
%TO.C,D61*%
X107550000Y-183500000D03*
X105450000Y-183500000D03*
%TD*%
D21*
%TO.C,D85*%
X86937500Y-153500000D03*
X85062500Y-153500000D03*
%TD*%
D18*
%TO.C,R38*%
X119380000Y-31159000D03*
X119380000Y-30139000D03*
%TD*%
D20*
%TO.C,D38*%
X53550000Y-115500000D03*
X51450000Y-115500000D03*
%TD*%
D19*
%TO.C,Q1*%
X66150000Y-28575000D03*
X68050000Y-28575000D03*
X67100000Y-26700000D03*
%TD*%
D11*
%TO.C,R6*%
X115000000Y-212300000D03*
X115000000Y-213950000D03*
%TD*%
D10*
%TO.C,D3*%
X117000000Y-212187500D03*
X117000000Y-214062500D03*
%TD*%
D11*
%TO.C,R54*%
X94500000Y-119500000D03*
X94500000Y-121150000D03*
%TD*%
D21*
%TO.C,D68*%
X50937500Y-102500000D03*
X49062500Y-102500000D03*
%TD*%
D10*
%TO.C,D10*%
X77333000Y-212187501D03*
X77333000Y-214062501D03*
%TD*%
%TO.C,D25*%
X82333000Y-190187501D03*
X82333000Y-192062501D03*
%TD*%
D11*
%TO.C,R48*%
X76500000Y-102500000D03*
X76500000Y-104150000D03*
%TD*%
D16*
%TO.C,SW32*%
X45000000Y-196250000D03*
X45000000Y-204000000D03*
%TD*%
D10*
%TO.C,D5*%
X104667000Y-212187500D03*
X104667000Y-214062500D03*
%TD*%
D11*
%TO.C,R69*%
X94500000Y-170500000D03*
X94500000Y-172150000D03*
%TD*%
D12*
%TO.C,SW45*%
X80500000Y-124000000D03*
D13*
X86000000Y-124000000D03*
D14*
X91220000Y-119800000D03*
D12*
X91500000Y-124000000D03*
D15*
X86000000Y-129900000D03*
X81000000Y-127800000D03*
%TD*%
D16*
%TO.C,SW29*%
X60000000Y-196250001D03*
X60000000Y-204000001D03*
%TD*%
%TO.C,SW11*%
X72333000Y-218250000D03*
X72333000Y-226000000D03*
%TD*%
%TO.C,SW9*%
X82333000Y-218250000D03*
X82333000Y-226000000D03*
%TD*%
D17*
%TO.C,C17*%
X109067600Y-63648400D03*
X109067600Y-64608400D03*
%TD*%
D20*
%TO.C,D42*%
X125550000Y-115500000D03*
X123450000Y-115500000D03*
%TD*%
D11*
%TO.C,R21*%
X120000000Y-190300001D03*
X120000000Y-191950001D03*
%TD*%
D41*
%TO.C,J1*%
X126738000Y-53180000D03*
X126738000Y-47400000D03*
D42*
X125663000Y-53490000D03*
X125663000Y-52690000D03*
D43*
X125663000Y-51540000D03*
X125663000Y-50540000D03*
X125663000Y-50040000D03*
X125663000Y-49040000D03*
D42*
X125663000Y-47890000D03*
X125663000Y-47090000D03*
X125663000Y-47090000D03*
X125663000Y-47890000D03*
D43*
X125663000Y-48540000D03*
X125663000Y-49540000D03*
X125663000Y-51040000D03*
X125663000Y-52040000D03*
D42*
X125663000Y-52690000D03*
X125663000Y-53490000D03*
D44*
X126238000Y-54610000D03*
D45*
X130418000Y-54610000D03*
D44*
X126238000Y-45970000D03*
D45*
X130418000Y-45970000D03*
%TD*%
D10*
%TO.C,D6*%
X99667000Y-212187500D03*
X99667000Y-214062500D03*
%TD*%
D20*
%TO.C,D36*%
X107550000Y-98500000D03*
X105450000Y-98500000D03*
%TD*%
D21*
%TO.C,D72*%
X122937500Y-102500000D03*
X121062500Y-102500000D03*
%TD*%
D12*
%TO.C,SW37*%
X116500000Y-90000000D03*
D13*
X122000000Y-90000000D03*
D14*
X127220000Y-85800000D03*
D12*
X127500000Y-90000000D03*
D15*
X122000000Y-95900000D03*
X117000000Y-93800000D03*
%TD*%
D10*
%TO.C,D7*%
X94667000Y-212187500D03*
X94667000Y-214062500D03*
%TD*%
D46*
%TO.C,R41*%
X47500000Y-79580000D03*
X45850000Y-79580000D03*
%TD*%
D20*
%TO.C,D56*%
X107550000Y-166500000D03*
X105450000Y-166500000D03*
%TD*%
D12*
%TO.C,SW50*%
X80500000Y-141000000D03*
D13*
X86000000Y-141000000D03*
D14*
X91220000Y-136800000D03*
D12*
X91500000Y-141000000D03*
D15*
X86000000Y-146900000D03*
X81000000Y-144800000D03*
%TD*%
D12*
%TO.C,SW52*%
X116500000Y-141000000D03*
D13*
X122000000Y-141000000D03*
D14*
X127220000Y-136800000D03*
D12*
X127500000Y-141000000D03*
D15*
X122000000Y-146900000D03*
X117000000Y-144800000D03*
%TD*%
D20*
%TO.C,D39*%
X71550000Y-115500000D03*
X69450000Y-115500000D03*
%TD*%
D11*
%TO.C,R28*%
X80333000Y-190300001D03*
X80333000Y-191950001D03*
%TD*%
D40*
%TO.C,C6*%
X97917000Y-44621000D03*
X96957000Y-44621000D03*
%TD*%
D11*
%TO.C,R45*%
X112500000Y-85500000D03*
X112500000Y-87150000D03*
%TD*%
%TO.C,R35*%
X43000000Y-190300001D03*
X43000000Y-191950001D03*
%TD*%
%TO.C,R12*%
X80333000Y-212300001D03*
X80333000Y-213950001D03*
%TD*%
D47*
%TO.C,BT1*%
X118650000Y-65000000D03*
D48*
X120650000Y-65000000D03*
%TD*%
D49*
%TO.C,J2*%
X89154000Y-75184000D03*
D39*
X91694000Y-75184000D03*
X94234000Y-75184000D03*
X96774000Y-75184000D03*
X99314000Y-75184000D03*
%TD*%
M02*
