%TF.GenerationSoftware,KiCad,Pcbnew,8.0.7*%
%TF.CreationDate,2025-01-05T21:02:15-05:00*%
%TF.ProjectId,rp2040-programmer-calculator-v2,72703230-3430-42d7-9072-6f6772616d6d,rev?*%
%TF.SameCoordinates,Original*%
%TF.FileFunction,Legend,Bot*%
%TF.FilePolarity,Positive*%
%FSLAX46Y46*%
G04 Gerber Fmt 4.6, Leading zero omitted, Abs format (unit mm)*
G04 Created by KiCad (PCBNEW 8.0.7) date 2025-01-05 21:02:15*
%MOMM*%
%LPD*%
G01*
G04 APERTURE LIST*
G04 Aperture macros list*
%AMRoundRect*
0 Rectangle with rounded corners*
0 $1 Rounding radius*
0 $2 $3 $4 $5 $6 $7 $8 $9 X,Y pos of 4 corners*
0 Add a 4 corners polygon primitive as box body*
4,1,4,$2,$3,$4,$5,$6,$7,$8,$9,$2,$3,0*
0 Add four circle primitives for the rounded corners*
1,1,$1+$1,$2,$3*
1,1,$1+$1,$4,$5*
1,1,$1+$1,$6,$7*
1,1,$1+$1,$8,$9*
0 Add four rect primitives between the rounded corners*
20,1,$1+$1,$2,$3,$4,$5,0*
20,1,$1+$1,$4,$5,$6,$7,0*
20,1,$1+$1,$6,$7,$8,$9,0*
20,1,$1+$1,$8,$9,$2,$3,0*%
G04 Aperture macros list end*
%ADD10C,0.150000*%
%ADD11C,0.120000*%
%ADD12R,0.750000X1.000000*%
%ADD13C,4.500000*%
%ADD14R,1.700000X1.700000*%
%ADD15O,1.700000X1.700000*%
%ADD16RoundRect,0.100000X0.100000X-0.637500X0.100000X0.637500X-0.100000X0.637500X-0.100000X-0.637500X0*%
%ADD17C,1.800000*%
%ADD18R,0.500000X0.800000*%
%ADD19R,0.400000X0.800000*%
%ADD20RoundRect,0.225000X-0.225000X-0.250000X0.225000X-0.250000X0.225000X0.250000X-0.225000X0.250000X0*%
%ADD21C,0.711200*%
%ADD22R,1.000000X0.750000*%
%ADD23C,0.650000*%
%ADD24O,2.100000X1.000000*%
%ADD25O,1.800000X1.000000*%
%ADD26RoundRect,0.250000X0.350000X0.625000X-0.350000X0.625000X-0.350000X-0.625000X0.350000X-0.625000X0*%
%ADD27O,1.200000X1.750000*%
%ADD28O,2.900000X1.700000*%
G04 APERTURE END LIST*
D10*
X37064700Y-50125476D02*
X37112319Y-50268333D01*
X37112319Y-50268333D02*
X37112319Y-50506428D01*
X37112319Y-50506428D02*
X37064700Y-50601666D01*
X37064700Y-50601666D02*
X37017080Y-50649285D01*
X37017080Y-50649285D02*
X36921842Y-50696904D01*
X36921842Y-50696904D02*
X36826604Y-50696904D01*
X36826604Y-50696904D02*
X36731366Y-50649285D01*
X36731366Y-50649285D02*
X36683747Y-50601666D01*
X36683747Y-50601666D02*
X36636128Y-50506428D01*
X36636128Y-50506428D02*
X36588509Y-50315952D01*
X36588509Y-50315952D02*
X36540890Y-50220714D01*
X36540890Y-50220714D02*
X36493271Y-50173095D01*
X36493271Y-50173095D02*
X36398033Y-50125476D01*
X36398033Y-50125476D02*
X36302795Y-50125476D01*
X36302795Y-50125476D02*
X36207557Y-50173095D01*
X36207557Y-50173095D02*
X36159938Y-50220714D01*
X36159938Y-50220714D02*
X36112319Y-50315952D01*
X36112319Y-50315952D02*
X36112319Y-50554047D01*
X36112319Y-50554047D02*
X36159938Y-50696904D01*
X36112319Y-51030238D02*
X37112319Y-51268333D01*
X37112319Y-51268333D02*
X36398033Y-51458809D01*
X36398033Y-51458809D02*
X37112319Y-51649285D01*
X37112319Y-51649285D02*
X36112319Y-51887381D01*
X36112319Y-52696904D02*
X36112319Y-52506428D01*
X36112319Y-52506428D02*
X36159938Y-52411190D01*
X36159938Y-52411190D02*
X36207557Y-52363571D01*
X36207557Y-52363571D02*
X36350414Y-52268333D01*
X36350414Y-52268333D02*
X36540890Y-52220714D01*
X36540890Y-52220714D02*
X36921842Y-52220714D01*
X36921842Y-52220714D02*
X37017080Y-52268333D01*
X37017080Y-52268333D02*
X37064700Y-52315952D01*
X37064700Y-52315952D02*
X37112319Y-52411190D01*
X37112319Y-52411190D02*
X37112319Y-52601666D01*
X37112319Y-52601666D02*
X37064700Y-52696904D01*
X37064700Y-52696904D02*
X37017080Y-52744523D01*
X37017080Y-52744523D02*
X36921842Y-52792142D01*
X36921842Y-52792142D02*
X36683747Y-52792142D01*
X36683747Y-52792142D02*
X36588509Y-52744523D01*
X36588509Y-52744523D02*
X36540890Y-52696904D01*
X36540890Y-52696904D02*
X36493271Y-52601666D01*
X36493271Y-52601666D02*
X36493271Y-52411190D01*
X36493271Y-52411190D02*
X36540890Y-52315952D01*
X36540890Y-52315952D02*
X36588509Y-52268333D01*
X36588509Y-52268333D02*
X36683747Y-52220714D01*
X36445652Y-53649285D02*
X37112319Y-53649285D01*
X36064700Y-53411190D02*
X36778985Y-53173095D01*
X36778985Y-53173095D02*
X36778985Y-53792142D01*
X52804819Y-178938096D02*
X53614342Y-178938096D01*
X53614342Y-178938096D02*
X53709580Y-178985715D01*
X53709580Y-178985715D02*
X53757200Y-179033334D01*
X53757200Y-179033334D02*
X53804819Y-179128572D01*
X53804819Y-179128572D02*
X53804819Y-179319048D01*
X53804819Y-179319048D02*
X53757200Y-179414286D01*
X53757200Y-179414286D02*
X53709580Y-179461905D01*
X53709580Y-179461905D02*
X53614342Y-179509524D01*
X53614342Y-179509524D02*
X52804819Y-179509524D01*
X52804819Y-180461905D02*
X52804819Y-179985715D01*
X52804819Y-179985715D02*
X53281009Y-179938096D01*
X53281009Y-179938096D02*
X53233390Y-179985715D01*
X53233390Y-179985715D02*
X53185771Y-180080953D01*
X53185771Y-180080953D02*
X53185771Y-180319048D01*
X53185771Y-180319048D02*
X53233390Y-180414286D01*
X53233390Y-180414286D02*
X53281009Y-180461905D01*
X53281009Y-180461905D02*
X53376247Y-180509524D01*
X53376247Y-180509524D02*
X53614342Y-180509524D01*
X53614342Y-180509524D02*
X53709580Y-180461905D01*
X53709580Y-180461905D02*
X53757200Y-180414286D01*
X53757200Y-180414286D02*
X53804819Y-180319048D01*
X53804819Y-180319048D02*
X53804819Y-180080953D01*
X53804819Y-180080953D02*
X53757200Y-179985715D01*
X53757200Y-179985715D02*
X53709580Y-179938096D01*
X100804819Y-178938096D02*
X101614342Y-178938096D01*
X101614342Y-178938096D02*
X101709580Y-178985715D01*
X101709580Y-178985715D02*
X101757200Y-179033334D01*
X101757200Y-179033334D02*
X101804819Y-179128572D01*
X101804819Y-179128572D02*
X101804819Y-179319048D01*
X101804819Y-179319048D02*
X101757200Y-179414286D01*
X101757200Y-179414286D02*
X101709580Y-179461905D01*
X101709580Y-179461905D02*
X101614342Y-179509524D01*
X101614342Y-179509524D02*
X100804819Y-179509524D01*
X101138152Y-180414286D02*
X101804819Y-180414286D01*
X100757200Y-180176191D02*
X101471485Y-179938096D01*
X101471485Y-179938096D02*
X101471485Y-180557143D01*
X52804819Y-203938096D02*
X53614342Y-203938096D01*
X53614342Y-203938096D02*
X53709580Y-203985715D01*
X53709580Y-203985715D02*
X53757200Y-204033334D01*
X53757200Y-204033334D02*
X53804819Y-204128572D01*
X53804819Y-204128572D02*
X53804819Y-204319048D01*
X53804819Y-204319048D02*
X53757200Y-204414286D01*
X53757200Y-204414286D02*
X53709580Y-204461905D01*
X53709580Y-204461905D02*
X53614342Y-204509524D01*
X53614342Y-204509524D02*
X52804819Y-204509524D01*
X52804819Y-204890477D02*
X52804819Y-205509524D01*
X52804819Y-205509524D02*
X53185771Y-205176191D01*
X53185771Y-205176191D02*
X53185771Y-205319048D01*
X53185771Y-205319048D02*
X53233390Y-205414286D01*
X53233390Y-205414286D02*
X53281009Y-205461905D01*
X53281009Y-205461905D02*
X53376247Y-205509524D01*
X53376247Y-205509524D02*
X53614342Y-205509524D01*
X53614342Y-205509524D02*
X53709580Y-205461905D01*
X53709580Y-205461905D02*
X53757200Y-205414286D01*
X53757200Y-205414286D02*
X53804819Y-205319048D01*
X53804819Y-205319048D02*
X53804819Y-205033334D01*
X53804819Y-205033334D02*
X53757200Y-204938096D01*
X53757200Y-204938096D02*
X53709580Y-204890477D01*
X100804819Y-203938096D02*
X101614342Y-203938096D01*
X101614342Y-203938096D02*
X101709580Y-203985715D01*
X101709580Y-203985715D02*
X101757200Y-204033334D01*
X101757200Y-204033334D02*
X101804819Y-204128572D01*
X101804819Y-204128572D02*
X101804819Y-204319048D01*
X101804819Y-204319048D02*
X101757200Y-204414286D01*
X101757200Y-204414286D02*
X101709580Y-204461905D01*
X101709580Y-204461905D02*
X101614342Y-204509524D01*
X101614342Y-204509524D02*
X100804819Y-204509524D01*
X100900057Y-204938096D02*
X100852438Y-204985715D01*
X100852438Y-204985715D02*
X100804819Y-205080953D01*
X100804819Y-205080953D02*
X100804819Y-205319048D01*
X100804819Y-205319048D02*
X100852438Y-205414286D01*
X100852438Y-205414286D02*
X100900057Y-205461905D01*
X100900057Y-205461905D02*
X100995295Y-205509524D01*
X100995295Y-205509524D02*
X101090533Y-205509524D01*
X101090533Y-205509524D02*
X101233390Y-205461905D01*
X101233390Y-205461905D02*
X101804819Y-204890477D01*
X101804819Y-204890477D02*
X101804819Y-205509524D01*
X34154819Y-188759524D02*
X33678628Y-188426191D01*
X34154819Y-188188096D02*
X33154819Y-188188096D01*
X33154819Y-188188096D02*
X33154819Y-188569048D01*
X33154819Y-188569048D02*
X33202438Y-188664286D01*
X33202438Y-188664286D02*
X33250057Y-188711905D01*
X33250057Y-188711905D02*
X33345295Y-188759524D01*
X33345295Y-188759524D02*
X33488152Y-188759524D01*
X33488152Y-188759524D02*
X33583390Y-188711905D01*
X33583390Y-188711905D02*
X33631009Y-188664286D01*
X33631009Y-188664286D02*
X33678628Y-188569048D01*
X33678628Y-188569048D02*
X33678628Y-188188096D01*
X34154819Y-189188096D02*
X33154819Y-189188096D01*
X33154819Y-189188096D02*
X34154819Y-189759524D01*
X34154819Y-189759524D02*
X33154819Y-189759524D01*
X33583390Y-190378572D02*
X33535771Y-190283334D01*
X33535771Y-190283334D02*
X33488152Y-190235715D01*
X33488152Y-190235715D02*
X33392914Y-190188096D01*
X33392914Y-190188096D02*
X33345295Y-190188096D01*
X33345295Y-190188096D02*
X33250057Y-190235715D01*
X33250057Y-190235715D02*
X33202438Y-190283334D01*
X33202438Y-190283334D02*
X33154819Y-190378572D01*
X33154819Y-190378572D02*
X33154819Y-190569048D01*
X33154819Y-190569048D02*
X33202438Y-190664286D01*
X33202438Y-190664286D02*
X33250057Y-190711905D01*
X33250057Y-190711905D02*
X33345295Y-190759524D01*
X33345295Y-190759524D02*
X33392914Y-190759524D01*
X33392914Y-190759524D02*
X33488152Y-190711905D01*
X33488152Y-190711905D02*
X33535771Y-190664286D01*
X33535771Y-190664286D02*
X33583390Y-190569048D01*
X33583390Y-190569048D02*
X33583390Y-190378572D01*
X33583390Y-190378572D02*
X33631009Y-190283334D01*
X33631009Y-190283334D02*
X33678628Y-190235715D01*
X33678628Y-190235715D02*
X33773866Y-190188096D01*
X33773866Y-190188096D02*
X33964342Y-190188096D01*
X33964342Y-190188096D02*
X34059580Y-190235715D01*
X34059580Y-190235715D02*
X34107200Y-190283334D01*
X34107200Y-190283334D02*
X34154819Y-190378572D01*
X34154819Y-190378572D02*
X34154819Y-190569048D01*
X34154819Y-190569048D02*
X34107200Y-190664286D01*
X34107200Y-190664286D02*
X34059580Y-190711905D01*
X34059580Y-190711905D02*
X33964342Y-190759524D01*
X33964342Y-190759524D02*
X33773866Y-190759524D01*
X33773866Y-190759524D02*
X33678628Y-190711905D01*
X33678628Y-190711905D02*
X33631009Y-190664286D01*
X33631009Y-190664286D02*
X33583390Y-190569048D01*
X58154819Y-188759524D02*
X57678628Y-188426191D01*
X58154819Y-188188096D02*
X57154819Y-188188096D01*
X57154819Y-188188096D02*
X57154819Y-188569048D01*
X57154819Y-188569048D02*
X57202438Y-188664286D01*
X57202438Y-188664286D02*
X57250057Y-188711905D01*
X57250057Y-188711905D02*
X57345295Y-188759524D01*
X57345295Y-188759524D02*
X57488152Y-188759524D01*
X57488152Y-188759524D02*
X57583390Y-188711905D01*
X57583390Y-188711905D02*
X57631009Y-188664286D01*
X57631009Y-188664286D02*
X57678628Y-188569048D01*
X57678628Y-188569048D02*
X57678628Y-188188096D01*
X58154819Y-189188096D02*
X57154819Y-189188096D01*
X57154819Y-189188096D02*
X58154819Y-189759524D01*
X58154819Y-189759524D02*
X57154819Y-189759524D01*
X57154819Y-190140477D02*
X57154819Y-190807143D01*
X57154819Y-190807143D02*
X58154819Y-190378572D01*
X82154819Y-188759524D02*
X81678628Y-188426191D01*
X82154819Y-188188096D02*
X81154819Y-188188096D01*
X81154819Y-188188096D02*
X81154819Y-188569048D01*
X81154819Y-188569048D02*
X81202438Y-188664286D01*
X81202438Y-188664286D02*
X81250057Y-188711905D01*
X81250057Y-188711905D02*
X81345295Y-188759524D01*
X81345295Y-188759524D02*
X81488152Y-188759524D01*
X81488152Y-188759524D02*
X81583390Y-188711905D01*
X81583390Y-188711905D02*
X81631009Y-188664286D01*
X81631009Y-188664286D02*
X81678628Y-188569048D01*
X81678628Y-188569048D02*
X81678628Y-188188096D01*
X82154819Y-189188096D02*
X81154819Y-189188096D01*
X81154819Y-189188096D02*
X82154819Y-189759524D01*
X82154819Y-189759524D02*
X81154819Y-189759524D01*
X81154819Y-190664286D02*
X81154819Y-190473810D01*
X81154819Y-190473810D02*
X81202438Y-190378572D01*
X81202438Y-190378572D02*
X81250057Y-190330953D01*
X81250057Y-190330953D02*
X81392914Y-190235715D01*
X81392914Y-190235715D02*
X81583390Y-190188096D01*
X81583390Y-190188096D02*
X81964342Y-190188096D01*
X81964342Y-190188096D02*
X82059580Y-190235715D01*
X82059580Y-190235715D02*
X82107200Y-190283334D01*
X82107200Y-190283334D02*
X82154819Y-190378572D01*
X82154819Y-190378572D02*
X82154819Y-190569048D01*
X82154819Y-190569048D02*
X82107200Y-190664286D01*
X82107200Y-190664286D02*
X82059580Y-190711905D01*
X82059580Y-190711905D02*
X81964342Y-190759524D01*
X81964342Y-190759524D02*
X81726247Y-190759524D01*
X81726247Y-190759524D02*
X81631009Y-190711905D01*
X81631009Y-190711905D02*
X81583390Y-190664286D01*
X81583390Y-190664286D02*
X81535771Y-190569048D01*
X81535771Y-190569048D02*
X81535771Y-190378572D01*
X81535771Y-190378572D02*
X81583390Y-190283334D01*
X81583390Y-190283334D02*
X81631009Y-190235715D01*
X81631009Y-190235715D02*
X81726247Y-190188096D01*
X106154819Y-188759524D02*
X105678628Y-188426191D01*
X106154819Y-188188096D02*
X105154819Y-188188096D01*
X105154819Y-188188096D02*
X105154819Y-188569048D01*
X105154819Y-188569048D02*
X105202438Y-188664286D01*
X105202438Y-188664286D02*
X105250057Y-188711905D01*
X105250057Y-188711905D02*
X105345295Y-188759524D01*
X105345295Y-188759524D02*
X105488152Y-188759524D01*
X105488152Y-188759524D02*
X105583390Y-188711905D01*
X105583390Y-188711905D02*
X105631009Y-188664286D01*
X105631009Y-188664286D02*
X105678628Y-188569048D01*
X105678628Y-188569048D02*
X105678628Y-188188096D01*
X106154819Y-189188096D02*
X105154819Y-189188096D01*
X105154819Y-189188096D02*
X106154819Y-189759524D01*
X106154819Y-189759524D02*
X105154819Y-189759524D01*
X105154819Y-190711905D02*
X105154819Y-190235715D01*
X105154819Y-190235715D02*
X105631009Y-190188096D01*
X105631009Y-190188096D02*
X105583390Y-190235715D01*
X105583390Y-190235715D02*
X105535771Y-190330953D01*
X105535771Y-190330953D02*
X105535771Y-190569048D01*
X105535771Y-190569048D02*
X105583390Y-190664286D01*
X105583390Y-190664286D02*
X105631009Y-190711905D01*
X105631009Y-190711905D02*
X105726247Y-190759524D01*
X105726247Y-190759524D02*
X105964342Y-190759524D01*
X105964342Y-190759524D02*
X106059580Y-190711905D01*
X106059580Y-190711905D02*
X106107200Y-190664286D01*
X106107200Y-190664286D02*
X106154819Y-190569048D01*
X106154819Y-190569048D02*
X106154819Y-190330953D01*
X106154819Y-190330953D02*
X106107200Y-190235715D01*
X106107200Y-190235715D02*
X106059580Y-190188096D01*
X34154819Y-213759524D02*
X33678628Y-213426191D01*
X34154819Y-213188096D02*
X33154819Y-213188096D01*
X33154819Y-213188096D02*
X33154819Y-213569048D01*
X33154819Y-213569048D02*
X33202438Y-213664286D01*
X33202438Y-213664286D02*
X33250057Y-213711905D01*
X33250057Y-213711905D02*
X33345295Y-213759524D01*
X33345295Y-213759524D02*
X33488152Y-213759524D01*
X33488152Y-213759524D02*
X33583390Y-213711905D01*
X33583390Y-213711905D02*
X33631009Y-213664286D01*
X33631009Y-213664286D02*
X33678628Y-213569048D01*
X33678628Y-213569048D02*
X33678628Y-213188096D01*
X34154819Y-214188096D02*
X33154819Y-214188096D01*
X33154819Y-214188096D02*
X34154819Y-214759524D01*
X34154819Y-214759524D02*
X33154819Y-214759524D01*
X33488152Y-215664286D02*
X34154819Y-215664286D01*
X33107200Y-215426191D02*
X33821485Y-215188096D01*
X33821485Y-215188096D02*
X33821485Y-215807143D01*
X58154819Y-213759524D02*
X57678628Y-213426191D01*
X58154819Y-213188096D02*
X57154819Y-213188096D01*
X57154819Y-213188096D02*
X57154819Y-213569048D01*
X57154819Y-213569048D02*
X57202438Y-213664286D01*
X57202438Y-213664286D02*
X57250057Y-213711905D01*
X57250057Y-213711905D02*
X57345295Y-213759524D01*
X57345295Y-213759524D02*
X57488152Y-213759524D01*
X57488152Y-213759524D02*
X57583390Y-213711905D01*
X57583390Y-213711905D02*
X57631009Y-213664286D01*
X57631009Y-213664286D02*
X57678628Y-213569048D01*
X57678628Y-213569048D02*
X57678628Y-213188096D01*
X58154819Y-214188096D02*
X57154819Y-214188096D01*
X57154819Y-214188096D02*
X58154819Y-214759524D01*
X58154819Y-214759524D02*
X57154819Y-214759524D01*
X57154819Y-215140477D02*
X57154819Y-215759524D01*
X57154819Y-215759524D02*
X57535771Y-215426191D01*
X57535771Y-215426191D02*
X57535771Y-215569048D01*
X57535771Y-215569048D02*
X57583390Y-215664286D01*
X57583390Y-215664286D02*
X57631009Y-215711905D01*
X57631009Y-215711905D02*
X57726247Y-215759524D01*
X57726247Y-215759524D02*
X57964342Y-215759524D01*
X57964342Y-215759524D02*
X58059580Y-215711905D01*
X58059580Y-215711905D02*
X58107200Y-215664286D01*
X58107200Y-215664286D02*
X58154819Y-215569048D01*
X58154819Y-215569048D02*
X58154819Y-215283334D01*
X58154819Y-215283334D02*
X58107200Y-215188096D01*
X58107200Y-215188096D02*
X58059580Y-215140477D01*
X82154819Y-213759524D02*
X81678628Y-213426191D01*
X82154819Y-213188096D02*
X81154819Y-213188096D01*
X81154819Y-213188096D02*
X81154819Y-213569048D01*
X81154819Y-213569048D02*
X81202438Y-213664286D01*
X81202438Y-213664286D02*
X81250057Y-213711905D01*
X81250057Y-213711905D02*
X81345295Y-213759524D01*
X81345295Y-213759524D02*
X81488152Y-213759524D01*
X81488152Y-213759524D02*
X81583390Y-213711905D01*
X81583390Y-213711905D02*
X81631009Y-213664286D01*
X81631009Y-213664286D02*
X81678628Y-213569048D01*
X81678628Y-213569048D02*
X81678628Y-213188096D01*
X82154819Y-214188096D02*
X81154819Y-214188096D01*
X81154819Y-214188096D02*
X82154819Y-214759524D01*
X82154819Y-214759524D02*
X81154819Y-214759524D01*
X81250057Y-215188096D02*
X81202438Y-215235715D01*
X81202438Y-215235715D02*
X81154819Y-215330953D01*
X81154819Y-215330953D02*
X81154819Y-215569048D01*
X81154819Y-215569048D02*
X81202438Y-215664286D01*
X81202438Y-215664286D02*
X81250057Y-215711905D01*
X81250057Y-215711905D02*
X81345295Y-215759524D01*
X81345295Y-215759524D02*
X81440533Y-215759524D01*
X81440533Y-215759524D02*
X81583390Y-215711905D01*
X81583390Y-215711905D02*
X82154819Y-215140477D01*
X82154819Y-215140477D02*
X82154819Y-215759524D01*
X106154819Y-213759524D02*
X105678628Y-213426191D01*
X106154819Y-213188096D02*
X105154819Y-213188096D01*
X105154819Y-213188096D02*
X105154819Y-213569048D01*
X105154819Y-213569048D02*
X105202438Y-213664286D01*
X105202438Y-213664286D02*
X105250057Y-213711905D01*
X105250057Y-213711905D02*
X105345295Y-213759524D01*
X105345295Y-213759524D02*
X105488152Y-213759524D01*
X105488152Y-213759524D02*
X105583390Y-213711905D01*
X105583390Y-213711905D02*
X105631009Y-213664286D01*
X105631009Y-213664286D02*
X105678628Y-213569048D01*
X105678628Y-213569048D02*
X105678628Y-213188096D01*
X106154819Y-214188096D02*
X105154819Y-214188096D01*
X105154819Y-214188096D02*
X106154819Y-214759524D01*
X106154819Y-214759524D02*
X105154819Y-214759524D01*
X106154819Y-215759524D02*
X106154819Y-215188096D01*
X106154819Y-215473810D02*
X105154819Y-215473810D01*
X105154819Y-215473810D02*
X105297676Y-215378572D01*
X105297676Y-215378572D02*
X105392914Y-215283334D01*
X105392914Y-215283334D02*
X105440533Y-215188096D01*
X54917857Y-178739582D02*
X54965476Y-178787202D01*
X54965476Y-178787202D02*
X55108333Y-178834821D01*
X55108333Y-178834821D02*
X55203571Y-178834821D01*
X55203571Y-178834821D02*
X55346428Y-178787202D01*
X55346428Y-178787202D02*
X55441666Y-178691963D01*
X55441666Y-178691963D02*
X55489285Y-178596725D01*
X55489285Y-178596725D02*
X55536904Y-178406249D01*
X55536904Y-178406249D02*
X55536904Y-178263392D01*
X55536904Y-178263392D02*
X55489285Y-178072916D01*
X55489285Y-178072916D02*
X55441666Y-177977678D01*
X55441666Y-177977678D02*
X55346428Y-177882440D01*
X55346428Y-177882440D02*
X55203571Y-177834821D01*
X55203571Y-177834821D02*
X55108333Y-177834821D01*
X55108333Y-177834821D02*
X54965476Y-177882440D01*
X54965476Y-177882440D02*
X54917857Y-177930059D01*
X54536904Y-177930059D02*
X54489285Y-177882440D01*
X54489285Y-177882440D02*
X54394047Y-177834821D01*
X54394047Y-177834821D02*
X54155952Y-177834821D01*
X54155952Y-177834821D02*
X54060714Y-177882440D01*
X54060714Y-177882440D02*
X54013095Y-177930059D01*
X54013095Y-177930059D02*
X53965476Y-178025297D01*
X53965476Y-178025297D02*
X53965476Y-178120535D01*
X53965476Y-178120535D02*
X54013095Y-178263392D01*
X54013095Y-178263392D02*
X54584523Y-178834821D01*
X54584523Y-178834821D02*
X53965476Y-178834821D01*
X53489285Y-178834821D02*
X53298809Y-178834821D01*
X53298809Y-178834821D02*
X53203571Y-178787202D01*
X53203571Y-178787202D02*
X53155952Y-178739582D01*
X53155952Y-178739582D02*
X53060714Y-178596725D01*
X53060714Y-178596725D02*
X53013095Y-178406249D01*
X53013095Y-178406249D02*
X53013095Y-178025297D01*
X53013095Y-178025297D02*
X53060714Y-177930059D01*
X53060714Y-177930059D02*
X53108333Y-177882440D01*
X53108333Y-177882440D02*
X53203571Y-177834821D01*
X53203571Y-177834821D02*
X53394047Y-177834821D01*
X53394047Y-177834821D02*
X53489285Y-177882440D01*
X53489285Y-177882440D02*
X53536904Y-177930059D01*
X53536904Y-177930059D02*
X53584523Y-178025297D01*
X53584523Y-178025297D02*
X53584523Y-178263392D01*
X53584523Y-178263392D02*
X53536904Y-178358630D01*
X53536904Y-178358630D02*
X53489285Y-178406249D01*
X53489285Y-178406249D02*
X53394047Y-178453868D01*
X53394047Y-178453868D02*
X53203571Y-178453868D01*
X53203571Y-178453868D02*
X53108333Y-178406249D01*
X53108333Y-178406249D02*
X53060714Y-178358630D01*
X53060714Y-178358630D02*
X53013095Y-178263392D01*
X102917857Y-178739582D02*
X102965476Y-178787202D01*
X102965476Y-178787202D02*
X103108333Y-178834821D01*
X103108333Y-178834821D02*
X103203571Y-178834821D01*
X103203571Y-178834821D02*
X103346428Y-178787202D01*
X103346428Y-178787202D02*
X103441666Y-178691963D01*
X103441666Y-178691963D02*
X103489285Y-178596725D01*
X103489285Y-178596725D02*
X103536904Y-178406249D01*
X103536904Y-178406249D02*
X103536904Y-178263392D01*
X103536904Y-178263392D02*
X103489285Y-178072916D01*
X103489285Y-178072916D02*
X103441666Y-177977678D01*
X103441666Y-177977678D02*
X103346428Y-177882440D01*
X103346428Y-177882440D02*
X103203571Y-177834821D01*
X103203571Y-177834821D02*
X103108333Y-177834821D01*
X103108333Y-177834821D02*
X102965476Y-177882440D01*
X102965476Y-177882440D02*
X102917857Y-177930059D01*
X102536904Y-177930059D02*
X102489285Y-177882440D01*
X102489285Y-177882440D02*
X102394047Y-177834821D01*
X102394047Y-177834821D02*
X102155952Y-177834821D01*
X102155952Y-177834821D02*
X102060714Y-177882440D01*
X102060714Y-177882440D02*
X102013095Y-177930059D01*
X102013095Y-177930059D02*
X101965476Y-178025297D01*
X101965476Y-178025297D02*
X101965476Y-178120535D01*
X101965476Y-178120535D02*
X102013095Y-178263392D01*
X102013095Y-178263392D02*
X102584523Y-178834821D01*
X102584523Y-178834821D02*
X101965476Y-178834821D01*
X101346428Y-177834821D02*
X101251190Y-177834821D01*
X101251190Y-177834821D02*
X101155952Y-177882440D01*
X101155952Y-177882440D02*
X101108333Y-177930059D01*
X101108333Y-177930059D02*
X101060714Y-178025297D01*
X101060714Y-178025297D02*
X101013095Y-178215773D01*
X101013095Y-178215773D02*
X101013095Y-178453868D01*
X101013095Y-178453868D02*
X101060714Y-178644344D01*
X101060714Y-178644344D02*
X101108333Y-178739582D01*
X101108333Y-178739582D02*
X101155952Y-178787202D01*
X101155952Y-178787202D02*
X101251190Y-178834821D01*
X101251190Y-178834821D02*
X101346428Y-178834821D01*
X101346428Y-178834821D02*
X101441666Y-178787202D01*
X101441666Y-178787202D02*
X101489285Y-178739582D01*
X101489285Y-178739582D02*
X101536904Y-178644344D01*
X101536904Y-178644344D02*
X101584523Y-178453868D01*
X101584523Y-178453868D02*
X101584523Y-178215773D01*
X101584523Y-178215773D02*
X101536904Y-178025297D01*
X101536904Y-178025297D02*
X101489285Y-177930059D01*
X101489285Y-177930059D02*
X101441666Y-177882440D01*
X101441666Y-177882440D02*
X101346428Y-177834821D01*
X54917857Y-203739582D02*
X54965476Y-203787202D01*
X54965476Y-203787202D02*
X55108333Y-203834821D01*
X55108333Y-203834821D02*
X55203571Y-203834821D01*
X55203571Y-203834821D02*
X55346428Y-203787202D01*
X55346428Y-203787202D02*
X55441666Y-203691963D01*
X55441666Y-203691963D02*
X55489285Y-203596725D01*
X55489285Y-203596725D02*
X55536904Y-203406249D01*
X55536904Y-203406249D02*
X55536904Y-203263392D01*
X55536904Y-203263392D02*
X55489285Y-203072916D01*
X55489285Y-203072916D02*
X55441666Y-202977678D01*
X55441666Y-202977678D02*
X55346428Y-202882440D01*
X55346428Y-202882440D02*
X55203571Y-202834821D01*
X55203571Y-202834821D02*
X55108333Y-202834821D01*
X55108333Y-202834821D02*
X54965476Y-202882440D01*
X54965476Y-202882440D02*
X54917857Y-202930059D01*
X53965476Y-203834821D02*
X54536904Y-203834821D01*
X54251190Y-203834821D02*
X54251190Y-202834821D01*
X54251190Y-202834821D02*
X54346428Y-202977678D01*
X54346428Y-202977678D02*
X54441666Y-203072916D01*
X54441666Y-203072916D02*
X54536904Y-203120535D01*
X53013095Y-203834821D02*
X53584523Y-203834821D01*
X53298809Y-203834821D02*
X53298809Y-202834821D01*
X53298809Y-202834821D02*
X53394047Y-202977678D01*
X53394047Y-202977678D02*
X53489285Y-203072916D01*
X53489285Y-203072916D02*
X53584523Y-203120535D01*
X102441666Y-203739581D02*
X102489285Y-203787201D01*
X102489285Y-203787201D02*
X102632142Y-203834820D01*
X102632142Y-203834820D02*
X102727380Y-203834820D01*
X102727380Y-203834820D02*
X102870237Y-203787201D01*
X102870237Y-203787201D02*
X102965475Y-203691962D01*
X102965475Y-203691962D02*
X103013094Y-203596724D01*
X103013094Y-203596724D02*
X103060713Y-203406248D01*
X103060713Y-203406248D02*
X103060713Y-203263391D01*
X103060713Y-203263391D02*
X103013094Y-203072915D01*
X103013094Y-203072915D02*
X102965475Y-202977677D01*
X102965475Y-202977677D02*
X102870237Y-202882439D01*
X102870237Y-202882439D02*
X102727380Y-202834820D01*
X102727380Y-202834820D02*
X102632142Y-202834820D01*
X102632142Y-202834820D02*
X102489285Y-202882439D01*
X102489285Y-202882439D02*
X102441666Y-202930058D01*
X102060713Y-202930058D02*
X102013094Y-202882439D01*
X102013094Y-202882439D02*
X101917856Y-202834820D01*
X101917856Y-202834820D02*
X101679761Y-202834820D01*
X101679761Y-202834820D02*
X101584523Y-202882439D01*
X101584523Y-202882439D02*
X101536904Y-202930058D01*
X101536904Y-202930058D02*
X101489285Y-203025296D01*
X101489285Y-203025296D02*
X101489285Y-203120534D01*
X101489285Y-203120534D02*
X101536904Y-203263391D01*
X101536904Y-203263391D02*
X102108332Y-203834820D01*
X102108332Y-203834820D02*
X101489285Y-203834820D01*
X76333332Y-35782200D02*
X76190475Y-35829819D01*
X76190475Y-35829819D02*
X75952380Y-35829819D01*
X75952380Y-35829819D02*
X75857142Y-35782200D01*
X75857142Y-35782200D02*
X75809523Y-35734580D01*
X75809523Y-35734580D02*
X75761904Y-35639342D01*
X75761904Y-35639342D02*
X75761904Y-35544104D01*
X75761904Y-35544104D02*
X75809523Y-35448866D01*
X75809523Y-35448866D02*
X75857142Y-35401247D01*
X75857142Y-35401247D02*
X75952380Y-35353628D01*
X75952380Y-35353628D02*
X76142856Y-35306009D01*
X76142856Y-35306009D02*
X76238094Y-35258390D01*
X76238094Y-35258390D02*
X76285713Y-35210771D01*
X76285713Y-35210771D02*
X76333332Y-35115533D01*
X76333332Y-35115533D02*
X76333332Y-35020295D01*
X76333332Y-35020295D02*
X76285713Y-34925057D01*
X76285713Y-34925057D02*
X76238094Y-34877438D01*
X76238094Y-34877438D02*
X76142856Y-34829819D01*
X76142856Y-34829819D02*
X75904761Y-34829819D01*
X75904761Y-34829819D02*
X75761904Y-34877438D01*
X75428570Y-34829819D02*
X75190475Y-35829819D01*
X75190475Y-35829819D02*
X74999999Y-35115533D01*
X74999999Y-35115533D02*
X74809523Y-35829819D01*
X74809523Y-35829819D02*
X74571428Y-34829819D01*
X73666666Y-35829819D02*
X74238094Y-35829819D01*
X73952380Y-35829819D02*
X73952380Y-34829819D01*
X73952380Y-34829819D02*
X74047618Y-34972676D01*
X74047618Y-34972676D02*
X74142856Y-35067914D01*
X74142856Y-35067914D02*
X74238094Y-35115533D01*
X69333333Y-34374819D02*
X69333333Y-35089104D01*
X69333333Y-35089104D02*
X69380952Y-35231961D01*
X69380952Y-35231961D02*
X69476190Y-35327200D01*
X69476190Y-35327200D02*
X69619047Y-35374819D01*
X69619047Y-35374819D02*
X69714285Y-35374819D01*
X68333333Y-35374819D02*
X68904761Y-35374819D01*
X68619047Y-35374819D02*
X68619047Y-34374819D01*
X68619047Y-34374819D02*
X68714285Y-34517676D01*
X68714285Y-34517676D02*
X68809523Y-34612914D01*
X68809523Y-34612914D02*
X68904761Y-34660533D01*
X39385714Y-22681009D02*
X39242857Y-22728628D01*
X39242857Y-22728628D02*
X39195238Y-22776247D01*
X39195238Y-22776247D02*
X39147619Y-22871485D01*
X39147619Y-22871485D02*
X39147619Y-23014342D01*
X39147619Y-23014342D02*
X39195238Y-23109580D01*
X39195238Y-23109580D02*
X39242857Y-23157200D01*
X39242857Y-23157200D02*
X39338095Y-23204819D01*
X39338095Y-23204819D02*
X39719047Y-23204819D01*
X39719047Y-23204819D02*
X39719047Y-22204819D01*
X39719047Y-22204819D02*
X39385714Y-22204819D01*
X39385714Y-22204819D02*
X39290476Y-22252438D01*
X39290476Y-22252438D02*
X39242857Y-22300057D01*
X39242857Y-22300057D02*
X39195238Y-22395295D01*
X39195238Y-22395295D02*
X39195238Y-22490533D01*
X39195238Y-22490533D02*
X39242857Y-22585771D01*
X39242857Y-22585771D02*
X39290476Y-22633390D01*
X39290476Y-22633390D02*
X39385714Y-22681009D01*
X39385714Y-22681009D02*
X39719047Y-22681009D01*
X38861904Y-22204819D02*
X38290476Y-22204819D01*
X38576190Y-23204819D02*
X38576190Y-22204819D01*
X37433333Y-23204819D02*
X38004761Y-23204819D01*
X37719047Y-23204819D02*
X37719047Y-22204819D01*
X37719047Y-22204819D02*
X37814285Y-22347676D01*
X37814285Y-22347676D02*
X37909523Y-22442914D01*
X37909523Y-22442914D02*
X38004761Y-22490533D01*
D11*
%TO.C,SW64*%
X31907500Y-54685000D02*
X33907500Y-54685000D01*
X35657500Y-53235000D02*
X35207500Y-53685000D01*
X30157500Y-53235000D02*
X30607500Y-53685000D01*
X35657500Y-50635000D02*
X35657500Y-53235000D01*
X30157500Y-50635000D02*
X30157500Y-53235000D01*
X35657500Y-50635000D02*
X35207500Y-50185000D01*
X30157500Y-50635000D02*
X30607500Y-50185000D01*
X31907500Y-49185000D02*
X33907500Y-49185000D01*
%TO.C,U5*%
X52315000Y-183890001D02*
X51835000Y-183890001D01*
X52075000Y-183560001D01*
X52315000Y-183890001D01*
G36*
X52315000Y-183890001D02*
G01*
X51835000Y-183890001D01*
X52075000Y-183560001D01*
X52315000Y-183890001D01*
G37*
X44465000Y-177500001D02*
X44465000Y-179700001D01*
X44465000Y-181900001D02*
X44465000Y-179700001D01*
X52535000Y-177500001D02*
X52535000Y-179700001D01*
X52535000Y-181900001D02*
X52535000Y-179700001D01*
%TO.C,U4*%
X100315000Y-183890001D02*
X99835000Y-183890001D01*
X100075000Y-183560001D01*
X100315000Y-183890001D01*
G36*
X100315000Y-183890001D02*
G01*
X99835000Y-183890001D01*
X100075000Y-183560001D01*
X100315000Y-183890001D01*
G37*
X92465000Y-177500001D02*
X92465000Y-179700001D01*
X92465000Y-181900001D02*
X92465000Y-179700001D01*
X100535000Y-177500001D02*
X100535000Y-179700001D01*
X100535000Y-181900001D02*
X100535000Y-179700001D01*
%TO.C,U3*%
X52315000Y-208890001D02*
X51835000Y-208890001D01*
X52075000Y-208560001D01*
X52315000Y-208890001D01*
G36*
X52315000Y-208890001D02*
G01*
X51835000Y-208890001D01*
X52075000Y-208560001D01*
X52315000Y-208890001D01*
G37*
X44465000Y-202500001D02*
X44465000Y-204700001D01*
X44465000Y-206900001D02*
X44465000Y-204700001D01*
X52535000Y-202500001D02*
X52535000Y-204700001D01*
X52535000Y-206900001D02*
X52535000Y-204700001D01*
%TO.C,U2*%
X100315000Y-208890001D02*
X99835000Y-208890001D01*
X100075000Y-208560001D01*
X100315000Y-208890001D01*
G36*
X100315000Y-208890001D02*
G01*
X99835000Y-208890001D01*
X100075000Y-208560001D01*
X100315000Y-208890001D01*
G37*
X92465000Y-202500001D02*
X92465000Y-204700001D01*
X92465000Y-206900001D02*
X92465000Y-204700001D01*
X100535000Y-202500001D02*
X100535000Y-204700001D01*
X100535000Y-206900001D02*
X100535000Y-204700001D01*
%TO.C,RN8*%
X38180000Y-188950001D02*
X38180000Y-189950001D01*
X34820000Y-188950001D02*
X34820000Y-189950001D01*
%TO.C,RN7*%
X62180000Y-188950001D02*
X62180000Y-189950001D01*
X58820000Y-188950001D02*
X58820000Y-189950001D01*
%TO.C,RN6*%
X86180000Y-188950001D02*
X86180000Y-189950001D01*
X82820000Y-188950001D02*
X82820000Y-189950001D01*
%TO.C,RN5*%
X110180000Y-188950001D02*
X110180000Y-189950001D01*
X106820000Y-188950001D02*
X106820000Y-189950001D01*
%TO.C,RN4*%
X38180000Y-213950001D02*
X38180000Y-214950001D01*
X34820000Y-213950001D02*
X34820000Y-214950001D01*
%TO.C,RN3*%
X62180000Y-213950001D02*
X62180000Y-214950001D01*
X58820000Y-213950001D02*
X58820000Y-214950001D01*
%TO.C,RN2*%
X86180000Y-213950001D02*
X86180000Y-214950001D01*
X82820000Y-213950001D02*
X82820000Y-214950001D01*
%TO.C,RN1*%
X110180000Y-213950001D02*
X110180000Y-214950001D01*
X106820000Y-213950001D02*
X106820000Y-214950001D01*
%TO.C,C29*%
X54415580Y-176440002D02*
X54134420Y-176440002D01*
X54415580Y-177460002D02*
X54134420Y-177460002D01*
%TO.C,C20*%
X102415580Y-176440002D02*
X102134420Y-176440002D01*
X102415580Y-177460002D02*
X102134420Y-177460002D01*
%TO.C,C11*%
X54415580Y-201440002D02*
X54134420Y-201440002D01*
X54415580Y-202460002D02*
X54134420Y-202460002D01*
%TO.C,C2*%
X102415580Y-201440001D02*
X102134420Y-201440001D01*
X102415580Y-202460001D02*
X102134420Y-202460001D01*
%TO.C,SW1*%
X77750000Y-40125000D02*
X77750000Y-38125000D01*
X76300000Y-36375000D02*
X76750000Y-36825000D01*
X76300000Y-41875000D02*
X76750000Y-41425000D01*
X73700000Y-36375000D02*
X76300000Y-36375000D01*
X73700000Y-41875000D02*
X76300000Y-41875000D01*
X73700000Y-36375000D02*
X73250000Y-36825000D01*
X73700000Y-41875000D02*
X73250000Y-41425000D01*
X72250000Y-40125000D02*
X72250000Y-38125000D01*
%TO.C,J1*%
X67670000Y-48740000D02*
X67670000Y-38520000D01*
X67670000Y-48740000D02*
X70330000Y-48740000D01*
X67670000Y-38520000D02*
X70330000Y-38520000D01*
X70330000Y-48740000D02*
X70330000Y-38520000D01*
X70330000Y-35920000D02*
X70330000Y-37250000D01*
X69000000Y-35920000D02*
X70330000Y-35920000D01*
%TO.C,BT1*%
X41660000Y-31610000D02*
X41660000Y-23790000D01*
X40740000Y-25390000D02*
X41660000Y-25390000D01*
X35540000Y-31610000D02*
X41660000Y-31610000D01*
X40900000Y-29350000D02*
X40900000Y-27750000D01*
X39900000Y-29350000D02*
X40900000Y-29350000D01*
X41660000Y-23790000D02*
X40740000Y-23790000D01*
X40740000Y-23790000D02*
X40740000Y-25390000D01*
X40740000Y-25390000D02*
X40460000Y-25390000D01*
X40460000Y-24175000D02*
X40460000Y-25390000D01*
X40400000Y-31610000D02*
X40400000Y-29350000D01*
X40900000Y-27750000D02*
X39900000Y-27750000D01*
X39900000Y-27750000D02*
X39900000Y-29350000D01*
X39900000Y-31610000D02*
X39900000Y-29350000D01*
X38100000Y-27250000D02*
X39100000Y-27250000D01*
X39100000Y-27250000D02*
X39100000Y-31610000D01*
X38100000Y-31610000D02*
X38100000Y-27250000D01*
X36300000Y-27750000D02*
X37300000Y-27750000D01*
X37300000Y-27750000D02*
X37300000Y-29350000D01*
X36460000Y-25390000D02*
X36460000Y-23790000D01*
X36740000Y-25390000D02*
X36460000Y-25390000D01*
X36300000Y-29350000D02*
X36300000Y-27750000D01*
X37300000Y-29350000D02*
X36300000Y-29350000D01*
X36460000Y-23790000D02*
X35540000Y-23790000D01*
X36460000Y-25390000D02*
X35540000Y-25390000D01*
X35540000Y-23790000D02*
X35540000Y-31610000D01*
%TD*%
%LPC*%
D12*
%TO.C,SW64*%
X34782500Y-54935000D03*
X34782500Y-48935000D03*
X31032500Y-54935000D03*
X31032500Y-48935000D03*
%TD*%
D13*
%TO.C,U10*%
X25000000Y-24750000D03*
X25000000Y-53250000D03*
X120000000Y-24750000D03*
X120000000Y-53250000D03*
D14*
X118960000Y-47640000D03*
D15*
X121500000Y-47640000D03*
X118960000Y-45100000D03*
X121500000Y-45100000D03*
X118960000Y-42560000D03*
X121500000Y-42560000D03*
X118960000Y-40020000D03*
X121500000Y-40020000D03*
X118960000Y-37480000D03*
X121500000Y-37480000D03*
X118960000Y-34940000D03*
X121500000Y-34940000D03*
X118960000Y-32400000D03*
X121500000Y-32400000D03*
X118960000Y-29860000D03*
X121500000Y-29860000D03*
%TD*%
D16*
%TO.C,U5*%
X52075000Y-176837501D03*
X51425000Y-176837501D03*
X50775000Y-176837501D03*
X50125000Y-176837501D03*
X49475000Y-176837501D03*
X48825000Y-176837501D03*
X48175000Y-176837501D03*
X47525000Y-176837501D03*
X46875000Y-176837501D03*
X46225000Y-176837501D03*
X45575000Y-176837501D03*
X44925000Y-176837501D03*
X44925000Y-182562501D03*
X45575000Y-182562501D03*
X46225000Y-182562501D03*
X46875000Y-182562501D03*
X47525000Y-182562501D03*
X48175000Y-182562501D03*
X48825000Y-182562501D03*
X49475000Y-182562501D03*
X50125000Y-182562501D03*
X50775000Y-182562501D03*
X51425000Y-182562501D03*
X52075000Y-182562501D03*
%TD*%
%TO.C,U4*%
X100075000Y-176837501D03*
X99425000Y-176837501D03*
X98775000Y-176837501D03*
X98125000Y-176837501D03*
X97475000Y-176837501D03*
X96825000Y-176837501D03*
X96175000Y-176837501D03*
X95525000Y-176837501D03*
X94875000Y-176837501D03*
X94225000Y-176837501D03*
X93575000Y-176837501D03*
X92925000Y-176837501D03*
X92925000Y-182562501D03*
X93575000Y-182562501D03*
X94225000Y-182562501D03*
X94875000Y-182562501D03*
X95525000Y-182562501D03*
X96175000Y-182562501D03*
X96825000Y-182562501D03*
X97475000Y-182562501D03*
X98125000Y-182562501D03*
X98775000Y-182562501D03*
X99425000Y-182562501D03*
X100075000Y-182562501D03*
%TD*%
%TO.C,U3*%
X52075000Y-201837501D03*
X51425000Y-201837501D03*
X50775000Y-201837501D03*
X50125000Y-201837501D03*
X49475000Y-201837501D03*
X48825000Y-201837501D03*
X48175000Y-201837501D03*
X47525000Y-201837501D03*
X46875000Y-201837501D03*
X46225000Y-201837501D03*
X45575000Y-201837501D03*
X44925000Y-201837501D03*
X44925000Y-207562501D03*
X45575000Y-207562501D03*
X46225000Y-207562501D03*
X46875000Y-207562501D03*
X47525000Y-207562501D03*
X48175000Y-207562501D03*
X48825000Y-207562501D03*
X49475000Y-207562501D03*
X50125000Y-207562501D03*
X50775000Y-207562501D03*
X51425000Y-207562501D03*
X52075000Y-207562501D03*
%TD*%
%TO.C,U2*%
X100075000Y-201837501D03*
X99425000Y-201837501D03*
X98775000Y-201837501D03*
X98125000Y-201837501D03*
X97475000Y-201837501D03*
X96825000Y-201837501D03*
X96175000Y-201837501D03*
X95525000Y-201837501D03*
X94875000Y-201837501D03*
X94225000Y-201837501D03*
X93575000Y-201837501D03*
X92925000Y-201837501D03*
X92925000Y-207562501D03*
X93575000Y-207562501D03*
X94225000Y-207562501D03*
X94875000Y-207562501D03*
X95525000Y-207562501D03*
X96175000Y-207562501D03*
X96825000Y-207562501D03*
X97475000Y-207562501D03*
X98125000Y-207562501D03*
X98775000Y-207562501D03*
X99425000Y-207562501D03*
X100075000Y-207562501D03*
%TD*%
D17*
%TO.C,SW63*%
X28250000Y-192600000D03*
X28250000Y-186200000D03*
%TD*%
%TO.C,SW62*%
X33750000Y-192600000D03*
X33750000Y-186200000D03*
%TD*%
%TO.C,SW61*%
X39250000Y-192600000D03*
X39250000Y-186200000D03*
%TD*%
%TO.C,SW60*%
X44750000Y-192600001D03*
X44750000Y-186200001D03*
%TD*%
%TO.C,SW59*%
X52249999Y-192600001D03*
X52249999Y-186200001D03*
%TD*%
%TO.C,SW58*%
X57750000Y-192600001D03*
X57750000Y-186200001D03*
%TD*%
%TO.C,SW57*%
X63250000Y-192600001D03*
X63250000Y-186200001D03*
%TD*%
%TO.C,SW56*%
X68750000Y-192600001D03*
X68750000Y-186200001D03*
%TD*%
%TO.C,SW55*%
X76250000Y-192600000D03*
X76250000Y-186200000D03*
%TD*%
%TO.C,SW54*%
X81750000Y-192600000D03*
X81750000Y-186200000D03*
%TD*%
%TO.C,SW53*%
X87250000Y-192600000D03*
X87250000Y-186200000D03*
%TD*%
%TO.C,SW52*%
X92750000Y-192600001D03*
X92750000Y-186200001D03*
%TD*%
%TO.C,SW51*%
X100249999Y-192600001D03*
X100249999Y-186200001D03*
%TD*%
%TO.C,SW50*%
X105750000Y-192600001D03*
X105750000Y-186200001D03*
%TD*%
%TO.C,SW49*%
X111250000Y-192600001D03*
X111250000Y-186200001D03*
%TD*%
%TO.C,SW48*%
X116750000Y-192600001D03*
X116750000Y-186200001D03*
%TD*%
%TO.C,SW47*%
X28250000Y-217600000D03*
X28250000Y-211200000D03*
%TD*%
%TO.C,SW46*%
X33750000Y-217600000D03*
X33750000Y-211200000D03*
%TD*%
%TO.C,SW45*%
X39250000Y-217600000D03*
X39250000Y-211200000D03*
%TD*%
%TO.C,SW44*%
X44750000Y-217600001D03*
X44750000Y-211200001D03*
%TD*%
%TO.C,SW43*%
X52249999Y-217600001D03*
X52249999Y-211200001D03*
%TD*%
%TO.C,SW42*%
X57750000Y-217600001D03*
X57750000Y-211200001D03*
%TD*%
%TO.C,SW41*%
X63250000Y-217600001D03*
X63250000Y-211200001D03*
%TD*%
%TO.C,SW40*%
X68750000Y-217600001D03*
X68750000Y-211200001D03*
%TD*%
D18*
%TO.C,RN8*%
X35300000Y-190350001D03*
D19*
X36100000Y-190350001D03*
X36900000Y-190350001D03*
D18*
X37700000Y-190350001D03*
X37700000Y-188550001D03*
D19*
X36900000Y-188550001D03*
X36100000Y-188550001D03*
D18*
X35300000Y-188550001D03*
%TD*%
%TO.C,RN7*%
X59300000Y-190350001D03*
D19*
X60100000Y-190350001D03*
X60900000Y-190350001D03*
D18*
X61700000Y-190350001D03*
X61700000Y-188550001D03*
D19*
X60900000Y-188550001D03*
X60100000Y-188550001D03*
D18*
X59300000Y-188550001D03*
%TD*%
%TO.C,RN6*%
X83300000Y-190350001D03*
D19*
X84100000Y-190350001D03*
X84900000Y-190350001D03*
D18*
X85700000Y-190350001D03*
X85700000Y-188550001D03*
D19*
X84900000Y-188550001D03*
X84100000Y-188550001D03*
D18*
X83300000Y-188550001D03*
%TD*%
%TO.C,RN5*%
X107300000Y-190350001D03*
D19*
X108100000Y-190350001D03*
X108900000Y-190350001D03*
D18*
X109700000Y-190350001D03*
X109700000Y-188550001D03*
D19*
X108900000Y-188550001D03*
X108100000Y-188550001D03*
D18*
X107300000Y-188550001D03*
%TD*%
%TO.C,RN4*%
X35300000Y-215350001D03*
D19*
X36100000Y-215350001D03*
X36900000Y-215350001D03*
D18*
X37700000Y-215350001D03*
X37700000Y-213550001D03*
D19*
X36900000Y-213550001D03*
X36100000Y-213550001D03*
D18*
X35300000Y-213550001D03*
%TD*%
%TO.C,RN3*%
X59300000Y-215350001D03*
D19*
X60100000Y-215350001D03*
X60900000Y-215350001D03*
D18*
X61700000Y-215350001D03*
X61700000Y-213550001D03*
D19*
X60900000Y-213550001D03*
X60100000Y-213550001D03*
D18*
X59300000Y-213550001D03*
%TD*%
%TO.C,RN2*%
X83300000Y-215350001D03*
D19*
X84100000Y-215350001D03*
X84900000Y-215350001D03*
D18*
X85700000Y-215350001D03*
X85700000Y-213550001D03*
D19*
X84900000Y-213550001D03*
X84100000Y-213550001D03*
D18*
X83300000Y-213550001D03*
%TD*%
%TO.C,RN1*%
X107300000Y-215350001D03*
D19*
X108100000Y-215350001D03*
X108900000Y-215350001D03*
D18*
X109700000Y-215350001D03*
X109700000Y-213550001D03*
D19*
X108900000Y-213550001D03*
X108100000Y-213550001D03*
D18*
X107300000Y-213550001D03*
%TD*%
D20*
%TO.C,C29*%
X55050000Y-176950002D03*
X53500000Y-176950002D03*
%TD*%
%TO.C,C20*%
X103050000Y-176950002D03*
X101500000Y-176950002D03*
%TD*%
%TO.C,C11*%
X55050000Y-201950002D03*
X53500000Y-201950002D03*
%TD*%
%TO.C,C2*%
X103050000Y-201950001D03*
X101500000Y-201950001D03*
%TD*%
D21*
%TO.C,SW65*%
X22499999Y-31700001D03*
X22499999Y-29699999D03*
%TD*%
D17*
%TO.C,SW39*%
X76250000Y-211200001D03*
X76250000Y-217600001D03*
%TD*%
%TO.C,SW35*%
X100250000Y-211200001D03*
X100250000Y-217600001D03*
%TD*%
%TO.C,SW38*%
X81750000Y-211200001D03*
X81750000Y-217600001D03*
%TD*%
%TO.C,SW34*%
X105750000Y-211200001D03*
X105750000Y-217600001D03*
%TD*%
%TO.C,SW37*%
X87250000Y-211200001D03*
X87250000Y-217600001D03*
%TD*%
%TO.C,SW33*%
X111250000Y-211200001D03*
X111250000Y-217600001D03*
%TD*%
%TO.C,SW36*%
X92750000Y-211200001D03*
X92750000Y-217600001D03*
%TD*%
%TO.C,SW32*%
X116750000Y-211200001D03*
X116750000Y-217600001D03*
%TD*%
D22*
%TO.C,SW1*%
X78000000Y-37250000D03*
X72000000Y-37250000D03*
X78000000Y-41000000D03*
X72000000Y-41000000D03*
%TD*%
D23*
%TO.C,J2*%
X26280000Y-35910000D03*
X26280000Y-41690000D03*
D24*
X26780000Y-34480000D03*
D25*
X22600000Y-34480000D03*
D24*
X26780000Y-43120000D03*
D25*
X22600000Y-43120000D03*
%TD*%
D15*
%TO.C,J1*%
X69000000Y-47410000D03*
X69000000Y-44870000D03*
X69000000Y-42330000D03*
X69000000Y-39790000D03*
D14*
X69000000Y-37250000D03*
%TD*%
D26*
%TO.C,BT1*%
X37600000Y-25250000D03*
D27*
X39600000Y-25250000D03*
%TD*%
D28*
%TO.C,SW31*%
X114750000Y-162250000D03*
X102250000Y-162250000D03*
X114750000Y-157250000D03*
X102250000Y-157250000D03*
D17*
X108500000Y-164250000D03*
X108500000Y-155250000D03*
%TD*%
D28*
%TO.C,SW30*%
X96750000Y-162250000D03*
X84250000Y-162250000D03*
X96750000Y-157250000D03*
X84250000Y-157250000D03*
D17*
X90500000Y-164250000D03*
X90500000Y-155250000D03*
%TD*%
D28*
%TO.C,SW29*%
X78750000Y-162250000D03*
X66250000Y-162250000D03*
X78750000Y-157250000D03*
X66250000Y-157250000D03*
D17*
X72500000Y-164250000D03*
X72500000Y-155250000D03*
%TD*%
D28*
%TO.C,SW28*%
X60750000Y-162250000D03*
X48250000Y-162250000D03*
X60750000Y-157250000D03*
X48250000Y-157250000D03*
D17*
X54500000Y-164250000D03*
X54500000Y-155250000D03*
%TD*%
D28*
%TO.C,SW27*%
X42750000Y-162250000D03*
X30250000Y-162250000D03*
X42750000Y-157250000D03*
X30250000Y-157250000D03*
D17*
X36500000Y-164250000D03*
X36500000Y-155250000D03*
%TD*%
D28*
%TO.C,SW26*%
X114750000Y-144250000D03*
X102250000Y-144250000D03*
X114750000Y-139250000D03*
X102250000Y-139250000D03*
D17*
X108500000Y-146250000D03*
X108500000Y-137250000D03*
%TD*%
D28*
%TO.C,SW25*%
X96750000Y-144250000D03*
X84250000Y-144250000D03*
X96750000Y-139250000D03*
X84250000Y-139250000D03*
D17*
X90500000Y-146250000D03*
X90500000Y-137250000D03*
%TD*%
D28*
%TO.C,SW24*%
X78750000Y-144250000D03*
X66250000Y-144250000D03*
X78750000Y-139250000D03*
X66250000Y-139250000D03*
D17*
X72500000Y-146250000D03*
X72500000Y-137250000D03*
%TD*%
D28*
%TO.C,SW23*%
X60750000Y-144250000D03*
X48250000Y-144250000D03*
X60750000Y-139250000D03*
X48250000Y-139250000D03*
D17*
X54500000Y-146250000D03*
X54500000Y-137250000D03*
%TD*%
D28*
%TO.C,SW22*%
X42750000Y-144250000D03*
X30250000Y-144250000D03*
X42750000Y-139250000D03*
X30250000Y-139250000D03*
D17*
X36500000Y-146250000D03*
X36500000Y-137250000D03*
%TD*%
D28*
%TO.C,SW21*%
X114750000Y-126250000D03*
X102250000Y-126250000D03*
X114750000Y-121250000D03*
X102250000Y-121250000D03*
D17*
X108500000Y-128250000D03*
X108500000Y-119250000D03*
%TD*%
D28*
%TO.C,SW20*%
X96750000Y-126250000D03*
X84250000Y-126250000D03*
X96750000Y-121250000D03*
X84250000Y-121250000D03*
D17*
X90500000Y-128250000D03*
X90500000Y-119250000D03*
%TD*%
D28*
%TO.C,SW19*%
X78750000Y-126250000D03*
X66250000Y-126250000D03*
X78750000Y-121250000D03*
X66250000Y-121250000D03*
D17*
X72500000Y-128250000D03*
X72500000Y-119250000D03*
%TD*%
D28*
%TO.C,SW18*%
X60750000Y-126250000D03*
X48250000Y-126250000D03*
X60750000Y-121250000D03*
X48250000Y-121250000D03*
D17*
X54500000Y-128250000D03*
X54500000Y-119250000D03*
%TD*%
D28*
%TO.C,SW17*%
X42750000Y-126250000D03*
X30250000Y-126250000D03*
X42750000Y-121250000D03*
X30250000Y-121250000D03*
D17*
X36500000Y-128250000D03*
X36500000Y-119250000D03*
%TD*%
D28*
%TO.C,SW16*%
X114750000Y-108250000D03*
X102250000Y-108250000D03*
X114750000Y-103250000D03*
X102250000Y-103250000D03*
D17*
X108500000Y-110250000D03*
X108500000Y-101250000D03*
%TD*%
D28*
%TO.C,SW15*%
X96750000Y-108250000D03*
X84250000Y-108250000D03*
X96750000Y-103250000D03*
X84250000Y-103250000D03*
D17*
X90500000Y-110250000D03*
X90500000Y-101250000D03*
%TD*%
D28*
%TO.C,SW14*%
X78750000Y-108250000D03*
X66250000Y-108250000D03*
X78750000Y-103250000D03*
X66250000Y-103250000D03*
D17*
X72500000Y-110250000D03*
X72500000Y-101250000D03*
%TD*%
D28*
%TO.C,SW13*%
X60750000Y-108250000D03*
X48250000Y-108250000D03*
X60750000Y-103250000D03*
X48250000Y-103250000D03*
D17*
X54500000Y-110250000D03*
X54500000Y-101250000D03*
%TD*%
D28*
%TO.C,SW12*%
X42750000Y-108250000D03*
X30250000Y-108250000D03*
X42750000Y-103250000D03*
X30250000Y-103250000D03*
D17*
X36500000Y-110250000D03*
X36500000Y-101250000D03*
%TD*%
D28*
%TO.C,SW11*%
X114750000Y-90250000D03*
X102250000Y-90250000D03*
X114750000Y-85250000D03*
X102250000Y-85250000D03*
D17*
X108500000Y-92250000D03*
X108500000Y-83250000D03*
%TD*%
D28*
%TO.C,SW10*%
X96750000Y-90250000D03*
X84250000Y-90250000D03*
X96750000Y-85250000D03*
X84250000Y-85250000D03*
D17*
X90500000Y-92250000D03*
X90500000Y-83250000D03*
%TD*%
D28*
%TO.C,SW9*%
X78750000Y-90250000D03*
X66250000Y-90250000D03*
X78750000Y-85250000D03*
X66250000Y-85250000D03*
D17*
X72500000Y-92250000D03*
X72500000Y-83250000D03*
%TD*%
D28*
%TO.C,SW8*%
X60750000Y-90250000D03*
X48250000Y-90250000D03*
X60750000Y-85250000D03*
X48250000Y-85250000D03*
D17*
X54500000Y-92250000D03*
X54500000Y-83250000D03*
%TD*%
D28*
%TO.C,SW7*%
X42750000Y-90250000D03*
X30250000Y-90250000D03*
X42750000Y-85250000D03*
X30250000Y-85250000D03*
D17*
X36500000Y-92250000D03*
X36500000Y-83250000D03*
%TD*%
D28*
%TO.C,SW6*%
X114750000Y-72250000D03*
X102250000Y-72250000D03*
X114750000Y-67250000D03*
X102250000Y-67250000D03*
D17*
X108500000Y-74250000D03*
X108500000Y-65250000D03*
%TD*%
D28*
%TO.C,SW5*%
X96750000Y-72250000D03*
X84250000Y-72250000D03*
X96750000Y-67250000D03*
X84250000Y-67250000D03*
D17*
X90500000Y-74250000D03*
X90500000Y-65250000D03*
%TD*%
D28*
%TO.C,SW4*%
X78750000Y-72250000D03*
X66250000Y-72250000D03*
X78750000Y-67250000D03*
X66250000Y-67250000D03*
D17*
X72500000Y-74250000D03*
X72500000Y-65250000D03*
%TD*%
D28*
%TO.C,SW3*%
X60750000Y-72250000D03*
X48250000Y-72250000D03*
X60750000Y-67250000D03*
X48250000Y-67250000D03*
D17*
X54500000Y-74250000D03*
X54500000Y-65250000D03*
%TD*%
D28*
%TO.C,SW2*%
X42750000Y-72250000D03*
X30250000Y-72250000D03*
X42750000Y-67250000D03*
X30250000Y-67250000D03*
D17*
X36500000Y-74250000D03*
X36500000Y-65250000D03*
%TD*%
%LPD*%
M02*
