%TF.GenerationSoftware,KiCad,Pcbnew,8.0.7*%
%TF.CreationDate,2024-12-27T14:43:48-05:00*%
%TF.ProjectId,rp2040-programmer-calculator,72703230-3430-42d7-9072-6f6772616d6d,rev?*%
%TF.SameCoordinates,Original*%
%TF.FileFunction,Paste,Bot*%
%TF.FilePolarity,Positive*%
%FSLAX46Y46*%
G04 Gerber Fmt 4.6, Leading zero omitted, Abs format (unit mm)*
G04 Created by KiCad (PCBNEW 8.0.7) date 2024-12-27 14:43:48*
%MOMM*%
%LPD*%
G01*
G04 APERTURE LIST*
%ADD10R,1.000000X1.250000*%
%ADD11R,0.450000X1.750000*%
G04 APERTURE END LIST*
D10*
%TO.C,SW63*%
X120649000Y-38471000D03*
X120649000Y-30721000D03*
%TD*%
D11*
%TO.C,U2*%
X112725000Y-219725000D03*
X112075000Y-219725000D03*
X111425000Y-219725000D03*
X110775000Y-219725000D03*
X110125000Y-219725000D03*
X109475000Y-219725000D03*
X108825000Y-219725000D03*
X108175000Y-219725000D03*
X107525000Y-219725000D03*
X106875000Y-219725000D03*
X106225000Y-219725000D03*
X105575000Y-219725000D03*
X104925000Y-219725000D03*
X104275000Y-219725000D03*
X104275000Y-212525000D03*
X104925000Y-212525000D03*
X105575000Y-212525000D03*
X106225000Y-212525000D03*
X106875000Y-212525000D03*
X107525000Y-212525000D03*
X108175000Y-212525000D03*
X108825000Y-212525000D03*
X109475000Y-212525000D03*
X110125000Y-212525000D03*
X110775000Y-212525000D03*
X111425000Y-212525000D03*
X112075000Y-212525000D03*
X112725000Y-212525000D03*
%TD*%
%TO.C,U3*%
X67725000Y-219725000D03*
X67075000Y-219725000D03*
X66425000Y-219725000D03*
X65775000Y-219725000D03*
X65125000Y-219725000D03*
X64475000Y-219725000D03*
X63825000Y-219725000D03*
X63175000Y-219725000D03*
X62525000Y-219725000D03*
X61875000Y-219725000D03*
X61225000Y-219725000D03*
X60575000Y-219725000D03*
X59925000Y-219725000D03*
X59275000Y-219725000D03*
X59275000Y-212525000D03*
X59925000Y-212525000D03*
X60575000Y-212525000D03*
X61225000Y-212525000D03*
X61875000Y-212525000D03*
X62525000Y-212525000D03*
X63175000Y-212525000D03*
X63825000Y-212525000D03*
X64475000Y-212525000D03*
X65125000Y-212525000D03*
X65775000Y-212525000D03*
X66425000Y-212525000D03*
X67075000Y-212525000D03*
X67725000Y-212525000D03*
%TD*%
%TO.C,U5*%
X67725000Y-197725000D03*
X67075000Y-197725000D03*
X66425000Y-197725000D03*
X65775000Y-197725000D03*
X65125000Y-197725000D03*
X64475000Y-197725000D03*
X63825000Y-197725000D03*
X63175000Y-197725000D03*
X62525000Y-197725000D03*
X61875000Y-197725000D03*
X61225000Y-197725000D03*
X60575000Y-197725000D03*
X59925000Y-197725000D03*
X59275000Y-197725000D03*
X59275000Y-190525000D03*
X59925000Y-190525000D03*
X60575000Y-190525000D03*
X61225000Y-190525000D03*
X61875000Y-190525000D03*
X62525000Y-190525000D03*
X63175000Y-190525000D03*
X63825000Y-190525000D03*
X64475000Y-190525000D03*
X65125000Y-190525000D03*
X65775000Y-190525000D03*
X66425000Y-190525000D03*
X67075000Y-190525000D03*
X67725000Y-190525000D03*
%TD*%
%TO.C,U4*%
X112725000Y-197725000D03*
X112075000Y-197725000D03*
X111425000Y-197725000D03*
X110775000Y-197725000D03*
X110125000Y-197725000D03*
X109475000Y-197725000D03*
X108825000Y-197725000D03*
X108175000Y-197725000D03*
X107525000Y-197725000D03*
X106875000Y-197725000D03*
X106225000Y-197725000D03*
X105575000Y-197725000D03*
X104925000Y-197725000D03*
X104275000Y-197725000D03*
X104275000Y-190525000D03*
X104925000Y-190525000D03*
X105575000Y-190525000D03*
X106225000Y-190525000D03*
X106875000Y-190525000D03*
X107525000Y-190525000D03*
X108175000Y-190525000D03*
X108825000Y-190525000D03*
X109475000Y-190525000D03*
X110125000Y-190525000D03*
X110775000Y-190525000D03*
X111425000Y-190525000D03*
X112075000Y-190525000D03*
X112725000Y-190525000D03*
%TD*%
M02*
