M48
; DRILL file {KiCad 8.0.7} date 2025-01-05T21:02:15-0500
; FORMAT={-:-/ absolute / inch / decimal}
; #@! TF.CreationDate,2025-01-05T21:02:15-05:00
; #@! TF.GenerationSoftware,Kicad,Pcbnew,8.0.7
; #@! TF.FileFunction,NonPlated,1,2,NPTH
FMAT,2
INCH
; #@! TA.AperFunction,NonPlated,NPTH,ComponentDrill
T1C0.0256
; #@! TA.AperFunction,NonPlated,NPTH,ComponentDrill
T2C0.0280
; #@! TA.AperFunction,NonPlated,NPTH,ComponentDrill
T3C0.0709
; #@! TA.AperFunction,NonPlated,NPTH,ComponentDrill
T4C0.1260
%
G90
G05
T1
X1.0346Y-1.4138
X1.0346Y-1.6413
T2
X0.8858Y-1.1693
X0.8858Y-1.248
T3
X1.437Y-2.5689
X1.437Y-2.9232
X1.437Y-3.2776
X1.437Y-3.6319
X1.437Y-3.9862
X1.437Y-4.3406
X1.437Y-4.6949
X1.437Y-5.0492
X1.437Y-5.4035
X1.437Y-5.7579
X1.437Y-6.1122
X1.437Y-6.4665
X2.1457Y-2.5689
X2.1457Y-2.9232
X2.1457Y-3.2776
X2.1457Y-3.6319
X2.1457Y-3.9862
X2.1457Y-4.3406
X2.1457Y-4.6949
X2.1457Y-5.0492
X2.1457Y-5.4035
X2.1457Y-5.7579
X2.1457Y-6.1122
X2.1457Y-6.4665
X2.8543Y-2.5689
X2.8543Y-2.9232
X2.8543Y-3.2776
X2.8543Y-3.6319
X2.8543Y-3.9862
X2.8543Y-4.3406
X2.8543Y-4.6949
X2.8543Y-5.0492
X2.8543Y-5.4035
X2.8543Y-5.7579
X2.8543Y-6.1122
X2.8543Y-6.4665
X3.563Y-2.5689
X3.563Y-2.9232
X3.563Y-3.2776
X3.563Y-3.6319
X3.563Y-3.9862
X3.563Y-4.3406
X3.563Y-4.6949
X3.563Y-5.0492
X3.563Y-5.4035
X3.563Y-5.7579
X3.563Y-6.1122
X3.563Y-6.4665
X4.2717Y-2.5689
X4.2717Y-2.9232
X4.2717Y-3.2776
X4.2717Y-3.6319
X4.2717Y-3.9862
X4.2717Y-4.3406
X4.2717Y-4.6949
X4.2717Y-5.0492
X4.2717Y-5.4035
X4.2717Y-5.7579
X4.2717Y-6.1122
X4.2717Y-6.4665
T4
X0.9843Y-0.9744
X0.9843Y-2.0965
X4.7244Y-0.9744
X4.7244Y-2.0965
M30
