%TF.GenerationSoftware,KiCad,Pcbnew,8.0.7*%
%TF.CreationDate,2024-12-27T14:43:48-05:00*%
%TF.ProjectId,rp2040-programmer-calculator,72703230-3430-42d7-9072-6f6772616d6d,rev?*%
%TF.SameCoordinates,Original*%
%TF.FileFunction,Paste,Top*%
%TF.FilePolarity,Positive*%
%FSLAX46Y46*%
G04 Gerber Fmt 4.6, Leading zero omitted, Abs format (unit mm)*
G04 Created by KiCad (PCBNEW 8.0.7) date 2024-12-27 14:43:48*
%MOMM*%
%LPD*%
G01*
G04 APERTURE LIST*
G04 Aperture macros list*
%AMRoundRect*
0 Rectangle with rounded corners*
0 $1 Rounding radius*
0 $2 $3 $4 $5 $6 $7 $8 $9 X,Y pos of 4 corners*
0 Add a 4 corners polygon primitive as box body*
4,1,4,$2,$3,$4,$5,$6,$7,$8,$9,$2,$3,0*
0 Add four circle primitives for the rounded corners*
1,1,$1+$1,$2,$3*
1,1,$1+$1,$4,$5*
1,1,$1+$1,$6,$7*
1,1,$1+$1,$8,$9*
0 Add four rect primitives between the rounded corners*
20,1,$1+$1,$2,$3,$4,$5,0*
20,1,$1+$1,$4,$5,$6,$7,0*
20,1,$1+$1,$6,$7,$8,$9,0*
20,1,$1+$1,$8,$9,$2,$3,0*%
G04 Aperture macros list end*
%ADD10RoundRect,0.243750X-0.456250X0.243750X-0.456250X-0.243750X0.456250X-0.243750X0.456250X0.243750X0*%
%ADD11RoundRect,0.200000X-0.275000X0.200000X-0.275000X-0.200000X0.275000X-0.200000X0.275000X0.200000X0*%
%ADD12R,1.000000X1.250000*%
%ADD13RoundRect,0.140000X-0.170000X0.140000X-0.170000X-0.140000X0.170000X-0.140000X0.170000X0.140000X0*%
%ADD14RoundRect,0.135000X0.185000X-0.135000X0.185000X0.135000X-0.185000X0.135000X-0.185000X-0.135000X0*%
%ADD15RoundRect,0.150000X0.150000X-0.587500X0.150000X0.587500X-0.150000X0.587500X-0.150000X-0.587500X0*%
%ADD16RoundRect,0.112500X0.187500X0.112500X-0.187500X0.112500X-0.187500X-0.112500X0.187500X-0.112500X0*%
%ADD17RoundRect,0.243750X0.243750X0.456250X-0.243750X0.456250X-0.243750X-0.456250X0.243750X-0.456250X0*%
%ADD18RoundRect,0.140000X0.170000X-0.140000X0.170000X0.140000X-0.170000X0.140000X-0.170000X-0.140000X0*%
%ADD19RoundRect,0.140000X-0.140000X-0.170000X0.140000X-0.170000X0.140000X0.170000X-0.140000X0.170000X0*%
%ADD20RoundRect,0.218750X0.256250X-0.218750X0.256250X0.218750X-0.256250X0.218750X-0.256250X-0.218750X0*%
%ADD21RoundRect,0.135000X0.135000X0.185000X-0.135000X0.185000X-0.135000X-0.185000X0.135000X-0.185000X0*%
%ADD22R,1.100000X0.650000*%
%ADD23RoundRect,0.150000X0.512500X0.150000X-0.512500X0.150000X-0.512500X-0.150000X0.512500X-0.150000X0*%
%ADD24R,0.650000X1.650000*%
%ADD25R,1.200000X1.400000*%
%ADD26RoundRect,0.135000X-0.185000X0.135000X-0.185000X-0.135000X0.185000X-0.135000X0.185000X0.135000X0*%
%ADD27RoundRect,0.249999X-0.395001X0.395001X-0.395001X-0.395001X0.395001X-0.395001X0.395001X0.395001X0*%
%ADD28RoundRect,0.050000X-0.050000X0.387500X-0.050000X-0.387500X0.050000X-0.387500X0.050000X0.387500X0*%
%ADD29RoundRect,0.050000X-0.387500X0.050000X-0.387500X-0.050000X0.387500X-0.050000X0.387500X0.050000X0*%
%ADD30RoundRect,0.182500X0.182500X0.182500X-0.182500X0.182500X-0.182500X-0.182500X0.182500X-0.182500X0*%
%ADD31RoundRect,0.062500X0.350000X0.062500X-0.350000X0.062500X-0.350000X-0.062500X0.350000X-0.062500X0*%
%ADD32RoundRect,0.062500X0.062500X0.350000X-0.062500X0.350000X-0.062500X-0.350000X0.062500X-0.350000X0*%
%ADD33RoundRect,0.135000X-0.135000X-0.185000X0.135000X-0.185000X0.135000X0.185000X-0.135000X0.185000X0*%
%ADD34RoundRect,0.140000X0.140000X0.170000X-0.140000X0.170000X-0.140000X-0.170000X0.140000X-0.170000X0*%
%ADD35RoundRect,0.150000X0.425000X-0.150000X0.425000X0.150000X-0.425000X0.150000X-0.425000X-0.150000X0*%
%ADD36RoundRect,0.075000X0.500000X-0.075000X0.500000X0.075000X-0.500000X0.075000X-0.500000X-0.075000X0*%
%ADD37O,2.100000X1.000000*%
%ADD38O,1.800000X1.000000*%
%ADD39RoundRect,0.200000X0.200000X0.275000X-0.200000X0.275000X-0.200000X-0.275000X0.200000X-0.275000X0*%
G04 APERTURE END LIST*
D10*
%TO.C,D21*%
X104667000Y-190187500D03*
X104667000Y-192062500D03*
%TD*%
D11*
%TO.C,R4*%
X125000000Y-212300000D03*
X125000000Y-213950000D03*
%TD*%
D12*
%TO.C,SW15*%
X50000000Y-218250000D03*
X50000000Y-226000000D03*
%TD*%
%TO.C,SW25*%
X82333000Y-196250000D03*
X82333000Y-204000000D03*
%TD*%
%TO.C,SW18*%
X122000000Y-196250000D03*
X122000000Y-204000000D03*
%TD*%
D13*
%TO.C,C1*%
X94107000Y-40109000D03*
X94107000Y-41069000D03*
%TD*%
D11*
%TO.C,R29*%
X75333000Y-190300001D03*
X75333000Y-191950001D03*
%TD*%
%TO.C,R64*%
X94500000Y-153500000D03*
X94500000Y-155150000D03*
%TD*%
D14*
%TO.C,R76*%
X115544600Y-60092400D03*
X115544600Y-59072400D03*
%TD*%
D15*
%TO.C,Q3*%
X65200000Y-32990000D03*
X67100000Y-32990000D03*
X66150000Y-31115000D03*
%TD*%
D16*
%TO.C,D59*%
X71550000Y-183500000D03*
X69450000Y-183500000D03*
%TD*%
D10*
%TO.C,D4*%
X112000000Y-212187500D03*
X112000000Y-214062500D03*
%TD*%
D11*
%TO.C,R26*%
X92667000Y-190300000D03*
X92667000Y-191950000D03*
%TD*%
D10*
%TO.C,D14*%
X55000000Y-212187501D03*
X55000000Y-214062501D03*
%TD*%
D17*
%TO.C,D80*%
X86937500Y-136500000D03*
X85062500Y-136500000D03*
%TD*%
D18*
%TO.C,C18*%
X113131600Y-60163400D03*
X113131600Y-59203400D03*
%TD*%
D17*
%TO.C,D65*%
X86937500Y-85500000D03*
X85062500Y-85500000D03*
%TD*%
%TO.C,D82*%
X122937500Y-136500000D03*
X121062500Y-136500000D03*
%TD*%
D10*
%TO.C,D24*%
X89667000Y-190187500D03*
X89667000Y-192062500D03*
%TD*%
D12*
%TO.C,SW10*%
X77333000Y-218250000D03*
X77333000Y-226000000D03*
%TD*%
D11*
%TO.C,R51*%
X130500000Y-102500000D03*
X130500000Y-104150000D03*
%TD*%
D16*
%TO.C,D55*%
X89550000Y-166500000D03*
X87450000Y-166500000D03*
%TD*%
D12*
%TO.C,SW27*%
X72333000Y-196250000D03*
X72333000Y-204000000D03*
%TD*%
D19*
%TO.C,C11*%
X110744000Y-46018000D03*
X111704000Y-46018000D03*
%TD*%
%TO.C,C5*%
X112649000Y-40938000D03*
X113609000Y-40938000D03*
%TD*%
D11*
%TO.C,R43*%
X76500000Y-85500000D03*
X76500000Y-87150000D03*
%TD*%
D13*
%TO.C,C19*%
X106908600Y-63648400D03*
X106908600Y-64608400D03*
%TD*%
D11*
%TO.C,R59*%
X94500000Y-136500000D03*
X94500000Y-138150000D03*
%TD*%
D12*
%TO.C,SW13*%
X60000000Y-218250001D03*
X60000000Y-226000001D03*
%TD*%
D20*
%TO.C,D93*%
X105741600Y-57349400D03*
X105741600Y-55774400D03*
%TD*%
D11*
%TO.C,R47*%
X58500000Y-102500000D03*
X58500000Y-104150000D03*
%TD*%
%TO.C,R13*%
X75333000Y-212300001D03*
X75333000Y-213950001D03*
%TD*%
%TO.C,R53*%
X76500000Y-119500000D03*
X76500000Y-121150000D03*
%TD*%
D12*
%TO.C,SW24*%
X89667000Y-196249999D03*
X89667000Y-203999999D03*
%TD*%
D11*
%TO.C,R14*%
X70333000Y-212300001D03*
X70333000Y-213950001D03*
%TD*%
%TO.C,R18*%
X48000000Y-212300001D03*
X48000000Y-213950001D03*
%TD*%
%TO.C,R62*%
X58500000Y-153500000D03*
X58500000Y-155150000D03*
%TD*%
D21*
%TO.C,R37*%
X123618000Y-48740000D03*
X122598000Y-48740000D03*
%TD*%
D13*
%TO.C,C15*%
X106807000Y-49703000D03*
X106807000Y-50663000D03*
%TD*%
D10*
%TO.C,D27*%
X72333000Y-190187501D03*
X72333000Y-192062501D03*
%TD*%
D12*
%TO.C,SW21*%
X104667000Y-196250000D03*
X104667000Y-204000000D03*
%TD*%
D14*
%TO.C,R78*%
X65134000Y-35691000D03*
X65134000Y-34671000D03*
%TD*%
D12*
%TO.C,SW23*%
X94667000Y-196249999D03*
X94667000Y-203999999D03*
%TD*%
D16*
%TO.C,D62*%
X125550000Y-183500000D03*
X123450000Y-183500000D03*
%TD*%
D11*
%TO.C,R56*%
X130500000Y-119500000D03*
X130500000Y-121150000D03*
%TD*%
D10*
%TO.C,D31*%
X50000000Y-190187501D03*
X50000000Y-192062501D03*
%TD*%
D11*
%TO.C,R50*%
X112500000Y-102500000D03*
X112500000Y-104150000D03*
%TD*%
%TO.C,R19*%
X43000000Y-212300001D03*
X43000000Y-213950001D03*
%TD*%
D12*
%TO.C,SW22*%
X99667000Y-196250000D03*
X99667000Y-204000000D03*
%TD*%
D22*
%TO.C,Q2*%
X49000000Y-79580000D03*
X49000000Y-81500000D03*
X51100000Y-80540000D03*
%TD*%
D17*
%TO.C,D76*%
X104937500Y-119500000D03*
X103062500Y-119500000D03*
%TD*%
D16*
%TO.C,D48*%
X53550000Y-149500000D03*
X51450000Y-149500000D03*
%TD*%
D12*
%TO.C,SW16*%
X45000000Y-218250000D03*
X45000000Y-226000000D03*
%TD*%
D17*
%TO.C,D92*%
X122937500Y-170500000D03*
X121062500Y-170500000D03*
%TD*%
%TO.C,D91*%
X104937500Y-170500000D03*
X103062500Y-170500000D03*
%TD*%
D11*
%TO.C,R17*%
X53000000Y-212300001D03*
X53000000Y-213950001D03*
%TD*%
%TO.C,R73*%
X104241600Y-55774400D03*
X104241600Y-57424400D03*
%TD*%
D12*
%TO.C,SW12*%
X67332999Y-218250000D03*
X67332999Y-226000000D03*
%TD*%
D17*
%TO.C,D89*%
X68937500Y-170500000D03*
X67062500Y-170500000D03*
%TD*%
D16*
%TO.C,D53*%
X53550000Y-166500000D03*
X51450000Y-166500000D03*
%TD*%
D23*
%TO.C,U8*%
X104114600Y-61296400D03*
X104114600Y-60346400D03*
X104114600Y-59396400D03*
X101839600Y-59396400D03*
X101839600Y-61296400D03*
%TD*%
D21*
%TO.C,R2*%
X111764000Y-45002000D03*
X110744000Y-45002000D03*
%TD*%
D12*
%TO.C,SW5*%
X104667000Y-218250000D03*
X104667000Y-226000000D03*
%TD*%
D11*
%TO.C,R61*%
X130500000Y-136500000D03*
X130500000Y-138150000D03*
%TD*%
D12*
%TO.C,SW28*%
X67332999Y-196250000D03*
X67332999Y-204000000D03*
%TD*%
D14*
%TO.C,R75*%
X110591600Y-64668400D03*
X110591600Y-63648400D03*
%TD*%
D24*
%TO.C,IC1*%
X117221000Y-30944000D03*
X115951000Y-30944000D03*
X114681000Y-30944000D03*
X113411000Y-30944000D03*
X113411000Y-38144000D03*
X114681000Y-38144000D03*
X115951000Y-38144000D03*
X117221000Y-38144000D03*
%TD*%
D12*
%TO.C,SW1*%
X127000000Y-218250000D03*
X127000000Y-226000000D03*
%TD*%
D17*
%TO.C,D74*%
X68937500Y-119500000D03*
X67062500Y-119500000D03*
%TD*%
D10*
%TO.C,D17*%
X127000000Y-190187501D03*
X127000000Y-192062501D03*
%TD*%
D16*
%TO.C,D43*%
X53550000Y-132500000D03*
X51450000Y-132500000D03*
%TD*%
%TO.C,D41*%
X107550000Y-115500000D03*
X105450000Y-115500000D03*
%TD*%
D11*
%TO.C,R22*%
X115000000Y-190300001D03*
X115000000Y-191950001D03*
%TD*%
D17*
%TO.C,D84*%
X68937500Y-153500000D03*
X67062500Y-153500000D03*
%TD*%
D16*
%TO.C,D52*%
X125550000Y-149500000D03*
X123450000Y-149500000D03*
%TD*%
D12*
%TO.C,SW14*%
X55000000Y-218250001D03*
X55000000Y-226000001D03*
%TD*%
D11*
%TO.C,R63*%
X76500000Y-153500000D03*
X76500000Y-155150000D03*
%TD*%
%TO.C,R58*%
X76500000Y-136500000D03*
X76500000Y-138150000D03*
%TD*%
D14*
%TO.C,R39*%
X120396000Y-31159000D03*
X120396000Y-30139000D03*
%TD*%
D17*
%TO.C,D67*%
X122937500Y-85500000D03*
X121062500Y-85500000D03*
%TD*%
D11*
%TO.C,R60*%
X112500000Y-136500000D03*
X112500000Y-138150000D03*
%TD*%
D10*
%TO.C,D30*%
X55000000Y-190187501D03*
X55000000Y-192062501D03*
%TD*%
D19*
%TO.C,C10*%
X112649000Y-41954000D03*
X113609000Y-41954000D03*
%TD*%
D11*
%TO.C,R31*%
X65333000Y-190300000D03*
X65333000Y-191950000D03*
%TD*%
%TO.C,R25*%
X97667000Y-190300000D03*
X97667000Y-191950000D03*
%TD*%
D19*
%TO.C,C12*%
X110744000Y-47034000D03*
X111704000Y-47034000D03*
%TD*%
D16*
%TO.C,D49*%
X71550000Y-149500000D03*
X69450000Y-149500000D03*
%TD*%
%TO.C,D34*%
X71550000Y-98500000D03*
X69450000Y-98500000D03*
%TD*%
D13*
%TO.C,C4*%
X101828600Y-63648400D03*
X101828600Y-64608400D03*
%TD*%
D11*
%TO.C,R9*%
X97667000Y-212300000D03*
X97667000Y-213950000D03*
%TD*%
D16*
%TO.C,D54*%
X71550000Y-166500000D03*
X69450000Y-166500000D03*
%TD*%
D11*
%TO.C,R7*%
X110000000Y-212300000D03*
X110000000Y-213950000D03*
%TD*%
D17*
%TO.C,D66*%
X104937500Y-85500000D03*
X103062500Y-85500000D03*
%TD*%
D11*
%TO.C,R20*%
X125000000Y-190300001D03*
X125000000Y-191950001D03*
%TD*%
D10*
%TO.C,D28*%
X67333000Y-190187500D03*
X67333000Y-192062500D03*
%TD*%
D25*
%TO.C,Y1*%
X89407000Y-40589000D03*
X89407000Y-42789000D03*
X91107000Y-42789000D03*
X91107000Y-40589000D03*
%TD*%
D16*
%TO.C,D60*%
X89550000Y-183500000D03*
X87450000Y-183500000D03*
%TD*%
D11*
%TO.C,R70*%
X112500000Y-170500000D03*
X112500000Y-172150000D03*
%TD*%
D18*
%TO.C,C13*%
X103177000Y-36493000D03*
X103177000Y-35533000D03*
%TD*%
D11*
%TO.C,R55*%
X112500000Y-119500000D03*
X112500000Y-121150000D03*
%TD*%
D21*
%TO.C,R36*%
X123618000Y-51840000D03*
X122598000Y-51840000D03*
%TD*%
D12*
%TO.C,SW31*%
X50000000Y-196250000D03*
X50000000Y-204000000D03*
%TD*%
D11*
%TO.C,R52*%
X58500000Y-119500000D03*
X58500000Y-121150000D03*
%TD*%
%TO.C,R11*%
X87667000Y-212300000D03*
X87667000Y-213950000D03*
%TD*%
D18*
%TO.C,C2*%
X94107000Y-43549000D03*
X94107000Y-42589000D03*
%TD*%
D17*
%TO.C,D70*%
X86937500Y-102500000D03*
X85062500Y-102500000D03*
%TD*%
D11*
%TO.C,R66*%
X130500000Y-153500000D03*
X130500000Y-155150000D03*
%TD*%
D16*
%TO.C,D40*%
X89550000Y-115500000D03*
X87450000Y-115500000D03*
%TD*%
D17*
%TO.C,D77*%
X122937500Y-119500000D03*
X121062500Y-119500000D03*
%TD*%
%TO.C,D63*%
X50937500Y-85500000D03*
X49062500Y-85500000D03*
%TD*%
D11*
%TO.C,R65*%
X112500000Y-153500000D03*
X112500000Y-155150000D03*
%TD*%
D26*
%TO.C,R40*%
X68690000Y-30353000D03*
X68690000Y-31373000D03*
%TD*%
D10*
%TO.C,D26*%
X77333000Y-190187501D03*
X77333000Y-192062501D03*
%TD*%
D11*
%TO.C,R49*%
X94500000Y-102500000D03*
X94500000Y-104150000D03*
%TD*%
D17*
%TO.C,D69*%
X68937500Y-102500000D03*
X67062500Y-102500000D03*
%TD*%
D27*
%TO.C,U1*%
X104977000Y-42530500D03*
X103377000Y-42530500D03*
X104977000Y-44130500D03*
X103377000Y-44130500D03*
D28*
X106777000Y-39893000D03*
X106377000Y-39893000D03*
X105977000Y-39893000D03*
X105577000Y-39893000D03*
X105177000Y-39893000D03*
X104777000Y-39893000D03*
X104377000Y-39893000D03*
X103977000Y-39893000D03*
X103577000Y-39893000D03*
X103177000Y-39893000D03*
X102777000Y-39893000D03*
X102377000Y-39893000D03*
X101977000Y-39893000D03*
X101577000Y-39893000D03*
D29*
X100739500Y-40730500D03*
X100739500Y-41130500D03*
X100739500Y-41530500D03*
X100739500Y-41930500D03*
X100739500Y-42330500D03*
X100739500Y-42730500D03*
X100739500Y-43130500D03*
X100739500Y-43530500D03*
X100739500Y-43930500D03*
X100739500Y-44330500D03*
X100739500Y-44730500D03*
X100739500Y-45130500D03*
X100739500Y-45530500D03*
X100739500Y-45930500D03*
D28*
X101577000Y-46768000D03*
X101977000Y-46768000D03*
X102377000Y-46768000D03*
X102777000Y-46768000D03*
X103177000Y-46768000D03*
X103577000Y-46768000D03*
X103977000Y-46768000D03*
X104377000Y-46768000D03*
X104777000Y-46768000D03*
X105177000Y-46768000D03*
X105577000Y-46768000D03*
X105977000Y-46768000D03*
X106377000Y-46768000D03*
X106777000Y-46768000D03*
D29*
X107614500Y-45930500D03*
X107614500Y-45530500D03*
X107614500Y-45130500D03*
X107614500Y-44730500D03*
X107614500Y-44330500D03*
X107614500Y-43930500D03*
X107614500Y-43530500D03*
X107614500Y-43130500D03*
X107614500Y-42730500D03*
X107614500Y-42330500D03*
X107614500Y-41930500D03*
X107614500Y-41530500D03*
X107614500Y-41130500D03*
X107614500Y-40730500D03*
%TD*%
D12*
%TO.C,SW20*%
X111999999Y-196250000D03*
X111999999Y-204000000D03*
%TD*%
%TO.C,SW17*%
X127000000Y-196250000D03*
X127000000Y-204000000D03*
%TD*%
D11*
%TO.C,R32*%
X58000000Y-190300001D03*
X58000000Y-191950001D03*
%TD*%
D12*
%TO.C,SW2*%
X122000000Y-218250000D03*
X122000000Y-226000000D03*
%TD*%
D10*
%TO.C,D8*%
X89667000Y-212187500D03*
X89667000Y-214062500D03*
%TD*%
D11*
%TO.C,R68*%
X76500000Y-170500000D03*
X76500000Y-172150000D03*
%TD*%
D16*
%TO.C,D58*%
X53550000Y-183500000D03*
X51450000Y-183500000D03*
%TD*%
D11*
%TO.C,R23*%
X110000000Y-190300000D03*
X110000000Y-191950000D03*
%TD*%
D10*
%TO.C,D19*%
X117000000Y-190187501D03*
X117000000Y-192062501D03*
%TD*%
D14*
%TO.C,R77*%
X115544600Y-58056400D03*
X115544600Y-57036400D03*
%TD*%
D11*
%TO.C,R24*%
X102667000Y-190300000D03*
X102667000Y-191950000D03*
%TD*%
D16*
%TO.C,D33*%
X53550000Y-98500000D03*
X51450000Y-98500000D03*
%TD*%
D11*
%TO.C,R15*%
X65333000Y-212300000D03*
X65333000Y-213950000D03*
%TD*%
D10*
%TO.C,D1*%
X127000000Y-212187500D03*
X127000000Y-214062500D03*
%TD*%
D16*
%TO.C,D47*%
X125550000Y-132500000D03*
X123450000Y-132500000D03*
%TD*%
D30*
%TO.C,U6*%
X110232100Y-60844400D03*
X110232100Y-60004400D03*
X109392100Y-60844400D03*
X109392100Y-60004400D03*
D31*
X111274600Y-61174400D03*
X111274600Y-60674400D03*
X111274600Y-60174400D03*
X111274600Y-59674400D03*
D32*
X110562100Y-58961900D03*
X110062100Y-58961900D03*
X109562100Y-58961900D03*
X109062100Y-58961900D03*
D31*
X108349600Y-59674400D03*
X108349600Y-60174400D03*
X108349600Y-60674400D03*
X108349600Y-61174400D03*
D32*
X109062100Y-61886900D03*
X109562100Y-61886900D03*
X110062100Y-61886900D03*
X110562100Y-61886900D03*
%TD*%
D12*
%TO.C,SW8*%
X89667000Y-218250000D03*
X89667000Y-226000000D03*
%TD*%
D10*
%TO.C,D29*%
X60000000Y-190187501D03*
X60000000Y-192062501D03*
%TD*%
%TO.C,D15*%
X50000000Y-212187501D03*
X50000000Y-214062501D03*
%TD*%
D13*
%TO.C,C16*%
X103124000Y-49703000D03*
X103124000Y-50663000D03*
%TD*%
D12*
%TO.C,SW7*%
X94667000Y-218250000D03*
X94667000Y-226000000D03*
%TD*%
D11*
%TO.C,R5*%
X120000000Y-212300000D03*
X120000000Y-213950000D03*
%TD*%
D21*
%TO.C,R1*%
X111764000Y-43986000D03*
X110744000Y-43986000D03*
%TD*%
D33*
%TO.C,R3*%
X96897000Y-42589000D03*
X97917000Y-42589000D03*
%TD*%
D11*
%TO.C,R8*%
X102667000Y-212300000D03*
X102667000Y-213950000D03*
%TD*%
D10*
%TO.C,D12*%
X67333000Y-212187500D03*
X67333000Y-214062500D03*
%TD*%
D17*
%TO.C,D78*%
X50937500Y-136500000D03*
X49062500Y-136500000D03*
%TD*%
D12*
%TO.C,SW19*%
X117000000Y-196250000D03*
X117000000Y-204000000D03*
%TD*%
D16*
%TO.C,D50*%
X89550000Y-149500000D03*
X87450000Y-149500000D03*
%TD*%
%TO.C,D44*%
X71550000Y-132500000D03*
X69450000Y-132500000D03*
%TD*%
D17*
%TO.C,D83*%
X50937500Y-153500000D03*
X49062500Y-153500000D03*
%TD*%
D13*
%TO.C,C3*%
X105908600Y-63648400D03*
X105908600Y-64608400D03*
%TD*%
D11*
%TO.C,R67*%
X58500000Y-170500000D03*
X58500000Y-172150000D03*
%TD*%
D16*
%TO.C,D37*%
X125550000Y-98500000D03*
X123450000Y-98500000D03*
%TD*%
D17*
%TO.C,D73*%
X50937500Y-119500000D03*
X49062500Y-119500000D03*
%TD*%
D10*
%TO.C,D22*%
X99667000Y-190187500D03*
X99667000Y-192062500D03*
%TD*%
D11*
%TO.C,R71*%
X130500000Y-170500000D03*
X130500000Y-172150000D03*
%TD*%
D18*
%TO.C,C20*%
X116560600Y-58056400D03*
X116560600Y-57096400D03*
%TD*%
D16*
%TO.C,D35*%
X89550000Y-98500000D03*
X87450000Y-98500000D03*
%TD*%
D18*
%TO.C,C14*%
X106807000Y-36493000D03*
X106807000Y-35533000D03*
%TD*%
D10*
%TO.C,D32*%
X45000000Y-190187501D03*
X45000000Y-192062501D03*
%TD*%
D16*
%TO.C,D46*%
X107550000Y-132500000D03*
X105450000Y-132500000D03*
%TD*%
D17*
%TO.C,D81*%
X104937500Y-136500000D03*
X103062500Y-136500000D03*
%TD*%
D16*
%TO.C,D57*%
X125550000Y-166500000D03*
X123450000Y-166500000D03*
%TD*%
D11*
%TO.C,R27*%
X87667000Y-190300000D03*
X87667000Y-191950000D03*
%TD*%
%TO.C,R42*%
X58500000Y-85500000D03*
X58500000Y-87150000D03*
%TD*%
D17*
%TO.C,D64*%
X68937500Y-85500000D03*
X67062500Y-85500000D03*
%TD*%
D16*
%TO.C,D45*%
X89550000Y-132500000D03*
X87450000Y-132500000D03*
%TD*%
D17*
%TO.C,D75*%
X86937500Y-119500000D03*
X85062500Y-119500000D03*
%TD*%
D11*
%TO.C,R44*%
X94500000Y-85500000D03*
X94500000Y-87150000D03*
%TD*%
%TO.C,R30*%
X70333000Y-190300001D03*
X70333000Y-191950001D03*
%TD*%
D26*
%TO.C,R74*%
X105800000Y-49680000D03*
X105800000Y-50700000D03*
%TD*%
D11*
%TO.C,R33*%
X53000000Y-190300001D03*
X53000000Y-191950001D03*
%TD*%
D10*
%TO.C,D13*%
X60000000Y-212187501D03*
X60000000Y-214062501D03*
%TD*%
D12*
%TO.C,SW4*%
X112000000Y-218250000D03*
X112000000Y-226000000D03*
%TD*%
%TO.C,SW30*%
X55000000Y-196250001D03*
X55000000Y-204000001D03*
%TD*%
%TO.C,SW6*%
X99667000Y-218250000D03*
X99667000Y-226000000D03*
%TD*%
D11*
%TO.C,R34*%
X48000000Y-190300001D03*
X48000000Y-191950001D03*
%TD*%
D16*
%TO.C,D51*%
X107550000Y-149500000D03*
X105450000Y-149500000D03*
%TD*%
D19*
%TO.C,C9*%
X110744000Y-48050000D03*
X111704000Y-48050000D03*
%TD*%
%TO.C,C7*%
X112649000Y-42970000D03*
X113609000Y-42970000D03*
%TD*%
D11*
%TO.C,R57*%
X58500000Y-136500000D03*
X58500000Y-138150000D03*
%TD*%
%TO.C,R10*%
X92667000Y-212300000D03*
X92667000Y-213950000D03*
%TD*%
D21*
%TO.C,R72*%
X114151600Y-61235400D03*
X113131600Y-61235400D03*
%TD*%
D17*
%TO.C,D90*%
X86937500Y-170500000D03*
X85062500Y-170500000D03*
%TD*%
D11*
%TO.C,R46*%
X130500000Y-85500000D03*
X130500000Y-87150000D03*
%TD*%
D10*
%TO.C,D11*%
X72333000Y-212187501D03*
X72333000Y-214062501D03*
%TD*%
D17*
%TO.C,D87*%
X122937500Y-153500000D03*
X121062500Y-153500000D03*
%TD*%
D10*
%TO.C,D18*%
X122000000Y-190187501D03*
X122000000Y-192062501D03*
%TD*%
%TO.C,D2*%
X122000000Y-212187500D03*
X122000000Y-214062500D03*
%TD*%
%TO.C,D20*%
X112000000Y-190187500D03*
X112000000Y-192062500D03*
%TD*%
D17*
%TO.C,D86*%
X104937500Y-153500000D03*
X103062500Y-153500000D03*
%TD*%
D12*
%TO.C,SW26*%
X77333000Y-196250000D03*
X77333000Y-204000000D03*
%TD*%
D10*
%TO.C,D16*%
X45000000Y-212187501D03*
X45000000Y-214062501D03*
%TD*%
%TO.C,D9*%
X82333000Y-212187501D03*
X82333000Y-214062501D03*
%TD*%
D12*
%TO.C,SW3*%
X117000000Y-218250000D03*
X117000000Y-226000000D03*
%TD*%
D10*
%TO.C,D23*%
X94667000Y-190187500D03*
X94667000Y-192062500D03*
%TD*%
D17*
%TO.C,D88*%
X50937500Y-170500000D03*
X49062500Y-170500000D03*
%TD*%
%TO.C,D71*%
X104937500Y-102500000D03*
X103062500Y-102500000D03*
%TD*%
D11*
%TO.C,R16*%
X58000000Y-212300001D03*
X58000000Y-213950001D03*
%TD*%
D34*
%TO.C,C8*%
X97917000Y-43605000D03*
X96957000Y-43605000D03*
%TD*%
D17*
%TO.C,D79*%
X68937500Y-136500000D03*
X67062500Y-136500000D03*
%TD*%
D16*
%TO.C,D61*%
X107550000Y-183500000D03*
X105450000Y-183500000D03*
%TD*%
D17*
%TO.C,D85*%
X86937500Y-153500000D03*
X85062500Y-153500000D03*
%TD*%
D14*
%TO.C,R38*%
X119380000Y-31159000D03*
X119380000Y-30139000D03*
%TD*%
D16*
%TO.C,D38*%
X53550000Y-115500000D03*
X51450000Y-115500000D03*
%TD*%
D15*
%TO.C,Q1*%
X66150000Y-28575000D03*
X68050000Y-28575000D03*
X67100000Y-26700000D03*
%TD*%
D11*
%TO.C,R6*%
X115000000Y-212300000D03*
X115000000Y-213950000D03*
%TD*%
D10*
%TO.C,D3*%
X117000000Y-212187500D03*
X117000000Y-214062500D03*
%TD*%
D11*
%TO.C,R54*%
X94500000Y-119500000D03*
X94500000Y-121150000D03*
%TD*%
D17*
%TO.C,D68*%
X50937500Y-102500000D03*
X49062500Y-102500000D03*
%TD*%
D10*
%TO.C,D10*%
X77333000Y-212187501D03*
X77333000Y-214062501D03*
%TD*%
%TO.C,D25*%
X82333000Y-190187501D03*
X82333000Y-192062501D03*
%TD*%
D11*
%TO.C,R48*%
X76500000Y-102500000D03*
X76500000Y-104150000D03*
%TD*%
D12*
%TO.C,SW32*%
X45000000Y-196250000D03*
X45000000Y-204000000D03*
%TD*%
D10*
%TO.C,D5*%
X104667000Y-212187500D03*
X104667000Y-214062500D03*
%TD*%
D11*
%TO.C,R69*%
X94500000Y-170500000D03*
X94500000Y-172150000D03*
%TD*%
D12*
%TO.C,SW29*%
X60000000Y-196250001D03*
X60000000Y-204000001D03*
%TD*%
%TO.C,SW11*%
X72333000Y-218250000D03*
X72333000Y-226000000D03*
%TD*%
%TO.C,SW9*%
X82333000Y-218250000D03*
X82333000Y-226000000D03*
%TD*%
D13*
%TO.C,C17*%
X109067600Y-63648400D03*
X109067600Y-64608400D03*
%TD*%
D16*
%TO.C,D42*%
X125550000Y-115500000D03*
X123450000Y-115500000D03*
%TD*%
D11*
%TO.C,R21*%
X120000000Y-190300001D03*
X120000000Y-191950001D03*
%TD*%
D35*
%TO.C,J1*%
X125663000Y-53490000D03*
X125663000Y-52690000D03*
D36*
X125663000Y-51540000D03*
X125663000Y-50540000D03*
X125663000Y-50040000D03*
X125663000Y-49040000D03*
D35*
X125663000Y-47890000D03*
X125663000Y-47090000D03*
X125663000Y-47090000D03*
X125663000Y-47890000D03*
D36*
X125663000Y-48540000D03*
X125663000Y-49540000D03*
X125663000Y-51040000D03*
X125663000Y-52040000D03*
D35*
X125663000Y-52690000D03*
X125663000Y-53490000D03*
D37*
X126238000Y-54610000D03*
D38*
X130418000Y-54610000D03*
D37*
X126238000Y-45970000D03*
D38*
X130418000Y-45970000D03*
%TD*%
D10*
%TO.C,D6*%
X99667000Y-212187500D03*
X99667000Y-214062500D03*
%TD*%
D16*
%TO.C,D36*%
X107550000Y-98500000D03*
X105450000Y-98500000D03*
%TD*%
D17*
%TO.C,D72*%
X122937500Y-102500000D03*
X121062500Y-102500000D03*
%TD*%
D10*
%TO.C,D7*%
X94667000Y-212187500D03*
X94667000Y-214062500D03*
%TD*%
D39*
%TO.C,R41*%
X47500000Y-79580000D03*
X45850000Y-79580000D03*
%TD*%
D16*
%TO.C,D56*%
X107550000Y-166500000D03*
X105450000Y-166500000D03*
%TD*%
%TO.C,D39*%
X71550000Y-115500000D03*
X69450000Y-115500000D03*
%TD*%
D11*
%TO.C,R28*%
X80333000Y-190300001D03*
X80333000Y-191950001D03*
%TD*%
D34*
%TO.C,C6*%
X97917000Y-44621000D03*
X96957000Y-44621000D03*
%TD*%
D11*
%TO.C,R45*%
X112500000Y-85500000D03*
X112500000Y-87150000D03*
%TD*%
%TO.C,R35*%
X43000000Y-190300001D03*
X43000000Y-191950001D03*
%TD*%
%TO.C,R12*%
X80333000Y-212300001D03*
X80333000Y-213950001D03*
%TD*%
M02*
