%TF.GenerationSoftware,KiCad,Pcbnew,8.0.7*%
%TF.CreationDate,2024-12-27T14:43:48-05:00*%
%TF.ProjectId,rp2040-programmer-calculator,72703230-3430-42d7-9072-6f6772616d6d,rev?*%
%TF.SameCoordinates,Original*%
%TF.FileFunction,Legend,Bot*%
%TF.FilePolarity,Positive*%
%FSLAX46Y46*%
G04 Gerber Fmt 4.6, Leading zero omitted, Abs format (unit mm)*
G04 Created by KiCad (PCBNEW 8.0.7) date 2024-12-27 14:43:48*
%MOMM*%
%LPD*%
G01*
G04 APERTURE LIST*
G04 Aperture macros list*
%AMRoundRect*
0 Rectangle with rounded corners*
0 $1 Rounding radius*
0 $2 $3 $4 $5 $6 $7 $8 $9 X,Y pos of 4 corners*
0 Add a 4 corners polygon primitive as box body*
4,1,4,$2,$3,$4,$5,$6,$7,$8,$9,$2,$3,0*
0 Add four circle primitives for the rounded corners*
1,1,$1+$1,$2,$3*
1,1,$1+$1,$4,$5*
1,1,$1+$1,$6,$7*
1,1,$1+$1,$8,$9*
0 Add four rect primitives between the rounded corners*
20,1,$1+$1,$2,$3,$4,$5,0*
20,1,$1+$1,$4,$5,$6,$7,0*
20,1,$1+$1,$6,$7,$8,$9,0*
20,1,$1+$1,$8,$9,$2,$3,0*%
G04 Aperture macros list end*
%ADD10C,0.150000*%
%ADD11C,0.120000*%
%ADD12C,0.100000*%
%ADD13C,1.777800*%
%ADD14C,3.505000*%
%ADD15C,1.066600*%
%ADD16C,2.108000*%
%ADD17RoundRect,0.038000X0.850000X-0.850000X0.850000X0.850000X-0.850000X0.850000X-0.850000X-0.850000X0*%
%ADD18O,1.776000X1.776000*%
%ADD19C,0.726000*%
%ADD20O,2.176000X1.076000*%
%ADD21O,1.876000X1.076000*%
%ADD22RoundRect,0.038000X0.500000X-0.625000X0.500000X0.625000X-0.500000X0.625000X-0.500000X-0.625000X0*%
%ADD23RoundRect,0.265833X0.372167X0.647167X-0.372167X0.647167X-0.372167X-0.647167X0.372167X-0.647167X0*%
%ADD24O,1.276000X1.826000*%
%ADD25RoundRect,0.038000X0.225000X-0.875000X0.225000X0.875000X-0.225000X0.875000X-0.225000X-0.875000X0*%
%ADD26RoundRect,0.038000X-0.850000X0.850000X-0.850000X-0.850000X0.850000X-0.850000X0.850000X0.850000X0*%
G04 APERTURE END LIST*
D10*
X123241800Y-36405523D02*
X123194180Y-36262666D01*
X123194180Y-36262666D02*
X123194180Y-36024571D01*
X123194180Y-36024571D02*
X123241800Y-35929333D01*
X123241800Y-35929333D02*
X123289419Y-35881714D01*
X123289419Y-35881714D02*
X123384657Y-35834095D01*
X123384657Y-35834095D02*
X123479895Y-35834095D01*
X123479895Y-35834095D02*
X123575133Y-35881714D01*
X123575133Y-35881714D02*
X123622752Y-35929333D01*
X123622752Y-35929333D02*
X123670371Y-36024571D01*
X123670371Y-36024571D02*
X123717990Y-36215047D01*
X123717990Y-36215047D02*
X123765609Y-36310285D01*
X123765609Y-36310285D02*
X123813228Y-36357904D01*
X123813228Y-36357904D02*
X123908466Y-36405523D01*
X123908466Y-36405523D02*
X124003704Y-36405523D01*
X124003704Y-36405523D02*
X124098942Y-36357904D01*
X124098942Y-36357904D02*
X124146561Y-36310285D01*
X124146561Y-36310285D02*
X124194180Y-36215047D01*
X124194180Y-36215047D02*
X124194180Y-35976952D01*
X124194180Y-35976952D02*
X124146561Y-35834095D01*
X124194180Y-35500761D02*
X123194180Y-35262666D01*
X123194180Y-35262666D02*
X123908466Y-35072190D01*
X123908466Y-35072190D02*
X123194180Y-34881714D01*
X123194180Y-34881714D02*
X124194180Y-34643619D01*
X124194180Y-33834095D02*
X124194180Y-34024571D01*
X124194180Y-34024571D02*
X124146561Y-34119809D01*
X124146561Y-34119809D02*
X124098942Y-34167428D01*
X124098942Y-34167428D02*
X123956085Y-34262666D01*
X123956085Y-34262666D02*
X123765609Y-34310285D01*
X123765609Y-34310285D02*
X123384657Y-34310285D01*
X123384657Y-34310285D02*
X123289419Y-34262666D01*
X123289419Y-34262666D02*
X123241800Y-34215047D01*
X123241800Y-34215047D02*
X123194180Y-34119809D01*
X123194180Y-34119809D02*
X123194180Y-33929333D01*
X123194180Y-33929333D02*
X123241800Y-33834095D01*
X123241800Y-33834095D02*
X123289419Y-33786476D01*
X123289419Y-33786476D02*
X123384657Y-33738857D01*
X123384657Y-33738857D02*
X123622752Y-33738857D01*
X123622752Y-33738857D02*
X123717990Y-33786476D01*
X123717990Y-33786476D02*
X123765609Y-33834095D01*
X123765609Y-33834095D02*
X123813228Y-33929333D01*
X123813228Y-33929333D02*
X123813228Y-34119809D01*
X123813228Y-34119809D02*
X123765609Y-34215047D01*
X123765609Y-34215047D02*
X123717990Y-34262666D01*
X123717990Y-34262666D02*
X123622752Y-34310285D01*
X124194180Y-33405523D02*
X124194180Y-32786476D01*
X124194180Y-32786476D02*
X123813228Y-33119809D01*
X123813228Y-33119809D02*
X123813228Y-32976952D01*
X123813228Y-32976952D02*
X123765609Y-32881714D01*
X123765609Y-32881714D02*
X123717990Y-32834095D01*
X123717990Y-32834095D02*
X123622752Y-32786476D01*
X123622752Y-32786476D02*
X123384657Y-32786476D01*
X123384657Y-32786476D02*
X123289419Y-32834095D01*
X123289419Y-32834095D02*
X123241800Y-32881714D01*
X123241800Y-32881714D02*
X123194180Y-32976952D01*
X123194180Y-32976952D02*
X123194180Y-33262666D01*
X123194180Y-33262666D02*
X123241800Y-33357904D01*
X123241800Y-33357904D02*
X123289419Y-33405523D01*
X120485714Y-72481009D02*
X120342857Y-72528628D01*
X120342857Y-72528628D02*
X120295238Y-72576247D01*
X120295238Y-72576247D02*
X120247619Y-72671485D01*
X120247619Y-72671485D02*
X120247619Y-72814342D01*
X120247619Y-72814342D02*
X120295238Y-72909580D01*
X120295238Y-72909580D02*
X120342857Y-72957200D01*
X120342857Y-72957200D02*
X120438095Y-73004819D01*
X120438095Y-73004819D02*
X120819047Y-73004819D01*
X120819047Y-73004819D02*
X120819047Y-72004819D01*
X120819047Y-72004819D02*
X120485714Y-72004819D01*
X120485714Y-72004819D02*
X120390476Y-72052438D01*
X120390476Y-72052438D02*
X120342857Y-72100057D01*
X120342857Y-72100057D02*
X120295238Y-72195295D01*
X120295238Y-72195295D02*
X120295238Y-72290533D01*
X120295238Y-72290533D02*
X120342857Y-72385771D01*
X120342857Y-72385771D02*
X120390476Y-72433390D01*
X120390476Y-72433390D02*
X120485714Y-72481009D01*
X120485714Y-72481009D02*
X120819047Y-72481009D01*
X119961904Y-72004819D02*
X119390476Y-72004819D01*
X119676190Y-73004819D02*
X119676190Y-72004819D01*
X118533333Y-73004819D02*
X119104761Y-73004819D01*
X118819047Y-73004819D02*
X118819047Y-72004819D01*
X118819047Y-72004819D02*
X118914285Y-72147676D01*
X118914285Y-72147676D02*
X119009523Y-72242914D01*
X119009523Y-72242914D02*
X119104761Y-72290533D01*
X114204819Y-215363095D02*
X115014342Y-215363095D01*
X115014342Y-215363095D02*
X115109580Y-215410714D01*
X115109580Y-215410714D02*
X115157200Y-215458333D01*
X115157200Y-215458333D02*
X115204819Y-215553571D01*
X115204819Y-215553571D02*
X115204819Y-215744047D01*
X115204819Y-215744047D02*
X115157200Y-215839285D01*
X115157200Y-215839285D02*
X115109580Y-215886904D01*
X115109580Y-215886904D02*
X115014342Y-215934523D01*
X115014342Y-215934523D02*
X114204819Y-215934523D01*
X114300057Y-216363095D02*
X114252438Y-216410714D01*
X114252438Y-216410714D02*
X114204819Y-216505952D01*
X114204819Y-216505952D02*
X114204819Y-216744047D01*
X114204819Y-216744047D02*
X114252438Y-216839285D01*
X114252438Y-216839285D02*
X114300057Y-216886904D01*
X114300057Y-216886904D02*
X114395295Y-216934523D01*
X114395295Y-216934523D02*
X114490533Y-216934523D01*
X114490533Y-216934523D02*
X114633390Y-216886904D01*
X114633390Y-216886904D02*
X115204819Y-216315476D01*
X115204819Y-216315476D02*
X115204819Y-216934523D01*
X69204819Y-215363095D02*
X70014342Y-215363095D01*
X70014342Y-215363095D02*
X70109580Y-215410714D01*
X70109580Y-215410714D02*
X70157200Y-215458333D01*
X70157200Y-215458333D02*
X70204819Y-215553571D01*
X70204819Y-215553571D02*
X70204819Y-215744047D01*
X70204819Y-215744047D02*
X70157200Y-215839285D01*
X70157200Y-215839285D02*
X70109580Y-215886904D01*
X70109580Y-215886904D02*
X70014342Y-215934523D01*
X70014342Y-215934523D02*
X69204819Y-215934523D01*
X69204819Y-216315476D02*
X69204819Y-216934523D01*
X69204819Y-216934523D02*
X69585771Y-216601190D01*
X69585771Y-216601190D02*
X69585771Y-216744047D01*
X69585771Y-216744047D02*
X69633390Y-216839285D01*
X69633390Y-216839285D02*
X69681009Y-216886904D01*
X69681009Y-216886904D02*
X69776247Y-216934523D01*
X69776247Y-216934523D02*
X70014342Y-216934523D01*
X70014342Y-216934523D02*
X70109580Y-216886904D01*
X70109580Y-216886904D02*
X70157200Y-216839285D01*
X70157200Y-216839285D02*
X70204819Y-216744047D01*
X70204819Y-216744047D02*
X70204819Y-216458333D01*
X70204819Y-216458333D02*
X70157200Y-216363095D01*
X70157200Y-216363095D02*
X70109580Y-216315476D01*
X86278819Y-74850666D02*
X86993104Y-74850666D01*
X86993104Y-74850666D02*
X87135961Y-74803047D01*
X87135961Y-74803047D02*
X87231200Y-74707809D01*
X87231200Y-74707809D02*
X87278819Y-74564952D01*
X87278819Y-74564952D02*
X87278819Y-74469714D01*
X86374057Y-75279238D02*
X86326438Y-75326857D01*
X86326438Y-75326857D02*
X86278819Y-75422095D01*
X86278819Y-75422095D02*
X86278819Y-75660190D01*
X86278819Y-75660190D02*
X86326438Y-75755428D01*
X86326438Y-75755428D02*
X86374057Y-75803047D01*
X86374057Y-75803047D02*
X86469295Y-75850666D01*
X86469295Y-75850666D02*
X86564533Y-75850666D01*
X86564533Y-75850666D02*
X86707390Y-75803047D01*
X86707390Y-75803047D02*
X87278819Y-75231619D01*
X87278819Y-75231619D02*
X87278819Y-75850666D01*
X69204819Y-193363095D02*
X70014342Y-193363095D01*
X70014342Y-193363095D02*
X70109580Y-193410714D01*
X70109580Y-193410714D02*
X70157200Y-193458333D01*
X70157200Y-193458333D02*
X70204819Y-193553571D01*
X70204819Y-193553571D02*
X70204819Y-193744047D01*
X70204819Y-193744047D02*
X70157200Y-193839285D01*
X70157200Y-193839285D02*
X70109580Y-193886904D01*
X70109580Y-193886904D02*
X70014342Y-193934523D01*
X70014342Y-193934523D02*
X69204819Y-193934523D01*
X69204819Y-194886904D02*
X69204819Y-194410714D01*
X69204819Y-194410714D02*
X69681009Y-194363095D01*
X69681009Y-194363095D02*
X69633390Y-194410714D01*
X69633390Y-194410714D02*
X69585771Y-194505952D01*
X69585771Y-194505952D02*
X69585771Y-194744047D01*
X69585771Y-194744047D02*
X69633390Y-194839285D01*
X69633390Y-194839285D02*
X69681009Y-194886904D01*
X69681009Y-194886904D02*
X69776247Y-194934523D01*
X69776247Y-194934523D02*
X70014342Y-194934523D01*
X70014342Y-194934523D02*
X70109580Y-194886904D01*
X70109580Y-194886904D02*
X70157200Y-194839285D01*
X70157200Y-194839285D02*
X70204819Y-194744047D01*
X70204819Y-194744047D02*
X70204819Y-194505952D01*
X70204819Y-194505952D02*
X70157200Y-194410714D01*
X70157200Y-194410714D02*
X70109580Y-194363095D01*
X114204819Y-193363095D02*
X115014342Y-193363095D01*
X115014342Y-193363095D02*
X115109580Y-193410714D01*
X115109580Y-193410714D02*
X115157200Y-193458333D01*
X115157200Y-193458333D02*
X115204819Y-193553571D01*
X115204819Y-193553571D02*
X115204819Y-193744047D01*
X115204819Y-193744047D02*
X115157200Y-193839285D01*
X115157200Y-193839285D02*
X115109580Y-193886904D01*
X115109580Y-193886904D02*
X115014342Y-193934523D01*
X115014342Y-193934523D02*
X114204819Y-193934523D01*
X114538152Y-194839285D02*
X115204819Y-194839285D01*
X114157200Y-194601190D02*
X114871485Y-194363095D01*
X114871485Y-194363095D02*
X114871485Y-194982142D01*
D11*
%TO.C,SW63*%
X118649000Y-31396000D02*
X118649000Y-37796000D01*
X118649000Y-37796000D02*
X119849000Y-37796000D01*
X119849000Y-31396000D02*
X118649000Y-31396000D01*
X121449000Y-37796000D02*
X122649000Y-37796000D01*
X122649000Y-31396000D02*
X121449000Y-31396000D01*
X122649000Y-37796000D02*
X122649000Y-31396000D01*
%TO.C,BT1*%
X116590000Y-63540000D02*
X116590000Y-71360000D01*
X116590000Y-71360000D02*
X122710000Y-71360000D01*
X117350000Y-67500000D02*
X118350000Y-67500000D01*
X117350000Y-69100000D02*
X117350000Y-67500000D01*
X117510000Y-63540000D02*
X116590000Y-63540000D01*
X117510000Y-65140000D02*
X116590000Y-65140000D01*
X117510000Y-65140000D02*
X117510000Y-63540000D01*
X117790000Y-65140000D02*
X117510000Y-65140000D01*
X118350000Y-67500000D02*
X118350000Y-69100000D01*
X118350000Y-69100000D02*
X117350000Y-69100000D01*
X119150000Y-67000000D02*
X120150000Y-67000000D01*
X119150000Y-71360000D02*
X119150000Y-67000000D01*
X120150000Y-67000000D02*
X120150000Y-71360000D01*
X120950000Y-67500000D02*
X120950000Y-69100000D01*
X120950000Y-69100000D02*
X121950000Y-69100000D01*
X120950000Y-71360000D02*
X120950000Y-69100000D01*
X121450000Y-71360000D02*
X121450000Y-69100000D01*
X121510000Y-63925000D02*
X121510000Y-65140000D01*
X121790000Y-63540000D02*
X121790000Y-65140000D01*
X121790000Y-65140000D02*
X121510000Y-65140000D01*
X121790000Y-65140000D02*
X122710000Y-65140000D01*
X121950000Y-67500000D02*
X120950000Y-67500000D01*
X121950000Y-69100000D02*
X121950000Y-67500000D01*
X122710000Y-63540000D02*
X121790000Y-63540000D01*
X122710000Y-71360000D02*
X122710000Y-63540000D01*
D10*
%TO.C,U2*%
X103175000Y-213250000D02*
X103175000Y-219000000D01*
X103175000Y-213250000D02*
X103750000Y-213250000D01*
X103175000Y-219000000D02*
X103750000Y-219000000D01*
X113250000Y-213250000D02*
X113825000Y-213250000D01*
X113250000Y-219000000D02*
X113825000Y-219000000D01*
X113825000Y-213250000D02*
X113825000Y-219000000D01*
D11*
X113580000Y-219740000D02*
X113250000Y-219500000D01*
X113580000Y-219260000D01*
X113580000Y-219740000D01*
G36*
X113580000Y-219740000D02*
G01*
X113250000Y-219500000D01*
X113580000Y-219260000D01*
X113580000Y-219740000D01*
G37*
D10*
%TO.C,U3*%
X58175000Y-213250000D02*
X58175000Y-219000000D01*
X58175000Y-213250000D02*
X58750000Y-213250000D01*
X58175000Y-219000000D02*
X58750000Y-219000000D01*
X68250000Y-213250000D02*
X68825000Y-213250000D01*
X68250000Y-219000000D02*
X68825000Y-219000000D01*
X68825000Y-213250000D02*
X68825000Y-219000000D01*
D11*
X68580000Y-219740000D02*
X68250000Y-219500000D01*
X68580000Y-219260000D01*
X68580000Y-219740000D01*
G36*
X68580000Y-219740000D02*
G01*
X68250000Y-219500000D01*
X68580000Y-219260000D01*
X68580000Y-219740000D01*
G37*
D12*
%TO.C,J2*%
X87824000Y-73854000D02*
X89154000Y-73854000D01*
X87824000Y-75184000D02*
X87824000Y-73854000D01*
X90424000Y-76514000D02*
X90424000Y-73854000D01*
X100644000Y-73854000D02*
X90424000Y-73854000D01*
X100644000Y-76514000D02*
X90424000Y-76514000D01*
X100644000Y-76514000D02*
X100644000Y-73854000D01*
D10*
%TO.C,U5*%
X58175000Y-191250000D02*
X58175000Y-197000000D01*
X58175000Y-191250000D02*
X58750000Y-191250000D01*
X58175000Y-197000000D02*
X58750000Y-197000000D01*
X68250000Y-191250000D02*
X68825000Y-191250000D01*
X68250000Y-197000000D02*
X68825000Y-197000000D01*
X68825000Y-191250000D02*
X68825000Y-197000000D01*
D11*
X68580000Y-197740000D02*
X68250000Y-197500000D01*
X68580000Y-197260000D01*
X68580000Y-197740000D01*
G36*
X68580000Y-197740000D02*
G01*
X68250000Y-197500000D01*
X68580000Y-197260000D01*
X68580000Y-197740000D01*
G37*
D10*
%TO.C,U4*%
X103175000Y-191250000D02*
X103175000Y-197000000D01*
X103175000Y-191250000D02*
X103750000Y-191250000D01*
X103175000Y-197000000D02*
X103750000Y-197000000D01*
X113250000Y-191250000D02*
X113825000Y-191250000D01*
X113250000Y-197000000D02*
X113825000Y-197000000D01*
X113825000Y-191250000D02*
X113825000Y-197000000D01*
D11*
X113580000Y-197740000D02*
X113250000Y-197500000D01*
X113580000Y-197260000D01*
X113580000Y-197740000D01*
G36*
X113580000Y-197740000D02*
G01*
X113250000Y-197500000D01*
X113580000Y-197260000D01*
X113580000Y-197740000D01*
G37*
%TD*%
%LPC*%
D13*
%TO.C,SW53*%
X44500000Y-158000000D03*
D14*
X50000000Y-158000000D03*
D15*
X55220000Y-153800000D03*
D13*
X55500000Y-158000000D03*
D16*
X50000000Y-163900000D03*
X45000000Y-161800000D03*
%TD*%
D13*
%TO.C,SW55*%
X80500000Y-158000000D03*
D14*
X86000000Y-158000000D03*
D15*
X91220000Y-153800000D03*
D13*
X91500000Y-158000000D03*
D16*
X86000000Y-163900000D03*
X81000000Y-161800000D03*
%TD*%
D13*
%TO.C,SW59*%
X62500000Y-175000000D03*
D14*
X68000000Y-175000000D03*
D15*
X73220000Y-170800000D03*
D13*
X73500000Y-175000000D03*
D16*
X68000000Y-180900000D03*
X63000000Y-178800000D03*
%TD*%
D13*
%TO.C,SW46*%
X98500000Y-124000000D03*
D14*
X104000000Y-124000000D03*
D15*
X109220000Y-119800000D03*
D13*
X109500000Y-124000000D03*
D16*
X104000000Y-129900000D03*
X99000000Y-127800000D03*
%TD*%
D13*
%TO.C,SW40*%
X80500000Y-107000000D03*
D14*
X86000000Y-107000000D03*
D15*
X91220000Y-102800000D03*
D13*
X91500000Y-107000000D03*
D16*
X86000000Y-112900000D03*
X81000000Y-110800000D03*
%TD*%
D13*
%TO.C,SW48*%
X44500000Y-141000000D03*
D14*
X50000000Y-141000000D03*
D15*
X55220000Y-136800000D03*
D13*
X55500000Y-141000000D03*
D16*
X50000000Y-146900000D03*
X45000000Y-144800000D03*
%TD*%
D13*
%TO.C,SW49*%
X62500000Y-141000000D03*
D14*
X68000000Y-141000000D03*
D15*
X73220000Y-136800000D03*
D13*
X73500000Y-141000000D03*
D16*
X68000000Y-146900000D03*
X63000000Y-144800000D03*
%TD*%
D13*
%TO.C,SW42*%
X116500000Y-107000000D03*
D14*
X122000000Y-107000000D03*
D15*
X127220000Y-102800000D03*
D13*
X127500000Y-107000000D03*
D16*
X122000000Y-112900000D03*
X117000000Y-110800000D03*
%TD*%
D13*
%TO.C,SW43*%
X44500000Y-124000000D03*
D14*
X50000000Y-124000000D03*
D15*
X55220000Y-119800000D03*
D13*
X55500000Y-124000000D03*
D16*
X50000000Y-129900000D03*
X45000000Y-127800000D03*
%TD*%
D13*
%TO.C,SW58*%
X44500000Y-175000000D03*
D14*
X50000000Y-175000000D03*
D15*
X55220000Y-170800000D03*
D13*
X55500000Y-175000000D03*
D16*
X50000000Y-180900000D03*
X45000000Y-178800000D03*
%TD*%
D13*
%TO.C,SW54*%
X62500000Y-158000000D03*
D14*
X68000000Y-158000000D03*
D15*
X73220000Y-153800000D03*
D13*
X73500000Y-158000000D03*
D16*
X68000000Y-163900000D03*
X63000000Y-161800000D03*
%TD*%
D13*
%TO.C,SW47*%
X116500000Y-124000000D03*
D14*
X122000000Y-124000000D03*
D15*
X127220000Y-119800000D03*
D13*
X127500000Y-124000000D03*
D16*
X122000000Y-129900000D03*
X117000000Y-127800000D03*
%TD*%
D13*
%TO.C,SW56*%
X98500000Y-158000000D03*
D14*
X104000000Y-158000000D03*
D15*
X109220000Y-153800000D03*
D13*
X109500000Y-158000000D03*
D16*
X104000000Y-163900000D03*
X99000000Y-161800000D03*
%TD*%
D13*
%TO.C,SW38*%
X44500000Y-107000000D03*
D14*
X50000000Y-107000000D03*
D15*
X55220000Y-102800000D03*
D13*
X55500000Y-107000000D03*
D16*
X50000000Y-112900000D03*
X45000000Y-110800000D03*
%TD*%
D13*
%TO.C,SW62*%
X116500000Y-175000000D03*
D14*
X122000000Y-175000000D03*
D15*
X127220000Y-170800000D03*
D13*
X127500000Y-175000000D03*
D16*
X122000000Y-180900000D03*
X117000000Y-178800000D03*
%TD*%
D13*
%TO.C,SW44*%
X62500000Y-124000000D03*
D14*
X68000000Y-124000000D03*
D15*
X73220000Y-119800000D03*
D13*
X73500000Y-124000000D03*
D16*
X68000000Y-129900000D03*
X63000000Y-127800000D03*
%TD*%
D13*
%TO.C,SW33*%
X44500000Y-90000000D03*
D14*
X50000000Y-90000000D03*
D15*
X55220000Y-85800000D03*
D13*
X55500000Y-90000000D03*
D16*
X50000000Y-95900000D03*
X45000000Y-93800000D03*
%TD*%
D13*
%TO.C,SW34*%
X62500000Y-90000000D03*
D14*
X68000000Y-90000000D03*
D15*
X73220000Y-85800000D03*
D13*
X73500000Y-90000000D03*
D16*
X68000000Y-95900000D03*
X63000000Y-93800000D03*
%TD*%
D13*
%TO.C,SW35*%
X80500000Y-90000000D03*
D14*
X86000000Y-90000000D03*
D15*
X91220000Y-85800000D03*
D13*
X91500000Y-90000000D03*
D16*
X86000000Y-95900000D03*
X81000000Y-93800000D03*
%TD*%
D17*
%TO.C,U7*%
X62000000Y-23000000D03*
D18*
X64540000Y-23000000D03*
X67080000Y-23000000D03*
X69620000Y-23000000D03*
X72160000Y-23000000D03*
X74700000Y-23000000D03*
X77240000Y-23000000D03*
X79780000Y-23000000D03*
X82320000Y-23000000D03*
X84860000Y-23000000D03*
X87400000Y-23000000D03*
X89940000Y-23000000D03*
X92480000Y-23000000D03*
X95020000Y-23000000D03*
X97560000Y-23000000D03*
X100100000Y-23000000D03*
X102640000Y-23000000D03*
X105180000Y-23000000D03*
X107720000Y-23000000D03*
X110260000Y-23000000D03*
%TD*%
D13*
%TO.C,SW39*%
X62500000Y-107000000D03*
D14*
X68000000Y-107000000D03*
D15*
X73220000Y-102800000D03*
D13*
X73500000Y-107000000D03*
D16*
X68000000Y-112900000D03*
X63000000Y-110800000D03*
%TD*%
D13*
%TO.C,SW61*%
X98500000Y-175000000D03*
D14*
X104000000Y-175000000D03*
D15*
X109220000Y-170800000D03*
D13*
X109500000Y-175000000D03*
D16*
X104000000Y-180900000D03*
X99000000Y-178800000D03*
%TD*%
D13*
%TO.C,SW60*%
X80500000Y-175000000D03*
D14*
X86000000Y-175000000D03*
D15*
X91220000Y-170800000D03*
D13*
X91500000Y-175000000D03*
D16*
X86000000Y-180900000D03*
X81000000Y-178800000D03*
%TD*%
D13*
%TO.C,SW57*%
X116500000Y-158000000D03*
D14*
X122000000Y-158000000D03*
D15*
X127220000Y-153800000D03*
D13*
X127500000Y-158000000D03*
D16*
X122000000Y-163900000D03*
X117000000Y-161800000D03*
%TD*%
D13*
%TO.C,SW41*%
X98500000Y-107000000D03*
D14*
X104000000Y-107000000D03*
D15*
X109220000Y-102800000D03*
D13*
X109500000Y-107000000D03*
D16*
X104000000Y-112900000D03*
X99000000Y-110800000D03*
%TD*%
D13*
%TO.C,SW51*%
X98500000Y-141000000D03*
D14*
X104000000Y-141000000D03*
D15*
X109220000Y-136800000D03*
D13*
X109500000Y-141000000D03*
D16*
X104000000Y-146900000D03*
X99000000Y-144800000D03*
%TD*%
D13*
%TO.C,SW36*%
X98500000Y-90000000D03*
D14*
X104000000Y-90000000D03*
D15*
X109220000Y-85800000D03*
D13*
X109500000Y-90000000D03*
D16*
X104000000Y-95900000D03*
X99000000Y-93800000D03*
%TD*%
D13*
%TO.C,SW45*%
X80500000Y-124000000D03*
D14*
X86000000Y-124000000D03*
D15*
X91220000Y-119800000D03*
D13*
X91500000Y-124000000D03*
D16*
X86000000Y-129900000D03*
X81000000Y-127800000D03*
%TD*%
D19*
%TO.C,J1*%
X126738000Y-53180000D03*
X126738000Y-47400000D03*
D20*
X126238000Y-54610000D03*
D21*
X130418000Y-54610000D03*
D20*
X126238000Y-45970000D03*
D21*
X130418000Y-45970000D03*
%TD*%
D13*
%TO.C,SW37*%
X116500000Y-90000000D03*
D14*
X122000000Y-90000000D03*
D15*
X127220000Y-85800000D03*
D13*
X127500000Y-90000000D03*
D16*
X122000000Y-95900000D03*
X117000000Y-93800000D03*
%TD*%
D13*
%TO.C,SW50*%
X80500000Y-141000000D03*
D14*
X86000000Y-141000000D03*
D15*
X91220000Y-136800000D03*
D13*
X91500000Y-141000000D03*
D16*
X86000000Y-146900000D03*
X81000000Y-144800000D03*
%TD*%
D13*
%TO.C,SW52*%
X116500000Y-141000000D03*
D14*
X122000000Y-141000000D03*
D15*
X127220000Y-136800000D03*
D13*
X127500000Y-141000000D03*
D16*
X122000000Y-146900000D03*
X117000000Y-144800000D03*
%TD*%
D22*
%TO.C,SW63*%
X120649000Y-38471000D03*
X120649000Y-30721000D03*
%TD*%
D23*
%TO.C,BT1*%
X118650000Y-65000000D03*
D24*
X120650000Y-65000000D03*
%TD*%
D25*
%TO.C,U2*%
X112725000Y-219725000D03*
X112075000Y-219725000D03*
X111425000Y-219725000D03*
X110775000Y-219725000D03*
X110125000Y-219725000D03*
X109475000Y-219725000D03*
X108825000Y-219725000D03*
X108175000Y-219725000D03*
X107525000Y-219725000D03*
X106875000Y-219725000D03*
X106225000Y-219725000D03*
X105575000Y-219725000D03*
X104925000Y-219725000D03*
X104275000Y-219725000D03*
X104275000Y-212525000D03*
X104925000Y-212525000D03*
X105575000Y-212525000D03*
X106225000Y-212525000D03*
X106875000Y-212525000D03*
X107525000Y-212525000D03*
X108175000Y-212525000D03*
X108825000Y-212525000D03*
X109475000Y-212525000D03*
X110125000Y-212525000D03*
X110775000Y-212525000D03*
X111425000Y-212525000D03*
X112075000Y-212525000D03*
X112725000Y-212525000D03*
%TD*%
%TO.C,U3*%
X67725000Y-219725000D03*
X67075000Y-219725000D03*
X66425000Y-219725000D03*
X65775000Y-219725000D03*
X65125000Y-219725000D03*
X64475000Y-219725000D03*
X63825000Y-219725000D03*
X63175000Y-219725000D03*
X62525000Y-219725000D03*
X61875000Y-219725000D03*
X61225000Y-219725000D03*
X60575000Y-219725000D03*
X59925000Y-219725000D03*
X59275000Y-219725000D03*
X59275000Y-212525000D03*
X59925000Y-212525000D03*
X60575000Y-212525000D03*
X61225000Y-212525000D03*
X61875000Y-212525000D03*
X62525000Y-212525000D03*
X63175000Y-212525000D03*
X63825000Y-212525000D03*
X64475000Y-212525000D03*
X65125000Y-212525000D03*
X65775000Y-212525000D03*
X66425000Y-212525000D03*
X67075000Y-212525000D03*
X67725000Y-212525000D03*
%TD*%
D26*
%TO.C,J2*%
X89154000Y-75184000D03*
D18*
X91694000Y-75184000D03*
X94234000Y-75184000D03*
X96774000Y-75184000D03*
X99314000Y-75184000D03*
%TD*%
D25*
%TO.C,U5*%
X67725000Y-197725000D03*
X67075000Y-197725000D03*
X66425000Y-197725000D03*
X65775000Y-197725000D03*
X65125000Y-197725000D03*
X64475000Y-197725000D03*
X63825000Y-197725000D03*
X63175000Y-197725000D03*
X62525000Y-197725000D03*
X61875000Y-197725000D03*
X61225000Y-197725000D03*
X60575000Y-197725000D03*
X59925000Y-197725000D03*
X59275000Y-197725000D03*
X59275000Y-190525000D03*
X59925000Y-190525000D03*
X60575000Y-190525000D03*
X61225000Y-190525000D03*
X61875000Y-190525000D03*
X62525000Y-190525000D03*
X63175000Y-190525000D03*
X63825000Y-190525000D03*
X64475000Y-190525000D03*
X65125000Y-190525000D03*
X65775000Y-190525000D03*
X66425000Y-190525000D03*
X67075000Y-190525000D03*
X67725000Y-190525000D03*
%TD*%
%TO.C,U4*%
X112725000Y-197725000D03*
X112075000Y-197725000D03*
X111425000Y-197725000D03*
X110775000Y-197725000D03*
X110125000Y-197725000D03*
X109475000Y-197725000D03*
X108825000Y-197725000D03*
X108175000Y-197725000D03*
X107525000Y-197725000D03*
X106875000Y-197725000D03*
X106225000Y-197725000D03*
X105575000Y-197725000D03*
X104925000Y-197725000D03*
X104275000Y-197725000D03*
X104275000Y-190525000D03*
X104925000Y-190525000D03*
X105575000Y-190525000D03*
X106225000Y-190525000D03*
X106875000Y-190525000D03*
X107525000Y-190525000D03*
X108175000Y-190525000D03*
X108825000Y-190525000D03*
X109475000Y-190525000D03*
X110125000Y-190525000D03*
X110775000Y-190525000D03*
X111425000Y-190525000D03*
X112075000Y-190525000D03*
X112725000Y-190525000D03*
%TD*%
%LPD*%
M02*
