%TF.GenerationSoftware,KiCad,Pcbnew,8.0.7*%
%TF.CreationDate,2025-01-05T21:02:15-05:00*%
%TF.ProjectId,rp2040-programmer-calculator-v2,72703230-3430-42d7-9072-6f6772616d6d,rev?*%
%TF.SameCoordinates,Original*%
%TF.FileFunction,Paste,Bot*%
%TF.FilePolarity,Positive*%
%FSLAX46Y46*%
G04 Gerber Fmt 4.6, Leading zero omitted, Abs format (unit mm)*
G04 Created by KiCad (PCBNEW 8.0.7) date 2025-01-05 21:02:15*
%MOMM*%
%LPD*%
G01*
G04 APERTURE LIST*
G04 Aperture macros list*
%AMRoundRect*
0 Rectangle with rounded corners*
0 $1 Rounding radius*
0 $2 $3 $4 $5 $6 $7 $8 $9 X,Y pos of 4 corners*
0 Add a 4 corners polygon primitive as box body*
4,1,4,$2,$3,$4,$5,$6,$7,$8,$9,$2,$3,0*
0 Add four circle primitives for the rounded corners*
1,1,$1+$1,$2,$3*
1,1,$1+$1,$4,$5*
1,1,$1+$1,$6,$7*
1,1,$1+$1,$8,$9*
0 Add four rect primitives between the rounded corners*
20,1,$1+$1,$2,$3,$4,$5,0*
20,1,$1+$1,$4,$5,$6,$7,0*
20,1,$1+$1,$6,$7,$8,$9,0*
20,1,$1+$1,$8,$9,$2,$3,0*%
G04 Aperture macros list end*
%ADD10R,0.750000X1.000000*%
%ADD11RoundRect,0.100000X0.100000X-0.637500X0.100000X0.637500X-0.100000X0.637500X-0.100000X-0.637500X0*%
%ADD12R,0.500000X0.800000*%
%ADD13R,0.400000X0.800000*%
%ADD14RoundRect,0.225000X-0.225000X-0.250000X0.225000X-0.250000X0.225000X0.250000X-0.225000X0.250000X0*%
%ADD15R,1.000000X0.750000*%
G04 APERTURE END LIST*
D10*
%TO.C,SW64*%
X34782500Y-54935000D03*
X34782500Y-48935000D03*
X31032500Y-54935000D03*
X31032500Y-48935000D03*
%TD*%
D11*
%TO.C,U5*%
X52075000Y-176837501D03*
X51425000Y-176837501D03*
X50775000Y-176837501D03*
X50125000Y-176837501D03*
X49475000Y-176837501D03*
X48825000Y-176837501D03*
X48175000Y-176837501D03*
X47525000Y-176837501D03*
X46875000Y-176837501D03*
X46225000Y-176837501D03*
X45575000Y-176837501D03*
X44925000Y-176837501D03*
X44925000Y-182562501D03*
X45575000Y-182562501D03*
X46225000Y-182562501D03*
X46875000Y-182562501D03*
X47525000Y-182562501D03*
X48175000Y-182562501D03*
X48825000Y-182562501D03*
X49475000Y-182562501D03*
X50125000Y-182562501D03*
X50775000Y-182562501D03*
X51425000Y-182562501D03*
X52075000Y-182562501D03*
%TD*%
%TO.C,U4*%
X100075000Y-176837501D03*
X99425000Y-176837501D03*
X98775000Y-176837501D03*
X98125000Y-176837501D03*
X97475000Y-176837501D03*
X96825000Y-176837501D03*
X96175000Y-176837501D03*
X95525000Y-176837501D03*
X94875000Y-176837501D03*
X94225000Y-176837501D03*
X93575000Y-176837501D03*
X92925000Y-176837501D03*
X92925000Y-182562501D03*
X93575000Y-182562501D03*
X94225000Y-182562501D03*
X94875000Y-182562501D03*
X95525000Y-182562501D03*
X96175000Y-182562501D03*
X96825000Y-182562501D03*
X97475000Y-182562501D03*
X98125000Y-182562501D03*
X98775000Y-182562501D03*
X99425000Y-182562501D03*
X100075000Y-182562501D03*
%TD*%
%TO.C,U3*%
X52075000Y-201837501D03*
X51425000Y-201837501D03*
X50775000Y-201837501D03*
X50125000Y-201837501D03*
X49475000Y-201837501D03*
X48825000Y-201837501D03*
X48175000Y-201837501D03*
X47525000Y-201837501D03*
X46875000Y-201837501D03*
X46225000Y-201837501D03*
X45575000Y-201837501D03*
X44925000Y-201837501D03*
X44925000Y-207562501D03*
X45575000Y-207562501D03*
X46225000Y-207562501D03*
X46875000Y-207562501D03*
X47525000Y-207562501D03*
X48175000Y-207562501D03*
X48825000Y-207562501D03*
X49475000Y-207562501D03*
X50125000Y-207562501D03*
X50775000Y-207562501D03*
X51425000Y-207562501D03*
X52075000Y-207562501D03*
%TD*%
%TO.C,U2*%
X100075000Y-201837501D03*
X99425000Y-201837501D03*
X98775000Y-201837501D03*
X98125000Y-201837501D03*
X97475000Y-201837501D03*
X96825000Y-201837501D03*
X96175000Y-201837501D03*
X95525000Y-201837501D03*
X94875000Y-201837501D03*
X94225000Y-201837501D03*
X93575000Y-201837501D03*
X92925000Y-201837501D03*
X92925000Y-207562501D03*
X93575000Y-207562501D03*
X94225000Y-207562501D03*
X94875000Y-207562501D03*
X95525000Y-207562501D03*
X96175000Y-207562501D03*
X96825000Y-207562501D03*
X97475000Y-207562501D03*
X98125000Y-207562501D03*
X98775000Y-207562501D03*
X99425000Y-207562501D03*
X100075000Y-207562501D03*
%TD*%
D12*
%TO.C,RN8*%
X35300000Y-190350001D03*
D13*
X36100000Y-190350001D03*
X36900000Y-190350001D03*
D12*
X37700000Y-190350001D03*
X37700000Y-188550001D03*
D13*
X36900000Y-188550001D03*
X36100000Y-188550001D03*
D12*
X35300000Y-188550001D03*
%TD*%
%TO.C,RN7*%
X59300000Y-190350001D03*
D13*
X60100000Y-190350001D03*
X60900000Y-190350001D03*
D12*
X61700000Y-190350001D03*
X61700000Y-188550001D03*
D13*
X60900000Y-188550001D03*
X60100000Y-188550001D03*
D12*
X59300000Y-188550001D03*
%TD*%
%TO.C,RN6*%
X83300000Y-190350001D03*
D13*
X84100000Y-190350001D03*
X84900000Y-190350001D03*
D12*
X85700000Y-190350001D03*
X85700000Y-188550001D03*
D13*
X84900000Y-188550001D03*
X84100000Y-188550001D03*
D12*
X83300000Y-188550001D03*
%TD*%
%TO.C,RN5*%
X107300000Y-190350001D03*
D13*
X108100000Y-190350001D03*
X108900000Y-190350001D03*
D12*
X109700000Y-190350001D03*
X109700000Y-188550001D03*
D13*
X108900000Y-188550001D03*
X108100000Y-188550001D03*
D12*
X107300000Y-188550001D03*
%TD*%
%TO.C,RN4*%
X35300000Y-215350001D03*
D13*
X36100000Y-215350001D03*
X36900000Y-215350001D03*
D12*
X37700000Y-215350001D03*
X37700000Y-213550001D03*
D13*
X36900000Y-213550001D03*
X36100000Y-213550001D03*
D12*
X35300000Y-213550001D03*
%TD*%
%TO.C,RN3*%
X59300000Y-215350001D03*
D13*
X60100000Y-215350001D03*
X60900000Y-215350001D03*
D12*
X61700000Y-215350001D03*
X61700000Y-213550001D03*
D13*
X60900000Y-213550001D03*
X60100000Y-213550001D03*
D12*
X59300000Y-213550001D03*
%TD*%
%TO.C,RN2*%
X83300000Y-215350001D03*
D13*
X84100000Y-215350001D03*
X84900000Y-215350001D03*
D12*
X85700000Y-215350001D03*
X85700000Y-213550001D03*
D13*
X84900000Y-213550001D03*
X84100000Y-213550001D03*
D12*
X83300000Y-213550001D03*
%TD*%
%TO.C,RN1*%
X107300000Y-215350001D03*
D13*
X108100000Y-215350001D03*
X108900000Y-215350001D03*
D12*
X109700000Y-215350001D03*
X109700000Y-213550001D03*
D13*
X108900000Y-213550001D03*
X108100000Y-213550001D03*
D12*
X107300000Y-213550001D03*
%TD*%
D14*
%TO.C,C29*%
X55050000Y-176950002D03*
X53500000Y-176950002D03*
%TD*%
%TO.C,C20*%
X103050000Y-176950002D03*
X101500000Y-176950002D03*
%TD*%
%TO.C,C11*%
X55050000Y-201950002D03*
X53500000Y-201950002D03*
%TD*%
%TO.C,C2*%
X103050000Y-201950001D03*
X101500000Y-201950001D03*
%TD*%
D15*
%TO.C,SW1*%
X78000000Y-37250000D03*
X72000000Y-37250000D03*
X78000000Y-41000000D03*
X72000000Y-41000000D03*
%TD*%
M02*
